<!-- by TradingView --><svg width="56" height="56" viewBox="0 0 56 56" xmlns="http://www.w3.org/2000/svg"><path fill="#F0F3FA" d="M0 0h56v56H0z"/><path d="M27.99 14c11.04 0 19.98 6.27 19.98 14S39.03 42 28 42C16.95 42 8 35.73 8 28s8.95-14 19.99-14Z" fill="#FCFE7F"/><path d="M44.48 35.76C40.9 39.52 34.82 42 27.9 42c-7.02 0-13.2-2.56-16.74-6.42l3.56.88 5.11-1.39 3.67 1.57L28 35.07l4.57 1.52 4.48-1.43 4.22 1.7 3.22-1.1ZM15 26c3.31 0 6 1.8 6 4s-2.69 4-6 4-6-1.8-6-4 2.69-4 6-4ZM28 26c3.31 0 6 1.8 6 4s-2.69 4-6 4-6-1.8-6-4 2.69-4 6-4ZM41 26c3.31 0 6 1.8 6 4s-2.69 4-6 4-6-1.8-6-4 2.69-4 6-4Z" fill="#8CB68E"/><path d="M10.13 34.3c-.29-.4-.54-.8-.77-1.22L10.72 32l4 2 5-2 4 2L28 32l5 2 4-2 4 2 4.57-1.5 1.2.28c-.24.49-.53.96-.85 1.42l-.7-.17L41 36l-4-2-4 2-5-2-4.28 2-4-2-5 2-4-2.08-.6.37Z" fill="#FCFE7F"/><path d="M12.5 36.84a14.76 14.76 0 0 1-2.3-2.44l.52-.4 4 2 5-2 4 2L28 34l5 2 4-2 4 2 4.57-1.5.1.02c-.61.83-1.35 1.6-2.19 2.32L41 38l-4-2-4 2-5-2-4.28 2-4-2-5 2-2.23-1.16Z" fill="#F0F3FA"/><path d="M9.66 33.59c-.25-.4-.47-.8-.67-1.22L10.72 31l4 2 5-2 4 2L28 31l5 2 4-2 4 2 4.57-1.5 1.63.38c-.2.5-.45.98-.72 1.45l-1.25-.3L41 35l-4-2-4 2-5-2-4.28 2-4-2-5 2-4-2.08-1.06.67Z" fill="#F0F3FA"/><path d="M28 20c7.88 0 14.7 1.22 18 3H10c3.3-1.78 10.12-3 18-3Z" fill="#8CB68E"/><path fill-rule="evenodd" d="M17.5 18.5h-2v1h2v-1ZM15 18v2h3v-2h-3ZM18 20h21l-17.44-3L18 20Zm1.37-.5h13.77L21.7 17.53l-2.33 1.97Z" fill="#84808E"/><path d="m21 19.99.02-1.99h.5l-.02 2-.5-.01Z" fill="#84808E"/><path fill-rule="evenodd" d="m28 16 6.6 7H38l-10-7Zm8.41 6.5-4.7-3.3 3.1 3.3h1.6Z" fill="#84808E"/><path d="M20 23v-3h.5v3H20ZM22 23v-3h.5v3H22ZM38 26.82 43 31l-3.29-5-.36.34 1.35 2.07-2.19-1.83-.51.24ZM44.67 27 43 28.54l.03 2.41 3.68.05.29-1.08-2.75.1-.85.58.15-1.86.75-.69.37-1.05ZM28 23v-7h.5v7H28Z" fill="#84808E"/><path fill-rule="evenodd" d="M41.86 18.51C38.33 16.04 33.43 14.5 28 14.5s-10.33 1.54-13.86 4.01C10.62 20.98 8.5 24.34 8.5 28s2.12 7.02 5.64 9.49c3.53 2.47 8.43 4.01 13.86 4.01s10.33-1.54 13.86-4.01c3.52-2.47 5.64-5.83 5.64-9.49s-2.12-7.02-5.64-9.49ZM48 28c0-7.73-8.95-14-20-14S8 20.27 8 28s8.95 14 20 14 20-6.27 20-14Z" fill="#84808E"/></svg>