<!-- by TradingView --><svg width="56" height="56" viewBox="0 0 56 56" xmlns="http://www.w3.org/2000/svg"><path fill="#F0F3FA" d="M0 0h56v56H0z"/><path fill-rule="evenodd" d="M20 20H7v5h8.5c1.5 0 1.5 2 1.5 2s-1.24-1-3.5-1S7 28.11 7 32.58A6.37 6.37 0 0 0 13.28 39c2.65 0 4.32-1.46 4.32-1.46L18 39h5V23.25c0-3.11-3-3.25-3-3.25Zm-3 12c0-1.1-.86-2-2-2-1.14 0-2 .9-2 2s.86 2 2 2c1.05 0 2-.9 2-2ZM45 20H30.5v5h10c1.5 0 1.5 2 1.5 2s-1.24-1-3.5-1-6.5 2.11-6.5 6.58A6.37 6.37 0 0 0 38.28 39a7 7 0 0 0 4.32-1.46L43 39h5V23.25c0-3.11-3-3.25-3-3.25Zm-3 12c0-1.1-.86-2-2-2-1.14 0-2 .9-2 2s.86 2 2 2c1.05 0 2-.9 2-2Z" fill="#00762C"/><path d="M24 44h7V19s0-2 2-2v-6h-4.6s-4.4.3-4.4 4.49V44Z" fill="#00762C"/><path fill-rule="evenodd" d="M20 19H7v5h8.5c1.5 0 1.5 2 1.5 2s-1.24-1-3.5-1S7 27.11 7 31.58A6.37 6.37 0 0 0 13.28 38c2.65 0 4.32-1.46 4.32-1.46L18 38h5V22.25c0-3.11-3-3.25-3-3.25Zm-3 12c0-1.1-.86-2-2-2-1.14 0-2 .9-2 2s.86 2 2 2c1.05 0 2-.9 2-2ZM45 19H30.5v5h10c1.5 0 1.5 2 1.5 2s-1.24-1-3.5-1-6.5 2.11-6.5 6.58A6.37 6.37 0 0 0 38.28 38a7 7 0 0 0 4.32-1.46L43 38h5V22.25c0-3.11-3-3.25-3-3.25Zm-3 12c0-1.1-.86-2-2-2-1.14 0-2 .9-2 2s.86 2 2 2c1.05 0 2-.9 2-2Z" fill="#10A736"/><path d="M24 43h7V18s0-2 2-2v-6h-4.6s-4.4.3-4.4 4.49V43Z" fill="#10A736"/></svg>