<!-- by TradingView --><svg width="56" height="56" viewBox="0 0 56 56" xmlns="http://www.w3.org/2000/svg"><path fill="#F0F3FA" d="M0 0h56v56H0z"/><path d="M16 43h2V15.18c0-.65.53-1.18 1.17-1.18h18c.46 0 .83.38.83.83v.25c0 .31.25.57.56.57h.88c.31 0 .56-.26.56-.57v-1.33c0-.96-.78-1.75-1.74-1.75H17.74c-.96 0-1.74.79-1.74 1.75V43Zm22-24v20.92c0 .6-.48 1.08-1.07 1.08H31v2h7.26c.96 0 1.74-.79 1.74-1.75V18l-2 1Z" fill="#2D2F93"/><path d="M22.03 21h4.89c-.24-.46-.92-1.76-.92-2.6 0-1.14 1.94-2.4 3.43-2.4h3.98s1.13-1 3.26-1c0 0 .38 1.1 3.33 1.34 0 0-1.72 1.66-4.43 1.66-2.7 0-2.53-1-4.18-1-1.66 0-2.34 1.04-2.34 1.78 0 1.62 1.4 2.8 2.96 2.8.79 0 1.34-.29 1.7-.58h.34l.79 2H23.19A1.2 1.2 0 0 0 22 24.22v3.48l-2 4.35v-8.96c0-1.15.91-2.09 2.03-2.09ZM22 34.9v5.16c0 .52.41.94.92.94H27v2h-5.04A2 2 0 0 1 20 40.98v-7.3l2 1.22Z" fill="#2D2F93"/><path fill-rule="evenodd" d="M23.03 27h11.19l2.1 6.1-7.05 4.07v6.38L32.9 46h-9.03l3.7-2.43v-6.43l-6.84-4.17 2.3-5.97Zm.48.97h10.06l1.47 4.83-7.05 3.77-5.96-3.58 1.48-5.02Z" fill="#2D2F93"/></svg>