<!-- by TradingView --><svg width="56" height="56" viewBox="0 0 56 56" xmlns="http://www.w3.org/2000/svg"><path fill="#F0F3FA" d="M0 0h56v56H0z"/><path d="M28.11 21C41.31 21 52 24.3 52 28.37c0 2.03-2.72 3.85-7 5.15-3.41-.86-8.97-1.38-15.38-1.38C22.1 32.14 16 32.92 13 34c-5.23-1.34-9-3.38-9-5.63 0-3.51 7.92-6.42 18.56-7.15v.13a2.72 2.72 0 0 0 2.8 2.65c1.54 0 2.84-1.18 2.84-2.65-.09-.13-.09-.26-.09-.35ZM32.14 38h1.18v-.13c0-.9.8-1.87 1.8-1.87s1.88.98 1.88 1.87v.04c5.98-.31 10.32-1.2 12-2.31-3.3-.93-9.2-1.6-15.96-1.6-7.57 0-14.1.8-17.04 1.96C18.63 37.1 24.88 38 32.14 38Z" fill="#6DB7F8"/><path d="M11.06 28.58H8.77l-.73 1.84c-.04.08-.04.12-.04.16 0 .07.08.15.21.15h.04V31H7v-.27c.08 0 .13-.04.17-.08a.6.6 0 0 0 .13-.23L9.7 25h.6l2.45 5.46c.08.16.12.23.25.27V31h-1.25v-.27c.17 0 .25-.04.25-.11 0-.04 0-.12-.04-.2l-.9-1.84ZM10.8 28l-.93-2L9 28h1.8ZM16 27.11V28h-.17c-.1-.19-.29-.43-.53-.43-.33 0-.6.25-.6.56v2.27c0 .1.03.22.07.26.03.04.1.08.23.11V31h-1.27v-.23c.1-.03.17-.07.2-.11.04-.04.07-.11.07-.23v-2.86c0-.14-.1-.27-.23-.27h-.04V27h.94v.38c.18-.21.54-.38.83-.38.17 0 .37.04.5.11ZM43 27.11V28h-.17c-.1-.19-.29-.43-.53-.43-.33 0-.6.25-.6.56v2.27c0 .1.03.22.07.26.03.04.1.08.23.11V31h-1.27v-.23c.1-.03.17-.07.2-.11.04-.04.07-.11.07-.23v-2.86c0-.14-.1-.27-.23-.27h-.04V27h.94v.38c.18-.21.54-.38.83-.38.17 0 .37.04.5.11ZM22 25v2.39c.42-.22.79-.39 1.3-.39 1.05 0 1.7.78 1.7 1.8 0 1.31-.97 2.2-2.26 2.2H21v-.2c.11-.03.3-.03.33-.07.04-.04.04-.12.04-.23v-4.84c0-.23-.14-.35-.37-.35V25h1Zm0 3v2.5h.4c.38 0 .71-.08.97-.2.57-.25.82-.87.82-1.47 0-.68-.39-1.21-1.12-1.21-.4 0-1.07.38-1.07.38ZM28 30.64c.18 0 .23-.3.23-.44v-5.44c0-.16-.03-.45-.23-.45V24h1.34c2.52 0 4.66 1.22 4.66 3.92 0 2.03-1.59 3.08-3.47 3.08H28v-.36Zm1-.35h1.36c1.5 0 2.87-.73 2.87-2.41 0-2.45-2.06-3.13-4.23-3.26v5.67ZM40.23 30.77V31H39v-.23c.24 0 .4-.05.4-.3v-2.85c0-.3-.15-.3-.4-.39V27h1v3.46c0 .2.07.24.23.3Z" fill="#F0F3FA"/><path d="M47 27v.24c-.15.07-.25.14-.3.3l-1.5 4.09c-.26.83-.88 1.37-1.78 1.37-.15 0-.3-.04-.42-.08V32h.23v.04c0 .18.12.45.3.45.62 0 1.18-.46 1.18-1.07 0-.04 0-.17-.03-.3l-1.38-3.57c-.05-.17-.15-.24-.3-.31V27h1.22v.24c-.08.02-.22.07-.22.15 0 .03.01.15.05.19L45 30l.95-2.3c.05-.15.05-.2.05-.23-.01-.12-.07-.23-.18-.23V27H47Z" fill="#F0F3FA"/><circle cx="39.5" cy="25.5" r=".5" fill="#F0F3FA"/><path d="M19 30.37c-.26.3-.4.63-.95.63-.58 0-1.05-.39-1.05-.98 0-1.05 1.28-1.4 2-1.62 0-.56.07-1.15-.61-1.15-.27 0-.59.14-.59.47l.01.24c0 .25-.16.4-.4.4-.24 0-.41-.15-.41-.4 0-.75.97-.96 1.53-.96.96 0 1.26.34 1.26 1.3v1.3c0 .36.01.58.03.67.03.16.11.2.2.2a.3.3 0 0 0 .14-.03c.07-.03.2-.13.39-.3v.23c-.36.42-.7.63-1.03.63-.31 0-.51-.17-.52-.63Zm0-.27v-1.45c-.5.17-1.2.58-1.2 1.17 0 .38.21.7.6.7.23 0 .4-.25.6-.42ZM37 30.37c-.26.3-.4.63-.95.63-.58 0-1.05-.39-1.05-.98 0-1.05 1.28-1.4 2-1.62 0-.56.07-1.15-.61-1.15-.27 0-.59.14-.59.47l.01.24c0 .25-.16.4-.4.4-.24 0-.41-.15-.41-.4 0-.75.97-.96 1.53-.96.96 0 1.26.34 1.26 1.3v1.3c0 .36.01.58.03.67.03.16.11.2.2.2a.3.3 0 0 0 .14-.03c.07-.03.2-.13.39-.3v.23c-.36.42-.7.63-1.03.63-.31 0-.51-.17-.52-.63Zm0-.27v-1.45c-.5.17-1.2.58-1.2 1.17 0 .38.21.7.6.7.23 0 .4-.25.6-.42Z" fill="#F0F3FA"/></svg>