<!-- by TradingView --><svg width="56" height="56" viewBox="0 0 56 56" xmlns="http://www.w3.org/2000/svg"><path fill="#F0F3FA" d="M0 0h56v56H0z"/><path d="M28.34 11C33.9 11 38.8 13.61 42 17.63a14.66 14.66 0 0 0-9.84-3.82c-8.04 0-14.16 6.5-14.16 14.53C18 36.38 24.12 43 32.16 43c3.75 0 7.16-1.54 9.77-3.88-3.21 4.02-8.1 5.88-13.59 5.88C18.77 45 11 37.92 11 28.34A17.3 17.3 0 0 1 28.34 11Z" fill="#E61B19"/><path d="M28 20v12s.38 3 4.53 3C36.7 35 37 32 37 32V20h-9Z" fill="#5AB2FE"/><path d="m29 19 .5 1 .5-1h2l.5 1 .5-1h2l.5 1 .5-1h2v12.71c-.87-.07 0-.02 0 0 0 .23-.08.47-.15.7-.11.39-.32.92-.69 1.45-.75 1.1-2.15 2.14-4.63 2.14-2.46 0-3.87-.99-4.65-2.02a4.84 4.84 0 0 1-.88-2.05V19h2Zm-1 1v12c.02.13.11.15.15.29.1.3.28.7.58 1.1.58.78 1.68 1.6 3.8 1.6s3.2-.86 3.77-1.69c.2-.28.67-1.05.7-1.3V20h-.45l-.67 1.01H35l-.5-1h-1l-.5 1h-.98L31.5 20h-1l-.5 1h-1l-.5-1H28Z" fill="#2B2A29"/><path d="M26.5 35c1.59 1.6 3.5 3 6 3 2.39 0 4.62-1.42 6-2.98l.5.98c-2 2-3.97 3-6.5 3S28 38 26 35.93c0-.14.43-.8.5-.93ZM28.5 39c1.2.7 2.74 1 4.15 1 1.3 0 2.75-.25 3.85-.98l.5.98c-1.29.86-2.81 1-4.35 1-1.63 0-3.26-.2-4.65-1l.5-1Z" fill="#2B2A29"/><path d="M32.02 25.53c.26-.07 3.88-1.74 4.15.2.26 1.94-3.22 2.95-3.22 2.95s2.28.73 2.28 1.74c0 .93-2.14 1.2-2.14 1.2l-.2.74-.54-.27s.6-1.2 1.54-1.47c1-.27-2.34-.6-2.34-1.48 0-.87 3.08-1.67 3.41-2.94.34-1.27-2.74.07-2.74.07s-2.68 1.2-2.82.87c-.2-.34-.6-1.68 2.62-1.61Z" fill="#171053"/><path d="M28 32h9c-.13.61-.82 3-4.5 3-4.12 0-4.5-3-4.5-3Z" fill="#171053"/><path d="M33 23h-1v9h1v-9Z" fill="#4B1549"/><path d="M32.5 24a1 1 0 1 0 0-2 1 1 0 0 0 0 2Z" fill="#4B1549"/><path opacity=".7" fill="url(#a514c5dce)" d="M26 16h6v2h-6z"/><path opacity=".7" fill="url(#b514c5dce)" d="M33 16h6v2h-6z"/><defs><linearGradient id="a514c5dce" x1="29" y1="16" x2="29" y2="18"><stop offset="1" stop-color="#181B1E"/></linearGradient><linearGradient id="b514c5dce" x1="36" y1="16" x2="36" y2="18"><stop offset="1" stop-color="#181B1E"/></linearGradient></defs></svg>