<!-- by TradingView --><svg width="56" height="56" viewBox="0 0 56 56" xmlns="http://www.w3.org/2000/svg"><path fill="#F0F3FA" d="M0 0h56v56H0z"/><path d="M28 44s8-6.84 8-15.45c0-8.62-3.1-12.31-7.91-16.55 0 0-8.09 5.88-8.09 16.14C20 38.39 28 44 28 44Z" fill="#914C51"/><path d="M28 44s7.4-6.76 7.4-15.38c0-8.63-2.98-12.32-7.4-16.57 0 0-7.27 5.89-7.27 16.16C20.73 38.47 28 44 28 44Zm8.98-15.38c0 9.17-7.88 16.42-7.88 16.42L28 46l-1.1-.96S19 39.02 19 28.07c0-10.82 7.9-17.11 7.9-17.11L28 10l1.1.96c2.21 2.19 4.41 4.24 5.67 6.98 1.58 2.87 2.37 6.16 2.21 10.68Z" fill="url(#a2cc42hbp)"/><path d="M16.4 16.55s.42 9.5 6.57 15.79c6.29 6.29 10.76 6.98 16.49 7.26 0 0 .42-8.94-6.99-16.34-7.4-7.4-16.07-6.7-16.07-6.7Z" fill="#C28147"/><path d="M16.4 16.55s.42 9.5 6.57 15.79c6.29 6.29 10.76 6.98 16.49 7.26 0 0 .42-8.94-6.99-16.34-7.4-7.4-16.07-6.7-16.07-6.7Zm5.59 16.77C15.28 26.62 15 16.55 15 16.55v-1.4l1.4-.13s9.36-.7 17.19 7.26c7.83 7.82 7.4 17.32 7.4 17.32V41h-1.4c-2.93-.14-5.72-.42-8.52-1.54-2.93-.97-5.73-2.93-9.08-6.14Z" fill="url(#b2cc42hbp)"/><path d="M11.8 28.07s6.89 6.51 15.72 6.51c8.69 0 12.41-2.69 16.55-6.65 0 0-5.93-6.66-16.28-6.66-10.34.15-16 6.8-16 6.8Z" fill="#DAE4DB"/><path d="M12 28s6.69 6.58 15.52 6.58c8.69 0 12.34-2.62 16.48-6.58 0 0-5.86-6.73-16.2-6.73C17.44 21.42 12 28 12 28Zm15.52 8c-9.24 0-16.55-7-16.55-7L10 28l.83-1s6.07-7 16.96-7c10.9 0 17.24 7 17.24 7l.97 1-.97 1c-2.2 2.12-4.27 3.88-6.9 5.16C35.39 35.29 32.08 36 27.53 36Z" fill="url(#c2cc42hbp)"/><path d="M39.73 16.4s-9.5.29-15.79 6.61c-6.29 6.32-7.12 10.82-7.4 16.58 0 0 8.94.42 16.35-7.02 7.4-7.45 6.84-16.16 6.84-16.16Z" fill="#DAE4DB"/><path d="M39.73 16.4s-9.5.29-15.79 6.61c-6.29 6.32-7.12 10.82-7.4 16.58 0 0 8.94.42 16.35-7.03 7.4-7.44 6.84-16.15 6.84-16.15Zm-16.9 5.63c6.7-6.6 16.76-7.03 16.76-7.03H41v1.4s.56 9.28-7.27 17.15C25.9 41.42 16.4 41 16.4 41H15l.14-1.4c.14-3.1.42-5.77 1.54-8.58 1.11-2.95 2.93-5.76 6.15-9Z" fill="url(#d2cc42hbp)"/><defs><linearGradient id="a2cc42hbp" x1="18" y1="19.5" x2="38.5" y2="29.5" gradientUnits="userSpaceOnUse"><stop stop-color="#100509"/><stop offset=".35" stop-color="#606562"/><stop offset=".73" stop-color="#5E615F"/><stop offset="1" stop-color="#2C1B25"/></linearGradient><linearGradient id="b2cc42hbp" x1="14" y1="15" x2="42.5" y2="41.5" gradientUnits="userSpaceOnUse"><stop stop-color="#5A655D"/><stop offset=".55" stop-color="#222A1F"/><stop offset="1" stop-color="#585A5A"/></linearGradient><linearGradient id="c2cc42hbp" x1="10" y1="28" x2="47" y2="28" gradientUnits="userSpaceOnUse"><stop stop-color="#5C6063"/><stop offset=".48" stop-color="#2C2221"/><stop offset="1" stop-color="#5F5F63"/></linearGradient><linearGradient id="d2cc42hbp" x1="28" y1="15" x2="28" y2="41" gradientUnits="userSpaceOnUse"><stop stop-color="#5E5F61"/><stop offset=".21" stop-color="#191919"/><stop offset=".25" stop-color="#595D60"/><stop offset=".56" stop-color="#5E5158"/><stop offset=".66" stop-color="#191718"/><stop offset="1" stop-color="#616662"/></linearGradient></defs></svg>