<!-- by TradingView --><svg width="56" height="56" viewBox="0 0 56 56" xmlns="http://www.w3.org/2000/svg"><path fill="#F0F3FA" d="M0 0h56v56H0z"/><path d="M21.5 33.5c.28 0 .5.22.5.5a.5.5 0 0 1-.5.5.5.5 0 0 1-.5-.5c-.02-.28.22-.5.5-.5ZM24 35c.28 0 .5.22.5.5a.5.5 0 0 1-.5.5.5.5 0 0 1-.5-.5c0-.28.22-.5.5-.5ZM23 38c.28 0 .5.22.5.5a.5.5 0 0 1-.5.5.5.5 0 0 1-.5-.5c0-.26.22-.5.5-.5ZM20 38c.28 0 .5.22.5.5a.5.5 0 0 1-.5.5.5.5 0 0 1-.5-.5c0-.28.22-.5.5-.5ZM19 35c.28 0 .5.22.5.5a.5.5 0 0 1-.5.5.5.5 0 0 1-.5-.5c0-.28.22-.5.5-.5Z" fill="#434345"/><path d="M16.74 34S22 28.77 22 24.48c0-4.29-6.47-10.25-6.47-12.5s.52-2.49.79-2.98c-.4-.13-6.32 6.56-6.32 12.31 0 5.75 6.22 7.17 6.74 12.69Z" fill="#D2232A"/><path d="M23.25 27.98H22L25.44 20h1.29L28 28h-1.14l-.35-2h-2.42l-.84 1.98ZM24.51 25h1.82l-.54-3.05L24.51 25ZM29 28l1-6.45.4 6.45h1.13l2.15-6.36L33 28h1l1-7.96h-1.73L31.2 26l-.54-6h-1.64L28 28h1Z" fill="#181B1E"/><path fill-rule="evenodd" d="M40.95 24.37c.3-2.2-.76-4.16-2.39-4.35-1.63-.21-3.2 1.4-3.5 3.61-.31 2.2.75 4.16 2.38 4.35 1.63.21 3.2-1.4 3.5-3.61Zm-.99-.1c.21-1.66-.5-3.11-1.59-3.26-1.08-.14-2.13 1.07-2.33 2.71-.21 1.66.5 3.1 1.59 3.27 1.08.16 2.13-1.07 2.33-2.71Z" fill="#181B1E"/><path d="M46.7 26c-.69 1.31-1.9 2.14-3.15 1.98-1.7-.2-2.82-2.15-2.5-4.35.33-2.2 1.97-3.82 3.68-3.61 1.04.12 1.86.9 2.27 1.98h-1.2c-.3-.55-.75-.92-1.3-.99-1.12-.14-2.21 1.07-2.42 2.71-.22 1.66.52 3.12 1.65 3.27.67.1 1.33-.3 1.8-.99h1.17Z" fill="#181B1E"/><path d="m22 29.5.07-.5h.02a14.39 14.39 0 0 0 .67.07c.24.01.44.16.6.29l.24.23.04.03.23.21c.36.33.77.6 1.3.6.52 0 .97-.29 1.48-.65l.05-.04c.23-.16.47-.34.73-.47.27-.15.58-.25.92-.25.64 0 1.14.38 1.57.71l.07.05c.47.37.89.66 1.41.66.54 0 .98-.3 1.5-.65l.04-.03c.48-.33 1.03-.71 1.7-.71.7 0 1.2.4 1.63.74l.04.03c.47.36.86.65 1.4.65.53 0 .94-.29 1.41-.64l.06-.05c.43-.33.94-.71 1.6-.71.65 0 1.17.39 1.6.72l.07.04c.48.37.9.66 1.44.66.53 0 .92-.3 1.38-.67l.03-.02c.44-.35.96-.77 1.7-.77v.51c-.53 0-.92.3-1.39.67l-.02.02c-.44.35-.96.77-1.7.77-.75 0-1.3-.42-1.77-.77-.5-.37-.87-.65-1.34-.65-.47 0-.85.28-1.33.65-.45.34-1 .75-1.75.75s-1.28-.41-1.72-.76c-.47-.37-.84-.66-1.34-.66-.5 0-.91.29-1.43.65h-.01c-.49.34-1.07.74-1.8.74s-1.29-.42-1.74-.77c-.5-.37-.86-.65-1.31-.65-.22 0-.44.06-.67.19-.22.11-.43.27-.67.44l-.04.03c-.49.34-1.07.76-1.8.76-.75 0-1.28-.4-1.67-.74l-.24-.23a8.79 8.79 0 0 0-.26-.24c-.15-.13-.24-.16-.28-.16a65.3 65.3 0 0 1-.69-.07H22ZM22 31.5l.07-.5h.02a14.39 14.39 0 0 0 .67.07c.24.01.44.16.6.29l.24.23.04.03.23.21c.36.33.77.6 1.3.6.52 0 .97-.29 1.48-.65l.05-.04c.23-.16.47-.34.73-.47.27-.15.58-.25.92-.25.64 0 1.14.38 1.57.71l.07.05c.47.37.89.66 1.41.66.54 0 .98-.3 1.5-.65l.04-.03c.48-.33 1.03-.71 1.7-.71.7 0 1.2.4 1.63.74l.04.03c.47.36.86.65 1.4.65.53 0 .94-.29 1.41-.64l.06-.05c.43-.33.94-.71 1.6-.71.65 0 1.17.39 1.6.72l.07.04c.48.37.9.66 1.44.66.53 0 .92-.3 1.38-.67l.03-.02c.44-.35.96-.77 1.7-.77v.51c-.53 0-.92.3-1.39.67l-.02.02c-.44.35-.96.77-1.7.77-.75 0-1.3-.42-1.77-.77-.5-.37-.87-.65-1.34-.65-.47 0-.85.28-1.33.65-.45.34-1 .75-1.75.75s-1.28-.41-1.72-.76c-.47-.37-.84-.66-1.34-.66-.5 0-.91.29-1.43.65h-.01c-.49.34-1.07.74-1.8.74s-1.29-.42-1.74-.77c-.5-.37-.86-.65-1.31-.65-.22 0-.44.06-.67.19-.22.11-.43.27-.67.44l-.04.03c-.49.34-1.07.76-1.8.76-.75 0-1.28-.4-1.67-.74l-.24-.23a8.79 8.79 0 0 0-.26-.24c-.15-.13-.24-.16-.28-.16a65.3 65.3 0 0 1-.69-.07H22ZM22 33.5l.07-.5h.02a14.39 14.39 0 0 0 .67.07c.24.01.44.16.6.29l.24.23.04.03.23.21c.36.33.77.6 1.3.6.52 0 .97-.29 1.48-.65l.05-.04c.23-.16.47-.34.73-.47.27-.15.58-.25.92-.25.64 0 1.14.38 1.57.71l.07.05c.47.37.89.66 1.41.66.54 0 .98-.3 1.5-.65l.04-.03c.48-.33 1.03-.71 1.7-.71.7 0 1.2.4 1.63.74l.04.03c.47.36.86.65 1.4.65.53 0 .94-.29 1.41-.64l.06-.05c.43-.33.94-.71 1.6-.71.65 0 1.17.39 1.6.72l.07.04c.48.37.9.66 1.44.66.53 0 .92-.3 1.38-.67l.03-.02c.44-.35.96-.77 1.7-.77v.51c-.53 0-.92.3-1.39.67l-.02.02c-.44.35-.96.77-1.7.77-.75 0-1.3-.42-1.77-.77-.5-.37-.87-.65-1.34-.65-.47 0-.85.28-1.33.65-.45.34-1 .75-1.75.75s-1.28-.41-1.72-.76c-.47-.37-.84-.66-1.34-.66-.5 0-.91.29-1.43.65h-.01c-.49.34-1.07.74-1.8.74s-1.29-.42-1.74-.77c-.5-.37-.86-.65-1.31-.65-.22 0-.44.06-.67.19-.22.11-.43.27-.67.44l-.04.03c-.49.34-1.07.76-1.8.76-.75 0-1.28-.4-1.67-.74l-.24-.23a8.79 8.79 0 0 0-.26-.24c-.15-.13-.24-.16-.28-.16a65.3 65.3 0 0 1-.69-.07H22Z" fill="#2B2A29"/><path d="M21.5 34a2.5 2.5 0 1 1 0 5 2.5 2.5 0 0 1 0-5Z" fill="#6E6E70"/><path d="M21.5 35a1.5 1.5 0 1 1 0 3 1.5 1.5 0 0 1 0-3Z" fill="#929397"/><path d="M11.06 27A17.5 17.5 0 0 0 28.5 46c6.17 0 11.39-3.19 14.51-8h-2v1a18.5 18.5 0 0 1-2 2l-2.25-1.38L34 41v3c-.8.3-1.35.5-2.21.67L30.26 42h-2.88L26 44.78a24.3 24.3 0 0 1-3-.78v-3l-2.21-1.48L18 41a8.31 8.31 0 0 1-1.74-1.43L18 36.72 16.48 34H13l-.53-1.81L14 31l-2.77-3.5-.17-.5ZM40.32 17h1.36c-3.2-3.68-7.92-6-13.19-6-3.9 0-7.58 1.28-10.49 3.43.17.24.45.55.64.84A16.44 16.44 0 0 1 40.32 17Z" fill="#181B1E"/></svg>