<!-- by TradingView --><svg width="56" height="56" viewBox="0 0 56 56" xmlns="http://www.w3.org/2000/svg"><path fill="#F0F3FA" d="M0 0h56v56H0z"/><path d="M14.68 15h28.64c.92 0 1.68.64 1.68 1.5s-.76 1.5-1.68 1.5H31c-.5 0-1 .73-1 2h-4c0-1.34-.5-2-1-2H14.68c-.92 0-1.68-.64-1.68-1.5s.76-1.5 1.68-1.5Z" fill="#D51728"/><path d="M36.93 25.73A9.86 9.86 0 0 0 28.59 21c-4.55 0-8.38 3.2-9.59 7.56l4.17 1.6a5.5 5.5 0 0 1 9.42-2.34l4.34-2.1ZM38 35l-3.94-2.05-.21-.17a5.5 5.5 0 0 1-9.99 1.67l-4.03 2.1A9.92 9.92 0 0 0 28.6 42c4.34 0 8.04-2.92 9.41-6.99Z" fill="#797979"/><path d="m28 31 13.76 6.91c.27.14.58.12.84-.06.25-.17.4-.45.4-.78V24.92c0-.5-.52-.92-1-.92s-1 .41-1 .92v9.16c0 .46-.1.89-.57.92a.83.83 0 0 1-.44-.1L30.66 30 28 31Z" fill="#1A2D56"/><path d="m13 33.99 6.43-3.27 4.73 2.27L27 32l-14.67-6.91a.92.92 0 0 0-.9.06.9.9 0 0 0-.43.78v12.15c0 .5.42.92.93.92.52 0 1.07-.41 1.07-.92v-4.1Zm3-5.03c-.12.48-.39 1.33-1.15 1.69-.76.35-1.39 0-1.85-.36v-1.36c0-.33.16-.61.44-.79.16-.1.29-.14.42-.14.1 0 .22.03.35.1l1.8.86Z" fill="#005E9E"/></svg>