<!-- by TradingView --><svg width="56" height="56" viewBox="0 0 56 56" xmlns="http://www.w3.org/2000/svg"><path fill="#F0F3FA" d="M0 0h56v56H0z"/><path d="M10.96 21 13 35h-3l-.5-3h-2L7 35H4l1.81-14h5.15ZM9.3 30c-.19-1.58-.6-3.67-.79-6-.36 2.68-.67 4.76-.76 6h1.55ZM21.7 25H19v-.65c0-.42.1-1.35-1.02-1.35-.8 0-.98.61-.98 1.31 0 .45.06.79.18 1.01.12.23.73.5 1.27.83 1.56.92 2.54 1.68 2.94 2.27.4.59.61 1.54.61 2.86 0 2.46-1.4 3.72-3.88 3.72-2.8 0-4.12-1.67-4.12-4.3V30h3v1.45c0 .5.18 1.55.98 1.55S19 32.36 19 31.64c0-.8-.43-1.31-.65-1.55a10.4 10.4 0 0 0-1.64-1.22c-.87-.58-1.45-1-1.73-1.26a2.94 2.94 0 0 1-.7-1.08 4.7 4.7 0 0 1-.28-1.75C14 22.3 15.3 21 17.8 21c2.39 0 3.9 1.03 3.9 3.47V25ZM31 27h-3v-2.2c0-.56.06-1.8-.97-1.8S26 24.3 26 24.9v6.25c0 .57 0 1.85 1 1.85s1-1.41 1-1.98V29h3v1.5c0 3.03-.95 4.5-3.95 4.5-3.03 0-4.05-1.33-4.05-4.5v-5c0-3 .98-4.5 3.95-4.5 2.9 0 4.05.93 4.05 4v2ZM40 29.15c0 2.97-.32 5.85-4 5.85-3.67 0-4-2.88-4-5.85v-2.3c0-2.97.33-5.85 4-5.85s4 2.89 4 5.85v2.3Zm-3-4.41c0-.42-.01-1.74-1-1.74-1 0-1 1.3-1 1.74V31c0 .44 0 1.99 1 1.99s1-1.65 1-2.1v-6.16ZM52 21v14h-3v-9.45L47.64 35h-2.21L44 25.76V35h-3V21h4.62c.35 2.17.62 3.82.92 6l.81-6H52Z" fill="#5B0609"/></svg>