<!-- by TradingView --><svg width="56" height="56" viewBox="0 0 56 56" xmlns="http://www.w3.org/2000/svg"><path fill="#F0F3FA" d="M0 0h56v56H0z"/><path d="M30 20a1 1 0 1 1 0 2 1 1 0 0 1 0-2ZM31 22a1 1 0 1 1 0 2 1 1 0 0 1 0-2Z" fill="#CEA328"/><path d="m27.38 9.17-17.33 30.3c-.08.14-.06.31.05.43.1.11.27.13.4.05l5.44-3.25 6.44-10.53a.33.33 0 0 1 .37-.16c.15.04.25.18.25.33l.03 6.16 1.9-1.19s2.97-1.47 3.07-4.66c.08-2.64.02-13.58 0-17.3 0-.16-.1-.3-.25-.34a.32.32 0 0 0-.37.16Z" fill="#9B8029"/><path d="M46.95 39.5 29.63 9.18a.34.34 0 0 0-.38-.17.32.32 0 0 0-.25.32v6.37l5.95 10.8c.04.06.05.12.05.18a.32.32 0 0 1-.1.22.32.32 0 0 1-.2.1.35.35 0 0 1-.2-.05c-1.2-.7-3.26-1.64-5.5-2.95l.08 2.24s-.02 3.32 2.65 5.02c2.21 1.4 11.58 6.84 14.77 8.7a.33.33 0 0 0 .45-.46Z" fill="#CEA328"/><path d="M19.13 33.5a1 1 0 1 1 1.74-1 1 1 0 0 1-1.74 1ZM20.13 31.5a1 1 0 1 1 1.74-1 1 1 0 0 1-1.74 1Z" fill="#9B8029"/><path d="M11.32 41h34.35c.15 0 .28-.1.32-.25a.34.34 0 0 0-.15-.38L40.36 38H28.32a.32.32 0 0 1-.3-.25.33.33 0 0 1 .15-.38c1.14-.69 3.68-2.58 5.83-3.87l-2.33-1.55s-1.32-.92-3.02-.95c-.72-.01-1.5.13-2.3.57a859.91 859.91 0 0 0-15.19 8.8.33.33 0 0 0-.15.38c.04.15.17.25.31.25Z" fill="#A62322"/><path d="M35.87 35.5a1 1 0 1 1-1.74-1 1 1 0 0 1 1.74 1ZM33.87 36.5a1 1 0 1 1-1.74-1 1 1 0 0 1 1.74 1Z" fill="#A62322"/></svg>