<!-- by TradingView --><svg width="56" height="56" viewBox="0 0 56 56" xmlns="http://www.w3.org/2000/svg"><path fill="#933" d="M0 0h56v56H0z"/><path d="M28 12a16 16 0 1 1 0 32 16 16 0 0 1 0-32Z" fill="url(#a0ncpf10r)"/><path d="M28 13a15 15 0 1 1 0 30 15 15 0 0 1 0-30Z" fill="url(#b0ncpf10r)"/><path d="M28 16a12 12 0 1 1 0 24 12 12 0 0 1 0-24Z" fill="#D34022"/><path d="m19 28 3-2.64V22h3.36L28 19l2.64 3H34v3.36L37 28l-3 2.64V34h-3.36L28 37l-2.64-3H22v-3.36L19 28Z" fill="#414D88"/><path d="M25 26h4v4h-4v-4Z" fill="#F0F3FA"/><path d="M27.3 27.05v.75h.7v.11c0 .6-.45 1.09-1 1.09s-1-.49-1-1.09v-.11h.66v-.73c.2-.09.43-.1.64-.02Z" fill="#CE3D20"/><path d="M31.6 26.61v-3.2h-.9l-.38.83S29.5 23 27.55 23A4.88 4.88 0 0 0 23 27.85c0 2.98 2.17 5.15 4.78 5.15 2.6 0 2.87-1.49 2.87-1.49l.28 1.49H32v-4h1v-1h-4v1h1.48s.14 2.76-2.28 2.76c-2.43 0-3.45-1.78-3.45-3.54s.9-4.22 2.91-4.22c2 0 2.9 1.8 3 2.61h.94Z" fill="#F0F3FA"/><path d="M28 14a14 14 0 0 1 13.68 17h-1.03a13 13 0 1 0-25.3 0h-1.03A14 14 0 0 1 28 14ZM14.58 32a14 14 0 0 0 26.84 0h-1.05a13 13 0 0 1-24.74 0h-1.05Z" fill="url(#c0ncpf10r)"/><defs><linearGradient id="a0ncpf10r" x1="16.5" y1="16.5" x2="38" y2="40.5" gradientUnits="userSpaceOnUse"><stop stop-color="#D3C78E"/><stop offset="1" stop-color="#7D6014"/></linearGradient><linearGradient id="b0ncpf10r" x1="17" y1="16.59" x2="32.5" y2="41.5" gradientUnits="userSpaceOnUse"><stop stop-color="#BEC4D4"/><stop offset=".5" stop-color="#3E477C"/><stop offset="1" stop-color="#212743"/></linearGradient><linearGradient id="c0ncpf10r" x1="19" y1="16" x2="32" y2="42" gradientUnits="userSpaceOnUse"><stop stop-color="#D4D6DD"/><stop offset="1" stop-color="#363636"/></linearGradient></defs></svg>