<!-- by TradingView --><svg width="56" height="56" viewBox="0 0 56 56" xmlns="http://www.w3.org/2000/svg"><path fill="#181B1E" d="M0 0h56v56H0z"/><path d="M15 21h5.71L26 33 15 21Z" fill="url(#awfkgaraw)"/><path d="m20 14-.7 5H15l5-5Z" fill="url(#bwfkgaraw)"/><path d="m27 11-5.4 2.22L21 18l6-7Z" fill="url(#cwfkgaraw)"/><path d="M41 21h-5.71L30 33l11-12Z" fill="url(#dwfkgaraw)"/><path d="m36 14 .7 5H41l-5-5Z" fill="url(#ewfkgaraw)"/><path d="m29 11 5.4 2.22L35 18l-6-7Z" fill="url(#fwfkgaraw)"/><path fill-rule="evenodd" d="M19 42h-1.78a7.4 7.4 0 0 1-1.44-1.55c-.21-.27-.43-.53-.65-.77-.22-.24-.37-.34-.46-.4h-.01a.75.75 0 0 0-.4-.08H14v1.26c0 .46.01.77.04.91.02.15.09.25.2.32.1.07.3.1.6.1h.32V42H12v-.2h.21c.29 0 .43-.03.54-.1a.44.44 0 0 0 .2-.3c.04-.13.05-.45.05-.94v-2.9c0-.47-.02-.78-.04-.91-.03-.14-.1-.24-.2-.29-.1-.05-.31-.16-.65-.16H12V36c.55.02 1.1.02 1.66 0h.83c.63 0 1.15.05 1.54.16.4.1.72.27.96.51s.36.52.36.86c0 .38-.16.71-.47.99-.32.27-.79.44-1.4.5.27.13.71.56 1.33 1.3.5.6.9 1 1.18 1.18.28.19.62.29 1.01.3v.2Zm-5-3h.76c.53-.02 1.21-.28 1.43-.8.06-.16.1-.36.1-.6 0-.42-.12-.75-.35-1-.23-.25-.75-.38-1.53-.38-.12 0-.25 0-.41.02V39Zm9.8 1h.2v2h-4.89v-.2h.13c.29 0 .48-.04.56-.12a.55.55 0 0 0 .17-.3c.02-.13.03-.44.03-.94V37.5c0-.46-.01-.76-.04-.9-.02-.15-.08-.25-.17-.31-.08-.06-.27-.09-.55-.09V36h4.62l.14 1.5h-.2c-.1-.42-.21-.72-.35-.9a.85.85 0 0 0-.53-.34c-.14-.04-.2-.06-.57-.06H21v2.59h1.18c.22 0 .48-.14.56-.37l.01-.03c.03-.08.05-.12.05-.39h.2v2h-.2c0-.33-.03-.68-.09-.8-.1-.2-.3-.2-.5-.2H21v1.35c0 .72.05 1.13.13 1.26.1.12.34.19.73.19h.17c1.04 0 1.53-.84 1.76-1.8Zm7.25-4L29 40.96 26.82 36H25v.2h.16c.3 0 .5.03.59.08.09.06.15.15.18.3.02.13.04.44.04.92v2.6c0 .5-.02.84-.05 1.02-.08.37-.41.65-.92.68v.2h2v-.2a.86.86 0 0 1-.78-.68c-.03-.18-.05-.5-.05-.99v-3.51L28.55 42h.2L31 36.62v3.82c0 .5-.01.82-.04.96a.45.45 0 0 1-.19.3c-.1.06-.27.1-.53.1H30v.2h5.02v-.2a.95.95 0 0 1-.54-.14.46.46 0 0 1-.2-.4c0-.17.13-.52.39-1.07l.1-.19h2.73l.44.91c.15.32.23.51.23.57 0 .13-.06.21-.17.26-.12.04-.34.06-.67.06v.2H40v-.2.03h.22c.05-.24.12-.43.22-.56.44.49 1 .73 1.66.73a2 2 0 0 0 1.38-.46c.35-.31.52-.72.52-1.21a1.55 1.55 0 0 0-.78-1.39c-.24-.14-.62-.31-1.14-.54a4.35 4.35 0 0 1-1.13-.63.87.87 0 0 1-.31-.68.9.9 0 0 1 .25-.6c.17-.2.43-.29.79-.29.38 0 .71.13 1 .38a2 2 0 0 1 .6 1.04h.2V36h-.2c-.02.18-.1.46-.23.61a1.87 1.87 0 0 0-.7-.5 2.15 2.15 0 0 0-.72-.11c-.46 0-.84.14-1.14.41-.3.28-.45.62-.45 1.03 0 .27.07.53.21.77.14.24.33.43.58.58.25.15.61.32 1.1.52.54.22.91.43 1.12.62.2.2.3.44.3.73 0 .3-.11.55-.34.78-.24.24-.57.35-.99.35-.95 0-1.55-.58-1.8-1.79H40v1.8a1.12 1.12 0 0 1-.53-.15.84.84 0 0 1-.29-.33l-.3-.62L36.6 36h-.2l-1.97 4.1-.24.51c-.2.47-.38.77-.53.91-.15.15-.37.24-.67.28h-.26c-.27 0-.46-.04-.55-.11a.48.48 0 0 1-.18-.32c-.02-.1-.01-.29-.01-.56v-3.57c0-.35 0-.58.02-.69.03-.13.1-.22.18-.27.1-.05.29-.08.58-.08H33V36h-1.95Zm6.36 3.8-1.28-2.7-1.26 2.7h2.54Z" fill="url(#gwfkgaraw)"/><defs><linearGradient id="awfkgaraw" x1="21" y1="22" x2="21" y2="31" gradientUnits="userSpaceOnUse"><stop stop-color="#FEFAF6"/><stop offset=".17" stop-color="#C08425"/><stop offset=".55" stop-color="#DBA545"/><stop offset="1" stop-color="#705318"/></linearGradient><linearGradient id="bwfkgaraw" x1="16.5" y1="17" x2="19" y2="19.5" gradientUnits="userSpaceOnUse"><stop offset=".28" stop-color="#FCFCF3"/><stop offset=".5" stop-color="#916216"/></linearGradient><linearGradient id="cwfkgaraw" x1="21.5" y1="13.5" x2="23.5" y2="15.5" gradientUnits="userSpaceOnUse"><stop offset=".23" stop-color="#F7E8CD"/><stop offset=".59" stop-color="#92651B"/></linearGradient><linearGradient id="dwfkgaraw" x1="35.5" y1="21" x2="38.5" y2="24" gradientUnits="userSpaceOnUse"><stop offset=".24" stop-color="#F6E5C4"/><stop offset=".78" stop-color="#634918"/></linearGradient><linearGradient id="ewfkgaraw" x1="38.5" y1="16" x2="38" y2="19" gradientUnits="userSpaceOnUse"><stop offset=".21" stop-color="#FDF8EA"/><stop offset=".69" stop-color="#A77D3F"/></linearGradient><linearGradient id="fwfkgaraw" x1="32" y1="11" x2="31" y2="16" gradientUnits="userSpaceOnUse"><stop offset=".32" stop-color="#F8E6D2"/><stop offset=".54" stop-color="#84530E"/></linearGradient><linearGradient id="gwfkgaraw" x1="13" y1="32" x2="42.5" y2="44.5" gradientUnits="userSpaceOnUse"><stop stop-color="#E7A93B"/><stop offset=".43" stop-color="#BF7409"/><stop offset=".57" stop-color="#FCC660"/><stop offset=".72" stop-color="#986007"/></linearGradient></defs></svg>