<!-- by TradingView --><svg width="56" height="56" viewBox="0 0 56 56" xmlns="http://www.w3.org/2000/svg"><path fill="#F0F3FA" d="M0 0h56v56H0z"/><path d="M25 32h-5.82l-3.2-4.9-3.16 4.9H7l9-15 9 15Z" fill="#AA1F23"/><path d="M5 34h46v1H5v-1ZM26.37 26s.63.58.63.99V31s0 1-1 1h4s-1-.22-1-1v-2s.31-1.27 1.2-1.8c0 0 .67.48 1.04.48.38 0 .76-.4.76-.94 0-.53-.38-.74-.8-.74-1 0-2.2 1.5-2.2 1.5V26h-2.63Z" fill="#181B1E"/><path fill-rule="evenodd" d="M36.56 32c.76 0 1.44-1 1.44-1-.45.22-.74.1-.95.02L37 31v-3.55S37 26 35 26s-2.75 1.13-2.75 1.61c0 .58.38.89.74.89s1.01-.2 1.01-.73c0-.52-.56-.76-.56-.76s-.04-.53.86-.53c.63 0 .7.65.7.65v1.2c-2.62.97-3 1.58-3 2.58 0 .53.45 1.09 1.22 1.09s1.78-.89 1.78-.89c0 .49.79.89 1.56.89ZM35 30.6v-1.86c-1.3.6-1.5 1.26-1.5 1.6.05.37.28.66.55.66.63 0 .95-.4.95-.4ZM47.56 32c.76 0 1.44-1 1.44-1-.45.22-.74.1-.95.02L48 31v-3.55S48 26 46 26s-2.75 1.13-2.75 1.61c0 .58.38.89.74.89s1.01-.2 1.01-.73c0-.52-.56-.76-.56-.76s-.04-.53.86-.53c.63 0 .7.65.7.65v1.2c-2.62.97-3 1.58-3 2.58 0 .53.45 1.09 1.22 1.09s1.78-.89 1.78-.89c0 .49.79.89 1.56.89ZM46 30.6v-1.86c-1.3.6-1.5 1.26-1.5 1.6.05.37.28.66.55.66.63 0 .95-.4.95-.4Z" fill="#181B1E"/><path d="M39 27v4s-.04 1-1 1h4s-1 0-1-1v-4h1v-1h-1v-2s0-.61.35-.61c.53 0 .22.65.3.9.1.27.22.4.57.4s.78-.3.78-.7c0-.38-.74-.99-1.7-.99-1.5 0-2.3.9-2.3 1.82V26l-1-.01V27h1Z" fill="#181B1E"/></svg>