<!-- by TradingView --><svg width="56" height="56" viewBox="0 0 56 56" xmlns="http://www.w3.org/2000/svg"><path fill="#F0F3FA" d="M0 0h56v56H0z"/><path d="M28.02 7 48 40H8L28.02 7Z" fill="#4E5F57"/><path d="M24 16a13 13 0 1 1 0 26 13 13 0 0 1 0-26Z" fill="url(#anetter30)"/><path fill-rule="evenodd" d="M15 19.65V26h8v-9.96c.33-.03.66-.04 1-.04v10h8v-7.25c.35.27.68.56 1 .87V26h3.65c.08.33.15.66.2 1H33v8h2.54a13 13 0 0 1-.58 1H33v2.38c-.32.3-.65.6-1 .87V36h-8v6c-.34 0-.67-.01-1-.04V36h-8v2.38c-.35-.34-.69-.7-1-1.07V36h-.96a13 13 0 0 1-.58-1H14v-8h-2.84l.2-1H14v-5.27c.31-.38.65-.74 1-1.08ZM23 35h-8v-8h8v8Zm9 0h-8v-8h8v8Z" fill="#EDA920"/><path d="m39.63 13 .37 5-1.83-1.7-1.24-.7-1.93-.48L39.63 13Z" fill="#EDA920"/><path d="m39 16-5 8-5-3-6 10-5.46-3.3-5 8.3L11 34.97 17 25l5.46 3.3 5.95-9.9 4.96 2.95 4.09-6.38L39 16Z" fill="#EDA920"/><defs><linearGradient id="anetter30" x1="24" y1="18" x2="24" y2="42" gradientUnits="userSpaceOnUse"><stop offset=".09" stop-color="#FFFCF5"/><stop offset=".83" stop-color="#F9CC40"/></linearGradient></defs></svg>