<!-- by TradingView --><svg width="56" height="56" viewBox="0 0 56 56" xmlns="http://www.w3.org/2000/svg"><path fill="#F0F3FA" d="M0 0h56v56H0z"/><path d="M16 11h24v35H16V11Z" fill="#0599A7"/><path d="M17 12h22v22H17V12Z" fill="#90CFD6"/><path d="M17 35h22v10H17V35Z" fill="#F0F3FA"/><path d="M23.13 30.94s-.63-3.7.86-7.52c1.5-3.83 1.57 1.3 1.57 1.3l3 6.34.44.9c.04 0-2.58.36-5.87-1.02Z" fill="#004151"/><path d="M30.79 32h-.08c-.85.04-7.35.21-6.34-7.97l-.97-.67s-.68.49-1.4.53c0 0-.04-1.46.17-2.35 0 0 .34.44 1.14.17 0 0 2.03-2.71 4.82-2.71 2.79 0 4.22 2.1 4.22 2.1s.47-.05.47-.68c0-.62 1.14-.8 1.18.63 0 0-.17-.31-.5-.31-.3 0-.13 1.06-1.02 1.2l-.09 2.8.98 1.56-.72.62s-.04.35.25.35c.3 0-.08.4-.08.4s.25.45-.17.45c0 0-.17.27.04.62.21.36-.38.9-1.18.76-.85-.13-.89 0-.89 0s-.63 1.42.17 2.5ZM27.4 14s-.4.44-.4 1c0 1.14.5 2 2 2 .3 0 .64-.19 1-.33 0 0-.5 1.33-2 1.33-1.4 0-2-1.25-2-2.2 0-1.22.97-1.76 1.4-1.8Z" fill="#039CA8"/><path d="M32.78 22s-1.8-.08-3.78.94V32l.52-.04v-7.71l3.48-.78-.22-1.47Z" fill="#004151"/><path d="M23 38.5h1s0-2.5-1.9-2.5c-2.01 0-2.09 2.74-2.09 3.2 0 .44-.3 3.8 1.99 3.8 2 0 2-2.5 2-2.5h-1s-.04 1.5-1 1.5c-.88 0-1-1.78-1-2.77 0-.98.26-2.23 1-2.23 1 0 1 1.5 1 1.5ZM26 36h1v7h-1v-7ZM29 36h1v7h-1v-7Z" fill="#0599A7"/><path d="M26 40v-1h4v1h-4ZM35 43h1v-3.5h-2v1h1s-.1 1.52-1 1.52c-.88 0-1-1.54-1-2.52s.27-2.5 1-2.5c.7 0 1 1 1 1h1s0-2-2-2-2 3.05-2 3.5c0 .45 0 3.5 2 3.5.49 0 .7-.33 1-.74V43Z" fill="#0599A7"/></svg>