<!-- by TradingView --><svg width="56" height="56" viewBox="0 0 56 56" xmlns="http://www.w3.org/2000/svg"><path fill="#F0F3FA" d="M0 0h56v56H0z"/><path d="M18 36.45v-2.9c0-.3.26-.55.58-.55h18.84c.32 0 .58.24.58.55v2.9c0 .3-.26.55-.58.55H18.58c-.32 0-.58-.24-.58-.55Z" fill="#8093A2" fill-opacity=".5"/><path fill-rule="evenodd" d="M28 16v-2.72h-.88V13h1.98v.28h-.74V16h.25l1.47 2H31v1.63h1.2l-1.2.4v.47h.5v.5H31v.71h.5v.5H31V23h.5v.5H31v.75h.5v.5H31v.75h.5v.5H31v.75h.5v.5H31V28h.5v.5H31v.75h.5v.5H31v.75h.5v.5H31v.75h.5v.5H31V33h-6v-.75h-.5v-.5h.5V31h-.5v-.5h.5v-.75h-.5v-.5h.5v-.75h-.5V28h.5v-.75h-.5v-.5h.5V26h-.5v-.5h.5v-.75h-.5v-.5h.5v-.75h-.5V23h.5v-.79h-.5v-.5h.5V21h-.5v-.5h.5v-.46l-.75-.41H25V18h1.18c.53-.5 1.58-2 1.58-2H28ZM10.21 29.46l1.26.72 1.25-.72-1.25-1.26-1.26 1.26Zm5.63-.42-4.18 1.32v.94l4.18-2.26ZM7 30.18l4.19 1.32v.94L7 30.18Zm0 1.47 4.19 1.32v.94L7 31.65Zm4.19 2.67L7 33l4 2.16v1.77c0 .6.28 1.07.9 1.07h32.34c.61 0 .76-.48.76-1.07v-1.77L49 33l-4.19 1.32v.12h-.48v-.12L40.15 33 44 35.08v1.34c0 .6-.72 1.07-1.34 1.07h-29.4c-.62 0-1.26-.48-1.26-1.07v-1.34L15.85 33l-4.18 1.32v.12h-.48v-.12Zm.48-2.82 4.18-1.32-4.18 2.26v-.94Zm4.18.15-4.18 1.32v.94l4.18-2.26Zm-4.66-1.3L7 29.05l4.19 2.26v-.94Zm33.44-.17-1.26-.72 1.26-1.26 1.25 1.26-1.25.72Zm.18.18L49 29.04l-4.19 2.26v-.94Zm-.48 1.14-4.18-1.32 4.18 2.26v-.94Zm0 1.47-4.18-1.32 4.18 2.26v-.94Zm4.67-2.8-4.19 1.33v.94L49 30.18Zm-4.19 2.8L49 31.65l-4.19 2.26v-.94Zm-4.66-3.93 4.18 1.32v.94l-4.18-2.26Zm-24.57 4.95-1.32.57 1.32.42 1.14-.42-1.14-.57Zm0 1.63-1.32.57 1.32.41 1.14-.41-1.14-.57Zm26.1-1.06-1.32-.57-1.13.57 1.13.42 1.33-.42Zm0 1.63-1.32-.57-1.13.57 1.13.41 1.33-.41ZM28 18v-1.5h.6L29.7 18H28Zm2.6 1v1h-2.64l-.5-1h3.15Z" fill="#1786CD"/></svg>