<!-- by TradingView --><svg width="56" height="56" viewBox="0 0 56 56" xmlns="http://www.w3.org/2000/svg"><path fill="#F0F3FA" d="M0 0h56v56H0z"/><path d="M48 17v15.94s-.62-.14-2.35-.14c-3.6 0-16.42 8.2-24.21 8.2-7.8 0-12.68-2.55-13.44-6.6V20s.9 5 10.04 5c11.47.03 21.65-7.86 29.96-8Z" fill="url(#aezou010y)"/><path d="M48 31v1h-2.35c-3.6 0-17.36 8-25 8-7.6 0-11.89-2.49-12.65-6.54v-.17S10.32 39 19.46 39C30.9 39.03 39 31 48 31Z" fill="url(#bezou010y)"/><path d="M48 17.53v1.24s-.62-.13-2.35-.13c-3.6 0-17.18 7.9-24.7 7.9-7.37 0-12.19-.87-12.95-4.93v-.17s1.7 4.26 11.46 4.26c9.87-.03 20.23-8.03 28.54-8.17Z" fill="url(#cezou010y)"/><path d="M22 15a6 6 0 0 1 5.57 3.77l-6.07 4.89-5.32-3.99A5.97 5.97 0 0 1 22 15Z" fill="#00ADEF"/><path d="m16.18 19.67 5.32 3.99 6.07-4.89A6.01 6.01 0 1 1 16 21c.04-.47.07-.9.18-1.33Z" fill="#14B14C"/><path d="m18.2 20.25 3.45 2.6 4.05-3.19c.19.44.3.95.3 1.46A3.94 3.94 0 0 1 22.02 25 3.97 3.97 0 0 1 18 21.12c0-.39.12-.58.2-.87Z" fill="#CAD92C"/><path d="M21.98 17c1.65 0 3.11 1.1 3.68 2.62L21.6 23l-3.52-2.79A4 4 0 0 1 21.98 17Z" fill="#A1DDF9"/><path d="M21.95 18.37c1.28 0 2.4.84 2.85 2.02L21.67 23l-2.72-2.15a3.09 3.09 0 0 1 3-2.48Z" fill="#F0F3FA"/><path d="M13.3 19.54s4.33-.9 7.76 6.5c0 0 2.8-7.58 12.53-8.27 0 0-6.3-1.9-12.5 4.54.04-.04-3.4-4.6-7.8-2.77Z" fill="url(#dezou010y)"/><path fill-rule="evenodd" d="M12 34.33V28s2.07.17 3.37.17c1.3 0 3.13 1.37 3.13 3.51 0 2.15-1.57 3.32-2.9 3.32-1.35 0-3.6-.67-3.6-.67Zm1.5-.4v-4.9s3.5-.46 3.5 2.57c0 3.04-3.5 2.33-3.5 2.33ZM25 32.04c0-1.61-.62-3.04-2.52-3.04s-3.4 1.01-3.48 3.04c-.07 2.02 1.4 2.96 2.93 2.96 1.53 0 3.07-1.35 3.07-2.96ZM23.5 32c0-1.1-.5-2-1.5-2s-1.5.9-1.5 2 .5 2 1.5 2 1.5-.9 1.5-2Z" fill="#F0F3FA"/><path d="M26 34v-4.87s1.64-2.05 3.82-1.46c0 0 1.3-1.67 2.7-1.67 1.01 0 .98.63.98.63v4.77l-1.03.6-.47-.45v-3.88s0-.17-.44-.17-1.06.65-1.06.65v4.35l-.68.5-.82-.12v-3.83s.15-.63-.29-.63c-.43 0-1.21.97-1.21.97v4.09L26 34ZM36 26.2v3.93s0 .87.7.87 2.3-1.55 2.3-1.55l-.33-.37s-.5.41-.84.41c-.33 0-.33-.53-.33-.53V25.7L39 25v-1l-1.5.66V23L36 24.47v.8l-1 .43v1l1-.5Z" fill="#F0F3FA"/><path d="M44 21s-.48.74-.77 1.38c-.28.67-2.04 6.73-2.04 6.73S40.11 32 38.61 32c-.45 0-.61-.17-.61-.37.03-.47.9-1.24 1.12-1.24.32 0 .92.33 1.53-2.2h-.35l-2-3.88 1.46-.64 1.34 2.68s.76-4.61 2.9-5.35Z" fill="#F0F3FA"/><defs><linearGradient id="aezou010y" x1="7.38" y1="25.25" x2="48.44" y2="25.87" gradientUnits="userSpaceOnUse"><stop offset=".1" stop-color="#0B132E"/><stop offset=".19" stop-color="#14A2DD"/><stop offset=".25" stop-color="#16284F"/><stop offset=".32" stop-color="#132143"/><stop offset=".4" stop-color="#1BA6E0"/><stop offset=".48" stop-color="#17284F"/><stop offset="1" stop-color="#0B132E"/></linearGradient><linearGradient id="bezou010y" x1="8" y1="35.39" x2="47.99" y2="34.57" gradientUnits="userSpaceOnUse"><stop offset=".07" stop-color="#AB6020"/><stop offset=".17" stop-color="#FED494"/><stop offset=".22" stop-color="#DD7E26"/><stop offset=".3" stop-color="#CF7727"/><stop offset=".39" stop-color="#FFD28B"/><stop offset=".5" stop-color="#D27825"/><stop offset="1" stop-color="#965521"/></linearGradient><linearGradient id="cezou010y" x1="8" y1="22.47" x2="48.76" y2="20.6" gradientUnits="userSpaceOnUse"><stop offset=".07" stop-color="#AB6020"/><stop offset=".17" stop-color="#FED494"/><stop offset=".22" stop-color="#DD7E26"/><stop offset=".41" stop-color="#FFD28B"/><stop offset=".52" stop-color="#D27825"/><stop offset="1" stop-color="#965521"/></linearGradient><linearGradient id="dezou010y" x1="12.75" y1="19.36" x2="31.55" y2="19.18" gradientUnits="userSpaceOnUse"><stop offset=".05" stop-color="#F3171A"/><stop offset=".44" stop-color="#89161A"/><stop offset=".45" stop-color="#F89448"/><stop offset=".95" stop-color="#C32726"/></linearGradient></defs></svg>