<!-- by TradingView --><svg width="56" height="56" viewBox="0 0 56 56" fill="none" xmlns="http://www.w3.org/2000/svg"><path fill="#F0F3FA" d="M0 0h56v56H0z"/><path fill-rule="evenodd" d="M4 27v-7h9.69c2.87 0 4.31 1.13 4.31 2.85 0 3.57-2.3 4.15-5.47 4.15H4Zm2-1v-5h6.92c2.05 0 3.08.5 3.08 2.26C16 26 14.83 26 12.36 26H6Z" fill="#181B1E"/><path d="M19 20h2v7h-2v-7Z" fill="#BD2130"/><path d="M37 22s-.25-1.35-1.2-1.55c-.97-.2-2.13-.45-6.1-.45-3.96 0-6.7.35-6.7 2.1s.05 3.27.67 3.9c.61.63 2.26 1 6.45 1 4.2 0 5.77-.27 6.34-.77.56-.5.54-1.23.54-1.23h-1.87s.12 1-1.65 1h-5.45c-1.26 0-2.56 0-2.86-1.2-.1-.4-.17-.93-.17-1.45 0-1.01.28-2.15 1.18-2.24.56-.05 2-.1 3.52-.11 2.16-.01 4.55.08 4.8.41.42.58.5.59.5.59h2ZM52 22s-.25-1.35-1.2-1.55c-.97-.2-2.13-.45-6.1-.45-3.96 0-6.7.35-6.7 2.1s.05 3.27.67 3.9c.61.63 2.26 1 6.45 1 4.2 0 5.77-.27 6.34-.77.56-.5.54-1.23.54-1.23h-1.87s.12 1-1.65 1h-5.45c-1.26 0-2.56 0-2.86-1.2-.1-.4-.17-.93-.17-1.45 0-1.01.28-2.15 1.18-2.24.56-.05 2-.1 3.52-.11 2.16-.01 4.55.08 4.8.41.42.58.5.59.5.59h2Z" fill="#181B1E"/><path d="M40 23h7v1h-7v-1ZM5.04 29c-.74 0-1.04.36-1.04.86 0 .42.2.87 1.1.87h.79c.4 0 .52.18.52.37 0 .22-.14.38-.46.38H4V32h1.93C6.7 32 7 31.63 7 31.12c0-.43-.21-.88-1.13-.88h-.79c-.39 0-.5-.18-.5-.36 0-.2.14-.36.44-.36H7V29H5.04ZM8.68 30c-.44 0-.68.3-.68.92V33h.37v-1h.83c.49 0 .8-.2.8-.93 0-.72-.31-1.07-.8-1.07h-.52Zm-.3.94c0-.37.1-.53.41-.53h.37c.32 0 .46.2.46.66s-.14.51-.46.51h-.79v-.64ZM11.8 30c-.5 0-.8.33-.8 1 0 .67.3 1 .8 1h.4c.49 0 .8-.33.8-1 0-.67-.31-1-.8-1h-.4Zm.36.39c.32 0 .46.18.46.61s-.14.61-.46.61h-.32c-.32 0-.46-.18-.46-.61s.14-.61.46-.61h.32ZM14.4 30c-.3 0-.4.18-.4.58V32h.35v-1.36c0-.17.06-.25.2-.25h.45V30h-.6ZM51.4 30c-.3 0-.4.18-.4.58V32h.35v-1.36c0-.17.06-.25.2-.25H52V30h-.6ZM15.78 30v.31H16v1.13c0 .43.14.56.48.56h.3v-.3h-.23c-.16 0-.22-.06-.22-.24v-1.15h.45V30h-.45v-.38H16V30h-.22ZM19.23 29c-.48 0-.74.3-.74.68 0 .24.1.41.25.56l.15.17-.12.05c-.61.26-.77.45-.77.8 0 .51.35.74.77.74h.5c.3 0 .5-.04.8-.35l.34.35H21l-.65-.67.64-.77h-.54l-.39.47-.51-.55.27-.12c.4-.18.55-.38.55-.68 0-.37-.23-.68-.73-.68h-.4Zm.04 2.6h-.4c-.24 0-.38-.17-.38-.4 0-.2.1-.29.5-.47l.15-.07.65.69c-.19.19-.32.24-.52.24Zm-.29-1.88c0-.18.1-.32.34-.32h.26c.24 0 .33.15.33.32 0 .2-.12.3-.34.39l-.27.11-.14-.15c-.12-.11-.18-.2-.18-.35Z" fill="#181B1E"/><path d="M23.08 29c-.7 0-1.08.5-1.08 1.5s.38 1.5 1.08 1.5H24v-.52h-.92c-.47 0-.66-.3-.66-.98 0-.69.2-.98.66-.98H24V29h-.92Z" fill="url(#apvr3y1sk)"/><path d="M25 30v.39h1.3c.22 0 .31.12.31.27v.15h-.94c-.49 0-.67.22-.67.58 0 .38.2.61.66.61h.93c.34 0 .41-.11.41-.4v-.94c0-.38-.2-.66-.69-.66H25Zm1.5 1.61h-.83c-.2 0-.28-.1-.28-.24 0-.15.08-.24.29-.24h.93v.38c0 .07-.03.1-.1.1ZM34 30v.39h1.3c.22 0 .31.12.31.27v.15h-.94c-.49 0-.67.22-.67.58 0 .38.2.61.66.61h.93c.33 0 .41-.11.41-.4v-.94c0-.38-.2-.66-.69-.66H34Zm1.5 1.61h-.83c-.2 0-.28-.1-.28-.24 0-.15.08-.24.29-.24h.93v.38c0 .07-.03.1-.1.1ZM48 30v.39h1.3c.22 0 .31.12.31.27v.15h-.94c-.49 0-.67.22-.67.58 0 .38.2.61.66.61h.93c.33 0 .41-.11.41-.4v-.94c0-.38-.2-.66-.69-.66H48Zm1.5 1.61h-.83c-.2 0-.28-.1-.28-.24 0-.15.08-.24.29-.24h.93v.38c0 .07-.03.1-.1.1Z" fill="#181B1E"/><path d="M28.7 30c-.5 0-.7.22-.7.58 0 .31.15.59.75.59h.51c.22 0 .31.06.31.22s-.08.22-.28.22h-1.27V32h1.27c.5 0 .71-.25.71-.6 0-.32-.15-.57-.75-.57h-.51c-.25 0-.31-.08-.31-.22 0-.15.08-.22.28-.22h1.2V30h-1.2Z" fill="url(#bpvr3y1sk)"/><path d="M31 30v1.21c0 .46.28.79.82.79h.36c.54 0 .82-.33.82-.79V30h-.37v1.2c0 .23-.17.41-.47.41h-.3c-.31 0-.48-.18-.48-.41V30H31Z" fill="url(#cpvr3y1sk)"/><path d="M37 29v3h.46v-3H37Z" fill="url(#dpvr3y1sk)"/><path d="m39 29 1.1 2.46c.12.33.33.54.75.54.47 0 .7-.25.7-.64v-1.7c0-.1.07-.17.17-.17.08 0 .15.05.17.12l.7 1.82c.11.33.28.57.7.57.47 0 .71-.25.71-.64V29h-.56v2.34c0 .1-.07.17-.16.17a.18.18 0 0 1-.17-.12l-.66-1.85c-.12-.33-.33-.54-.75-.54-.46 0-.7.25-.7.63v1.71c0 .1-.07.17-.16.17s-.15-.05-.18-.12L39.6 29H39Z" fill="url(#epvr3y1sk)"/><path d="M45.69 30c-.5 0-.69.28-.69.66v.68c0 .38.2.66.69.66H47v-.39h-1.31c-.22 0-.3-.12-.3-.28v-.14h.94c.49 0 .67-.2.67-.58 0-.38-.2-.61-.67-.61h-.64Zm-.3.66c0-.15.08-.27.3-.27h.64c.2 0 .28.1.28.25 0 .14-.08.23-.3.23h-.92v-.2Z" fill="url(#fpvr3y1sk)"/><path d="M4 34h12v2H4v-2Z" fill="#34A9A1"/><path d="M16 34h12v2H16v-2Z" fill="#E38737"/><path d="M28 34h12v2H28v-2Z" fill="#D34131"/><path d="M40 34h12v2H40v-2Z" fill="#BD2130"/><defs><linearGradient id="apvr3y1sk" x1="23" y1="29" x2="23" y2="32"><stop offset="1" stop-color="#181B1E"/></linearGradient><linearGradient id="bpvr3y1sk" x1="29" y1="30" x2="29" y2="32" gradientUnits="userSpaceOnUse"><stop stop-color="#181B1E"/><stop offset="1" stop-color="#181B1E"/></linearGradient><linearGradient id="cpvr3y1sk" x1="32" y1="30" x2="32" y2="32" gradientUnits="userSpaceOnUse"><stop stop-color="#181B1E"/><stop offset="1" stop-color="#181B1E"/></linearGradient><linearGradient id="dpvr3y1sk" x1="37.23" y1="29" x2="37.23" y2="32" gradientUnits="userSpaceOnUse"><stop stop-color="#181B1E"/><stop offset="1" stop-color="#181B1E"/></linearGradient><linearGradient id="epvr3y1sk" x1="41.5" y1="29" x2="41.5" y2="32" gradientUnits="userSpaceOnUse"><stop stop-color="#181B1E"/><stop offset="1" stop-color="#181B1E"/></linearGradient><linearGradient id="fpvr3y1sk" x1="46" y1="30" x2="46" y2="32" gradientUnits="userSpaceOnUse"><stop stop-color="#181B1E"/><stop offset="1" stop-color="#181B1E"/></linearGradient></defs></svg>