<!-- by TradingView --><svg width="56" height="56" viewBox="0 0 56 56" xmlns="http://www.w3.org/2000/svg"><path fill="#F0F3FA" d="M0 0h56v56H0z"/><path d="M4.07 30.59c1.8-2.84 2.8-5.57 2.8-5.57-.49-.35-.48-.76-.47-1.37v-.27C6.4 22.6 7.8 22 9.72 22S13 24 13 25.73C13 30.39 7.9 33 7.37 33c-.53 0-.95-1-.95-1s-.33 1-.85 1c-.47 0-.84-.6-1.2-1.16l-.14-.24c-.4-.61-.16-1.01-.16-1.01ZM11 25.52c0-.72-1.7-.48-1.7-.48s-.3.41.13.5c.37.1.36.34.35.63v.13C9.78 27.57 8 30 8 30c1.93-1.32 3-3.76 3-4.48ZM20 24.32S19.98 22 18.7 22c-1.3 0-3.34-.03-3.34.97s.37.84.23 1.33c-.13.48-1.08 2-1.08 2s-.46-.03-.51.38v1.22s-1 1.53-1 2.28c0 .74.8 2.58 1.47 2.78.66.2 3.6-.33 3.6-1.81 0-1.49-1.03-.87-1.47-.72-.43.15-1.14.15-1.05-.3.09-.47.48-1.59.75-1.7.28-.1 1.66-.04 1.66-.04s.92-.1.92-1.02-.23-1.03-.7-1c-.45.02-1.12-.05-1.12-.05s.58-1.92 1.17-1.9c.6.03.8.44 1.24.39.44-.05.53-.49.53-.49ZM25 23.3S23.96 22 23.06 22c-.9 0-4.06 7.32-4.06 8.36C19 31.4 20.04 33 21.02 33S25 32.67 25 31.07c0-.74-.27-1.05-.63-1.07-.4-.03-1.07.3-1.46.36-.56.1-.88.15-.91-.1a.85.85 0 0 1 .06-.35c.22-.64 2.94-6.62 2.94-6.62ZM27.58 24.87s-.66-.79-.58-1.98c.08-1.2 4.63-.84 5.02-.84.4 0 .98.61.98 1.22s-.37 1.42-.71 1.4c-.35-.03-1.29 0-1.29 0v.74s-1.96 4.83-2.38 6.81c-.12.55-.37.77-.66.78-.77.03-1.86-1.3-1.96-1.67-.13-.5 2.62-6.61 2.62-6.61s-.56.3-.86.28c-.09 0-.15-.04-.18-.13ZM38.4 22.97c.44.3-.17.92-.17.92.37.32.56.47.66.66.13.26.1.6.1 1.53C39 27.72 37.2 33 36.58 33c-.63 0-1.8-1.02-1.85-1.2-.03-.08.18-.45.39-.82.2-.36.4-.73.4-.85 0-.09-.08-.12-.21-.13-.24-.01-.65.09-1.03.18-.28.07-.54.74-.8 1.41-.27.7-.54 1.41-.83 1.41-.58 0-1.64-1.72-1.64-2.14 0-.42.63-1.34.63-1.34l-.15-1.2.81-.37S36 22 36.6 22c.48 0 1.04.41 1.47.74l.33.23ZM37 25.96V25s-1.99 1.86-2 2.65c0 .21.14.35.5.35 1.06 0 1.41-1.16 1.5-2.04Z" fill="#003864"/><path d="M40 30.78h.28c.2.6.61.94 1.16.94.42 0 .71-.24.71-.6 0-1.12-2.15-.9-2.15-2.08 0-.7.73-1.04 1.35-1.04.35 0 .68.15 1.02.15a.34.34 0 0 0 .19-.06h.1l.12 1.02h-.26c-.18-.52-.58-.82-1.06-.82-.38 0-.76.21-.76.48 0 1.11 2.3.93 2.3 2.1 0 .73-.74 1.13-1.4 1.13-.3 0-.67-.06-1.14-.17l-.07.07-.23.01-.16-1.13ZM43 31.5c0-.14.05-.26.15-.36a.5.5 0 0 1 .35-.14c.14 0 .26.05.36.14.1.1.14.21.14.36 0 .13-.05.25-.15.35-.1.1-.2.15-.35.15a.49.49 0 0 1-.35-.15.48.48 0 0 1-.15-.35ZM44 32v-.27c.33 0 .45-.1.54-.36l.94-2.87a2.72 2.72 0 0 0 .09-.36l-.01-.07a.61.61 0 0 0-.02-.07h.82l1.1 3.25c.12.35.25.46.54.47l-.01.28h-1.8v-.28h.1c.32 0 .4-.06.4-.26v-.07a.4.4 0 0 0-.02-.08l-.26-.78h-1.2l-.23.7v.03a.9.9 0 0 0-.05.23c0 .17.14.24.53.24V32H44Zm1.32-1.83h.97l-.49-1.46-.48 1.46ZM48 31.5c0-.14.05-.26.15-.36a.5.5 0 0 1 .35-.14c.14 0 .26.05.36.14.1.1.14.21.14.36 0 .13-.05.25-.15.35-.1.1-.2.15-.35.15a.49.49 0 0 1-.35-.15.48.48 0 0 1-.15-.35ZM49 32v-.27h.05c.24 0 .3-.27.3-.47v-2.52c0-.2-.06-.46-.3-.46H49V28h3v1h-.19c-.02-.23-.02-.45-.08-.52s-.2-.1-.4-.1H50v1.42h.36c.15 0 .26-.04.33-.1.07-.07.1-.19.1-.34v-.04H51v1.31h-.2v-.03c0-.16-.04-.28-.1-.34-.08-.07-.19-.1-.34-.1H50v1.05c0 .17.02.28.05.32.03.05.1.07.2.07h.87c.23 0 .39-.05.48-.14.1-.09.16-.22.19-.46H52v1h-3Z" fill="#F61B29"/></svg>