<!-- by TradingView --><svg width="56" height="56" viewBox="0 0 56 56" xmlns="http://www.w3.org/2000/svg"><path fill="#D1D845" d="M0 0h56v56H0z"/><path d="M13.47 35.11h6.87s2.11.18 2.35 2.23c0 0 4.25 0 5.31 1.67 0 0 3.07-2.58 6.38 0 0 0 1.87-2.23 5.3-2.23 0 0-.04-2.78 3.2-2.78l-.37 1.64-3.84 4.27-4.76 2.51s-4.33 1.54-8.03 1.04c-3.71-.5-7.9-2.54-9.61-4.7-1.7-2.18-2.8-3.65-2.8-3.65Z" fill="#5CAA3C"/><path d="m22.4 37.67-.03-.3a2 2 0 0 0-1.1-1.61c-.24-.14-.49-.33-.67-.37a2.59 2.59 0 0 0-.27-.06h-6.2c.1.14.21.3.35.47.48.63 1.18 1.66 2.03 2.74.81 1.03 2.24 2.06 3.95 2.9 1.7.82 3.64 1.45 5.46 1.7 1.8.23 3.77-.02 5.3-.34a24.24 24.24 0 0 0 2.54-.68h.03l4.69-2.49 3.74-4.15.25-1.13c-1.23.1-1.83.68-2.13 1.21a2.7 2.7 0 0 0-.33 1.2V37.12h-.32a7.12 7.12 0 0 0-5.06 2.1h-.01v.01l-.2.23-.24-.18a4.55 4.55 0 0 0-4.15-.91 5.5 5.5 0 0 0-1.8.88l-.03.02-.27.23-.2-.3a2.45 2.45 0 0 0-1.13-.85 7.88 7.88 0 0 0-1.7-.47 14.38 14.38 0 0 0-2.17-.2H22.4Zm.29-.33s3.84 0 5.13 1.44c.07.07.13.15.18.23l.26-.2a5.03 5.03 0 0 1 6.12.2s1.76-2.1 5-2.22h.3v-.02c.01-.23.1-2.59 2.87-2.76l.33-.01-.37 1.64-3.84 4.27-4.76 2.51s-4.33 1.54-8.03 1.04c-3.71-.5-7.9-2.54-9.61-4.7-1.22-1.57-2.14-2.87-2.55-3.43l-.25-.33h6.87s2.11.3 2.35 2.34Z" fill="#53432E"/><path fill-rule="evenodd" d="M45 28c0-8.84-7.61-16-17-16s-17 7.16-17 16 7.61 16 17 16 17-7.16 17-16Zm-1 0c0-8.28-7.16-15-16-15s-16 6.72-16 15c0 8.28 7.16 15 16 15s16-6.72 16-15Z" fill="#53432E"/><path d="M36.44 29H42v-1H27.56v1l-3.65 3h-1.3s-.64.5-.6 1.12c.03.63 2.53 2.88 6.43 2.88s8-2.28 8-5.01V29Z" fill="#5CAA3C"/><path d="M36.11 28.7h5.56v-.4H27.89v.83l-3.85 3.17h-1.3a1.8 1.8 0 0 0-.17.2.95.95 0 0 0-.24.6l.02.05.07.12c.06.1.16.23.3.36.28.28.7.6 1.23.91a9.05 9.05 0 0 0 4.5 1.16c1.87 0 3.81-.55 5.27-1.43 1.47-.89 2.4-2.06 2.4-3.28V28.7ZM22.61 32h1.3l3.65-3v-1H42v1h-5.56v1.99c0 2.73-4.1 5.01-8 5.01-3.9 0-6.4-2.25-6.44-2.88-.03-.62.61-1.12.61-1.12Z" fill="#53432E"/><path fill-rule="evenodd" d="M18.78 19.17c4.53.28 11.36 3.79 11.36 3.79l1.6-1.75-1.8-2.04L17.19 18 14 25h1.06l3.72-5.83Zm-3.88 5.48 3.72-5.84h.18c2.31.15 5 1.04 7.1 1.89a80.05 80.05 0 0 1 4.17 1.84l1.25-1.38-1.56-1.66-12.38-1.13-2.86 6.28h.38Z" fill="#53432E"/><path d="M21 22h3v2h-3v-2ZM21 28h3l-1.5 2-1.5-2ZM21 25h1v2h-1v-2ZM23 25h1v2h-1v-2ZM12 32h11.16l-.54 1.07H12V32ZM42 28h2v1h-2v-1ZM38 26h-8v1h8v-1ZM29 26.5h1v.5h-1v-.5Z" fill="#53432E"/><path fill-rule="evenodd" d="M34.7 21.3h-2.4v1.4h2.4v-1.4ZM32 21v2h3v-2h-3ZM35.38 24v-1H32v3h7.6c.77 0 1.4-.34 1.4-1v-.21c0-.5-.47-.79-1.05-.79h-4.58Zm-3.04 1.7h7.26c.33 0 .6-.07.79-.2a.57.57 0 0 0 .27-.5v-.21a.4.4 0 0 0-.18-.35.93.93 0 0 0-.53-.14h-4.91v-1h-2.7v2.4Z" fill="#53432E"/><path d="M15.1 25.58c-.07-.1-.12-.2-.16-.28h-.75l-.77 1.28.1.13a226.88 226.88 0 0 1 1.45 1.84c.03.04.13.1.4.13.2.03.44.02.65.02h.08a6.78 6.78 0 0 0 2.98-.7 5.91 5.91 0 0 1-3.98-2.42Zm4.4 2.17h.5s-.12.13-.38.3c-.53.36-1.65.9-3.51.94h-.08c-.44.02-1.14.03-1.36-.3-.2-.29-1.67-2.1-1.67-2.1L14 25h1.17s1.26 2.56 4.34 2.75Z" fill="#53432E"/><path fill-rule="evenodd" d="m31.34 21.75-1.1 1.37v.58h1.52v-2.21l-.42.26Zm-.14-.25L30 23v1h2v-3l-.8.5ZM32 26v-2h-2.81c-.75 1.53.95 2 .95 2H32Zm-.3-.3v-1.4h-2.31c-.1.25-.1.45-.07.6.04.18.14.33.27.46a1.62 1.62 0 0 0 .58.33l.01.01h1.52Z" fill="#53432E"/><path fill="#D1AB2F" d="M28 27h12v1H28z"/></svg>