<!-- by TradingView --><svg width="56" height="56" viewBox="0 0 56 56" xmlns="http://www.w3.org/2000/svg"><path fill="#F0F3FA" d="M0 0h56v56H0z"/><path d="M21.22 35s2.96-1.13 3.78-2c1 .62 2.55.68 3.48.68 1.65 0 5.35-1.18 7.15-6.06 1.8-4.89 1.48-7.18 2.37-8.62 0 0-14.2 1.76-14.2 9.48 0 1.63-.13 2.68.2 3.52 0 0-1.47 1.74-3.93 1.78 0 0-.5.82 1.15 1.22Z" fill="url(#ahp1vpmbg)"/><path d="M33.37 21s-.29 2.84 2.63 2.61c0 0-1.42.91-2.49-.06-1.06-.96-.14-2.55-.14-2.55Z" fill="#84B94E"/><path d="M31.43 21s-.57 4.77 4.57 4.51c0 0-.58.57-2.22.48-1.63-.1-3.69-2.07-2.35-4.99Z" fill="#84B94E"/><path d="M29.33 23s-.25 4.66 4.67 4.68c0 0-.22.32-2.47.32-1.74 0-2.61-1.96-2.52-3.65.02-.5.13-.96.32-1.35Z" fill="#84B94E"/><path d="M27.42 25s-.19 5.08 4.58 4.56c0 0-.4.44-1.96.44s-4.03-2.27-2.62-5Z" fill="#84B94E"/><path d="M26.27 26s-.15 4.68 3.73 4.63c0 0-.53.37-1.85.37s-2.76-2.26-1.88-5Z" fill="#84B94E"/><path d="M25.36 28s-.38 3.85 2.64 3.7c0 0-.46.3-1.36.3-.67 0-1.6-1.08-1.64-2.46a3.2 3.2 0 0 1 .36-1.54Z" fill="#84B94E"/><path d="m37 20-.61 2.6-.5-.8-2.31 5.15-1.28-2.19-1.95 4.37-2.51-2.5L25 33l-1-1 3.62-6.78 2.42 2.36 2.06-4.24 1.56 1.69 1.94-3.52-1.06-.13L37 20Z" fill="#F0F3FA"/><path d="M8 24H5.31C4.6 24 4 24.63 4 25.4v4.2c0 .77.59 1.4 1.31 1.4H8v-1H5v-2h2.54v-1H5v-2h3v-1ZM22 24h-1.43A3.52 3.52 0 0 0 17 27.43 3.65 3.65 0 0 0 20.71 31H22v-1h-1.48C19 30 18 28.54 18 27.46c0-1.03 1-2.46 2.45-2.46H22v-1ZM16 31h-1.1l-2.4-6-2.28 6H9l2.45-6.36c.15-.4.52-.64.96-.64h.18c.44 0 .81.25.96.64L16 31Z" fill="#181B1E"/><path d="M10.5 28h4v1h-4v-1ZM38 27h-1v4.93c0 .55-.9 1.07-1.39 1.07h-.3L35 34h1.1c1.05 0 1.9-.96 1.9-2.13V27ZM52 26h-1v3c0 .55-.23 1-.86 1H47.4l-.4 1h2.88c1.34 0 2.12-.74 2.12-1.93V26Z" fill="#181B1E"/><path d="M40 24h1v5.04c0 .54.2.96.73.96h1.93l.34 1h-2.18c-1.15 0-1.82-.73-1.82-1.9V24Z" fill="url(#bhp1vpmbg)"/><path fill-rule="evenodd" d="M48 30c0-1.66-1.12-3-2.5-3S43 28.34 43 30s1.12 3 2.5 3 2.5-1.34 2.5-3Zm-1.5 0c0-1.1-.45-2-1-2s-1 .9-1 2 .45 2 1 2 1-.9 1-2Z" fill="#181B1E"/><path d="M48.5 24a.5.5 0 1 1 0 1 .5.5 0 0 1 0-1ZM49.5 25a.5.5 0 1 1 0 1 .5.5 0 0 1 0-1ZM47.5 25a.5.5 0 1 1 0 1 .5.5 0 0 1 0-1Z" fill="#181B1E"/><defs><linearGradient id="ahp1vpmbg" x1="37.5" y1="25.5" x2="23.5" y2="29" gradientUnits="userSpaceOnUse"><stop offset=".02" stop-color="#157038"/><stop offset="1" stop-color="#52A643"/></linearGradient><linearGradient id="bhp1vpmbg" x1="42" y1="24" x2="42" y2="31"><stop offset="1" stop-color="#181B1E"/></linearGradient></defs></svg>