<!-- by TradingView --><svg width="56" height="56" viewBox="0 0 56 56" xmlns="http://www.w3.org/2000/svg"><path fill="#F0F3FA" d="M0 0h56v56H0z"/><path d="M33 14c6.33 2.11 11 8.17 11 15.15 0 1.35-.18 2.6-.5 3.85L33 14Zm5.5 27c-2.79 2.34-6.56 4-10.5 4-3.94 0-7.71-1.66-10.5-4h21Zm-26.07-8c-.28-1.17-.43-2.6-.43-3.85C12 22.02 16.46 16 23 14L12.43 33Z" fill="#BA0001"/><path d="M28 7 10 39h6.24L21 31h-1v-3h2.62l8.88-14L28 7ZM32 15l14 24H29.57L27 35.13V35h.56c2.69 0 4.83-1.54 5.44-4h1v-3h-.9c-.49-2.6-3.25-4.03-6.04-4.03-.19 0-.37.01-.56.03v-.03L32 15Z" fill="#004179"/><path d="M21 29h12v1H21v-1Z" fill="#004179"/></svg>