<!-- by TradingView --><svg width="56" height="56" viewBox="0 0 56 56" xmlns="http://www.w3.org/2000/svg"><path fill="#F0F3FA" d="M0 0h56v56H0z"/><path d="M31.5 22s-.61-6.97-10.5-8c0 0-4.03-1.92-7-1l5 5.03 9.52 8.25L41.1 27l.9-2s-.83-.05-1.78-.05c-.95 0-4.24-.02-8.72-2.95Z" fill="#62A521"/><path d="M14 31h28v-6c-7 0-11.08-2.47-11.08-2.47-9.36.78-9.94-7.63-9.94-7.63C18.28 13.14 14 13 14 13v18Z" fill="#004221"/><path d="M31.57 9s-6.26 13.01 6.22 15c0-.02 5.28-7.14-6.22-15Z" fill="#62A521"/><path d="M30.33 20.44H31s.14-6.57-8.05-7.44H21s.32 10.1 8.82 8.9l-.15-.59s-6.15 2.25-8.06-7.7c-.02 0 8-.85 8.72 6.83Z" fill="#004221"/><path d="m39.34 22.69.62.31s4-5.48-3.67-11.43L32.61 9S26.53 22.03 38 24l-.01-.78s-9.78.06-4.9-13.22c0 0 10.6 6.14 6.24 12.69Z" fill="#004221"/><path d="M30 33h3v11h-3V33ZM22 33h3v11h-3V33ZM14 33h3v11h-3V33Z" fill="#181B1E"/><path d="M14 34h7v-1h-7v1ZM14 43h7v1h-7v-1ZM14 37h6v1h-6v-1ZM22 33h7v1h-7v-1ZM22 37h6v1h-6v-1ZM42.32 35.08s.8-.6.66-.87c-.13-.26-1.75-1.21-3.79-1.21S34 34.96 34 38.26 35.85 44 39.48 44c3.64 0 3.52-1.17 3.52-1.17l-.57-.46s-.87.63-2.05.63C39.2 43 37 42.07 37 38.44 37 34.8 38.5 34 39.84 34c1.34-.01 2.48 1.08 2.48 1.08Z" fill="#181B1E"/></svg>