<!-- by TradingView --><svg width="56" height="56" viewBox="0 0 56 56" xmlns="http://www.w3.org/2000/svg"><path fill="#F0F3FA" d="M0 0h56v56H0z"/><path d="m5.7 27 1.93-1 .25-1.58S8 23.36 9.3 23.36c.85 0 1.1.1 1.12.26 0 .09-.05.19-.12.3l-2.25 4.36s-.37 1.18-1.69 1.5c-1.3.37-2.37.61-2.37 1.3 0 .61.38.91.86.92.1 0 .21-.01.33-.05.62-.18 2-.19 2.87-1.24.88-1 2.38-3.71 2.38-3.71l.31 3.58c.06.69.31 4.42 4 4.42C17 35 17 34.32 17 33.82c0-.38-.25-.63-.44-.63h-.62l-.38.81h-.31s-1.13-.12-1.88-2.67l4.26-8.65s.62-1.43 1.62-.62L21 20.37s-.13-.37-.75-.37c-.63 0-2.94.68-3.94 2.55L13 29v-5.64c0-.5-.13-1.24-.44-1.3a8.67 8.67 0 0 0-2.5.06c-1 .13-2.62.5-3.25 1.24-.36.5-1.83 2.24-1.81 3.14 0 .36.24.5.7.5ZM22.33 22.05l-.97.45s-.4.18-.36.57c.06.4.2 1.03.56.92.36-.12.97-.4 1.17-.57.2-.12.3-.4.26-.69-.05-.28-.1-.9-.66-.68Z" fill="#F30C0A"/><path d="m19.15 27.33-2.03 4.52s-.46 1.15.4 1.15c.88 0 2.38-.77 2.38-.77l.98-1.53-.98.3s-.7.09-.35-.49c.35-.57 2.38-4.66 2.38-4.66s.06-.07.07-.23a.9.9 0 0 0-.02-.22c-.05-.38-.29-.44-.46-.38-.23.07-3.24 1.55-3.24 1.55s-.4.19-.23.38c.02.04.06.05.12.05.23 0 .73-.28.92-.18.23.13.06.51.06.51Z" fill="#F30C0A"/><path fill-rule="evenodd" d="m21.01 31.16 3.87-7.99c.63-1.33 3.19-3.17 4-3.17.88 0 1.12.19 1.12.19l-1.3 1.52c-1.26-.44-1.7.89-1.7.89l-3.18 6.45s-.19.95.31.95.88-.38.88-.38a7.81 7.81 0 0 1 3.35-3.54l.4-.25.16-.1c.48-.29 1.31-.79 2.14-.73.57 0 .94.5.94 1.02C32 28 27.5 30 27.5 30s-.5.21-.5.65c0 .32.44.76 1.13.76s1.88-.31 2.44-.95a2.52 2.52 0 0 1 2.01-.82c.34 0 .42.19.42.43 0 .16-.06.28-.1.38-.06.11-.1.2-.08.3 0 .15.2.25.46.25.58-.01.98-.34.98-.93 0-.7-.36-.9-.7-1.06-.29-.15-.56-.3-.56-.77 0-.12 0-.25.06-.44.44-1.59 3.25-2.79 4.44-2.79 1.19 0 1.5.93 1.5.99 0 .06-2 1-2.31 1-.09 0-.17-.07-.27-.15-.12-.1-.27-.22-.48-.25-.19-.07-.56-.13-.56.38 0 .67.41.96.8 1.25.35.25.68.5.68.97 0 2.47-4.48 3.3-5.42 3.3-.94 0-1.44-.7-1.44-.7a8.86 8.86 0 0 1-4.24 1.2c-.87 0-.95-.93-1-1.52-.03-.27-.05-.46-.13-.48-.14-.04-.83.52-1.49 1.04-.51.41-1 .8-1.2.89a.81.81 0 0 1-.26.07c-.26.02-.4-.17-.55-.52-.18-.44-.12-1.32-.12-1.32Zm7-2.73c-.2-.19 1-1.64 1.3-1.77.2 0 .2.32.2.7-.07.44-1.32 1.26-1.5 1.07Z" fill="#F30C0A"/><path d="m45.2 26.22-2.13 4c-.16.2-.05.57.22.57.14 0 .39-.13.66-.26.33-.16.69-.34.88-.31.11 0 .17.06.17.25 0 .82-4.2 2.53-4.72 2.53-.24 0-.29-.05-.28-.3 0-.1.02-.2.04-.29.03-.14.04-.24-.04-.24-.09 0-.4.13-.78.27-.61.25-1.42.56-1.77.56-.4 0-.86-.46-.85-.83 0-.16.03-.31.04-.39v-.05c.03-.02.23-.49.51-1.12.44-.98 1.05-2.36 1.44-3.13.64-1.27 3.46-2.48 4.9-2.48 1.45 0 1.71 1.22 1.71 1.22Zm-4.57 5.13c.3-.13 2.14-4.24 2.31-4.7.12-.32.06-.7-.17-.64-.2 0-.55.15-1.04.37l-.17.08c-1.16.46-2.31 4.3-2.54 5.21-.06.2.05.33.23.33.33 0 .89-.35 1.2-.55l.18-.1ZM51.23 23.36c-.25.48-1.22 1.83-1.23 2.19 0 .24 0 .45.5.45s1.5 0 1.5.36c0 .64-.7.57-1.35.64h-1.28c-.45.8-1.36 2.47-1.37 3.46 0 .27-.05.54.28.54.45 0 1.47-1 1.99-1 .25 0 .32.03.32.27 0 1.02-3.65 2.73-4.59 2.73-.93 0-1.03-.89-1-1.52.01-.1.03-.2.07-.29C45.39 30.6 47 27 47 27h-.67s-.33-.11-.33-.37c0-.63 1.1-.63 1.5-.63l1.5-2.38c.58-.27 1.5-.62 2.07-.62.13 0 .2.07.2.2l-.04.16Z" fill="#F30C0A"/></svg>