<!-- by TradingView --><svg width="56" height="56" viewBox="0 0 56 56" xmlns="http://www.w3.org/2000/svg"><path fill="#F0F3FA" d="M0 0h56v56H0z"/><path fill-rule="evenodd" d="M28 12a16 16 0 0 1 15.35 20.55c-.31.2-8.3 5.45-11.6 5.45-1.5 0-2.5-1.04-3.59-2.16-1.3-1.36-2.73-2.84-5.32-2.84-4.72 0-8.55 3.18-8.58 3.2l.25.39.24.38c.03-.03 4.72-1.97 7.92-1.97 1.5 0 2.58 1.09 3.74 2.25C27.73 38.58 29.15 40 31.4 40c4.22 0 11.6-6.55 11.66-6.6l.06-.16A15.99 15.99 0 0 1 28 44a16 16 0 0 1 0-32Zm-1.88 11.25c1.18-1.14 11.84-7.76 11.84-7.76-.17 1.76-8.22 9.78-11.4 12.95-.7.68-1.15 1.14-1.26 1.26-.23.27-.3.48-.3.64 0 .24.16.36.16.36l.84.3-1 1-2.62-1.5h-.79L19 29l1.73-1L23 29.5h1s-1-.83-1-2.5c0-1.24 1.06-2.08 2.1-2.9.36-.27.72-.55 1.02-.85Z" fill="#0778BE"/></svg>