<!-- by TradingView --><svg width="56" height="56" viewBox="0 0 56 56" xmlns="http://www.w3.org/2000/svg"><path fill="#F0F3FA" d="M0 0h56v56H0z"/><path d="M5 20h12.5l-.5 4h-1l-1-2h-4v5h3.01l.99-2h1v6h-1.5l-.5-2h-3v5h4.98L18 31l1 .5-1.4 4.5H5v-1l2-1V22l-2-1v-1Z" fill="#002864"/><path d="M27 36h-8v-1l2-1V22l-2-1v-1h8v1l-2 1v12l2 1v1Z" fill="#BA0025"/><path d="M37 36h-6l-6-7.5s5.18-4.35 5.5-6.5L28 21v-1h8v1l-3 1-4 5 4.2 5.59S34.67 35.13 37 35v1Z" fill="#BA0025"/><path d="M51 20h-8v1l2 1v4h-6v-4l2-1v-1h-4v1.4s.1.94-2 .94V33s1 1 3 1v2h3v-1l-2-1v-5h6v5l-2 1v1h8v-1l-2-1V22l2-1v-1Z" fill="#002864"/></svg>