<!-- by TradingView --><svg width="56" height="56" viewBox="0 0 56 56" xmlns="http://www.w3.org/2000/svg"><path fill="#023A55" d="M0 0h56v56H0z"/><path d="M38 36.9V29h-1.88l-1.87-3S38 23.7 38 21c0-2.67-4.15-9.94-10-12-5.85 2.06-10 9.33-10 12 0 2.7 3.75 5 3.75 5L20 29h-2v7.9l1 .44V30h1.5l2.5-4s-4-3.05-4-5c0-2.7 3.88-8.94 9-11 5.12 2.06 9 8.33 9 11 0 1.95-4 5-4 5l2.5 4H37v8l1-1.1Z" fill="#F0F3FA"/><path d="M31 33h-2v6h-2v-6h-2v1h-1v-1h-2v1h-1v-1h-2v1h-2v-1h-2v7h3v3h4v3h12v-3h4v-3h3v-7h-2v1h-2v-1h-2v1h-1v-1h-2v1h-1v-1Z" fill="#F0F3FA"/></svg>