<!-- by TradingView --><svg width="56" height="56" viewBox="0 0 56 56" xmlns="http://www.w3.org/2000/svg"><path fill="#F0F3FA" d="M0 0h56v56H0z"/><path d="M27 31h2v8h-2v-8ZM42 31h2v8h-2v-8ZM18 30h-2l-2 2.57V34h2.26l.74 1.67v1.83h-3.25L15 35h-1.69L12 37.6V39h7v-3.4s-.75-2.97-2.55-2.97L18 30ZM20 39h6v-1.78S26 35 23.94 34H20v1.5h3.3l.7.9v1.1h-4V39ZM30 40.47V42h3.92S37 41.42 37 38.31c0-3.1-2.6-3.31-2.6-3.31h-4.37v1.2l1.47 3.3H34V38h-1.5l-.46-1.47h2.16s.8.54.8 1.78c0 1.25-.55 2.19-.55 2.19L30 40.47Z" fill="#005C29"/><path d="M26.5 15a7.46 7.46 0 0 1 3.63 14h-7.26a7.46 7.46 0 0 1 3.63-14Z" fill="#FDB90F"/><path d="M26.5 17a5.5 5.5 0 1 1 0 11 5.5 5.5 0 0 1 0-11Z" fill="#FFD059"/><path d="M26.5 18a4.5 4.5 0 1 1 0 9 4.5 4.5 0 0 1 0-9Z" fill="#FFEEC2"/><path d="M39 31h2v6s-.55 2-2.35 2H36v-1.5h1.84S39 37.27 39 36v-5Z" fill="#005C29"/><path d="M20 29.82s-2.46-2.89-2.28-8.82H17s-.16 5.83 1.53 9l1.47-.18ZM21.82 30s-1.22-5.08.18-11l-.63.18s-1.7 7.63-1.31 10.43l1.76.39Z" fill="#A55D40"/><path d="M37 29H21s6.06-1.92 8.5-5c0 0 2.61 3.73 7.5 5Z" fill="#FED570"/><path d="M35.5 25s2.2 3.6 5.5 4H30s3.33-2.71 5.5-4Z" fill="#FED570"/><path d="M32 31.54s-12 1.27-15-.41c0 0 1.83-2.43 3.22-2.1 1.39.34-1.4 1.12-.46 1.57.94.45 4.31.7 12.24.94Z" fill="#F5B416"/><path d="M23 30h19l-8.39 1-.1-.36-8.97.36-.03-.64-1.51.07V30Z" fill="#2BB4EF"/><path d="M13 16.42s2.64-.77 3.33.36l-1.09-2.22s2.03.59 2.24 1.9l1.45-1.1-.58 1.68s1.66-2.08 3-1.68l.8-.65s-.66-1.24-2.5-1.06l-.58-.8 2.82-.07 1.2.98-.44-2.76s1.88 1.42 1.88 2.84c0 0 1.27-.99 2.28-.84l-1.52 1.6s2.06-.62 2.57.22l-1.45.43s1.59.73 1.59 3.53l-2.2-2.36s1 2.58.21 4.18l-.68-1.42s.36-1.16-.3-2.58c0 0 .22 3.24-1 4.76 0 0 .36-2.8-.04-3.85 0 0-.59 2.83-1.74 4.62l.11-2.91-1.88 2.29-.9-1.35-.11-1.16-.98-.9s1.23 2.43.8 3.8c0 0-.54-1.74-1.27-2.68 0 0 .7 2.33.11 3.78l-1.48-2.76s.1 1.96-.25 2.58c0 0-.36-.98-.4-2.37 0 0-.69.77-.61 1.79 0 0-.8-1.2.4-3.06 0 0-.22-.54-1.06.44 0 0-.65 0-1.26.54 0 0-.58-1.56 1.77-2l-.5-1.3-1.45.29-.29-.73Z" fill="#005C29"/><path d="m22 16-1.47 2-.53-1.04 2-.96Z" fill="#F0F3FA"/><path d="M29.06 29H37l-3.5-1.5-3-2-1-1.5-.22.65s-.52 1.28-.14 2.2c.38.92 1.16.07 1.16 1.11S29.06 29 29.06 29ZM35.5 25s3.5 3.5 5.5 4c0 0-2.96-.21-5-1 0 0 .37-.77.23-1.28C36.1 26.2 35 27 35 27v-1.69l.5-.31Z" fill="#C65B2E"/><path d="M21 30h1.61l.94-.39a20.25 20.25 0 0 0 5.93-3.73l.15.16c.3.31.8.7 1.37 1.12l.7.54c.98.76 2.25 1.6 3.8 2.3H37a19.38 19.38 0 0 1-7.1-4.55c-.27-.28-.4-.45-.4-.45-.13.15-.27.3-.42.44-2.19 2.14-5.8 3.74-8.08 4.56Z" fill="#C65B2E"/><path fill="#F47A34" fill-opacity=".5" d="M14 40h15v2H14z"/></svg>