<!-- by TradingView --><svg width="56" height="56" viewBox="0 0 56 56" xmlns="http://www.w3.org/2000/svg"><path fill="#F0F3FA" d="M0 0h56v56H0z"/><path d="m16 13.83 9.46-3.85L40 14 25.52 9 16 13.83Z" fill="#053A6B"/><path d="m16 16.84 9.46-2.93L40 17l-14.48-4L16 16.84Z" fill="#053A6B"/><path d="m16 19.84 9.46-2.93L40 20l-14.48-4L16 19.84Z" fill="#053A6B"/><path d="m16 22.88 9.46-2.85L40 23l-14.48-4L16 22.88Z" fill="#053A6B"/><path d="m16 25.86 9.46-2.69L40 26l-14.48-4L16 25.86ZM16 29l9.46-1.94L40 28.94 25.52 26 16 29ZM16 31l9.53-1.06L40 31l-14.41-2L16 31ZM16 33l9.53-.23 14.47.18L25.59 32 16 33ZM16 35.7l9.53.3L40 35.82 25.59 35l-9.59.7ZM16 38l9.53.23L40 38.05 25.59 39 16 38ZM16 40l9.53 1.58L40 40l-14.41 3L16 40ZM16 43l9.46 1.94L40 43.06 25.52 46 16 43Z" fill="#D72226"/></svg>