<!-- by TradingView --><svg width="56" height="56" viewBox="0 0 56 56" xmlns="http://www.w3.org/2000/svg"><path fill="#F0F3FA" d="M0 0h56v56H0z"/><path d="M11 15h34v3H17v19h9v3.48c0 .29.24.52.54.52H11V15Zm34 22v4H30.46c.3 0 .54-.23.54-.52V37h14Zm-15.46 4h-2.08c.3 0 .54-.23.54-.52V37h1v3.48c0 .29.24.52.54.52Z" fill="#152755"/><path d="M19.62 24h.76c.34 0 .62.23.62.5s-.28.5-.62.5h-.76c-.34 0-.62-.23-.62-.5s.28-.5.62-.5Z" fill="#152755"/><path d="M21.62 24h.76c.34 0 .62.23.62.5s-.28.5-.62.5h-.76c-.34 0-.62-.23-.62-.5s.28-.5.62-.5Z" fill="#152755"/><path fill-rule="evenodd" d="M20 26h1c.67 0 .9.44 1 1.02v6.42c0 .31.16.56.5.56.34 0 .5-.25.5-.56v-5.87c-.01-.41.16-.57.5-.57.46 0 .5.22.5.5v6.82c0 .38-.34.68-.76.68h-3.01c-.68 0-1.23-.5-1.23-1.1v-6.74c0-.64.29-1.16 1-1.16Zm.5 1c.34 0 .5.27.5.57v5.87c0 .31-.16.56-.5.56-.34 0-.5-.25-.5-.56v-5.87c0-.3.16-.57.5-.57ZM26.85 26h-.73c-.61 0-1.12.52-1.12 1.16v6.74c0 .6.48 1.1 1.06 1.1h.79c.63 0 1.15-.54 1.15-1.2v-6.6c0-.66-.52-1.2-1.15-1.2Zm.15 1.52a.51.51 0 0 0-.5-.52c-.27 0-.5.23-.5.52v5.96c0 .29.23.52.5.52s.5-.23.5-.52v-5.96Z" fill="#152755"/><path d="M42.5 20c.27 0 .5.27.5.6v13.8c0 .33-.23.6-.5.6s-.5-.27-.5-.6V20.6c0-.33.23-.6.5-.6ZM32 34h8V20.6c0-.33.13-.6.5-.6s.5.27.5.6v13.8c0 .33-.3.6-.68.6h-10.5c-.45 0-.82-.34-.82-.74V26.6c0-.33.13-.6.5-.6s.5.27.5.6v6.8c0 .33.13.6.5.6s.5-.27.5-.6v-6.14S31.4 26 33.8 26s3.2 1.11 3.2 1.42c0 .3-.35.78-.86.78-.52 0-.88-.29-1.02-.9 0 0-.45-.46-1.44-.46s-1.68.44-1.68.9V34Z" fill="#152755"/><path opacity=".4" fill="#F0F3FA" d="M19 15h24v2H19zM11 19h3v17h-3z"/><path d="M20.62 38h.76c.34 0 .62.23.62.5s-.28.5-.62.5h-.76c-.34 0-.62-.23-.62-.5s.28-.5.62-.5Z" fill="#F0F3FA"/></svg>