<!-- by TradingView --><svg width="56" height="56" viewBox="0 0 56 56" xmlns="http://www.w3.org/2000/svg"><path fill="#F0F3FA" d="M0 0h56v56H0z"/><path d="M37 26.14s.06-.6.56-.6c0 0 .05-.54.62-.54.56 0 .87 1.1.87 1.1s.94-.32.95.9l-3-.86Z" fill="#D63652"/><path d="M39.28 14H16.72A2.73 2.73 0 0 0 14 16.71V39.3c0 1.11.68 2.07 1.65 2.5-.32-1.07-.79-2.8-.61-3.68.26-1.3.56-2.04.56-2.04s-.6-.97-.6-1.98c0-1 .94-2.53.94-2.53s-.64-1.94 1.66-2.76c0 0 .33-1.6 2.25-1.6s2.4.74 2.82 2.68c.42 1.94.38 3.69.38 3.69s1.92 1.64 3.23 1.64c.83 0 1.68-.44 2.44-.83.46-.24.88-.45 1.25-.55 0 0 2.14-2.57 2.74-4.25a6.89 6.89 0 0 1 3.3-3.39c.05-.27.25-1.13 1.04-1.1 0 0 .36-1.09 1.14-1.09.77 0 1.53 1.54 1.53 1.54s1.07.02 1.25 1.9c.37.42.72.95 1.03 1.62l-1.8-.4s.48 2.23-1.66 2.15c0 0 3.35 6.21 0 11.04l-.78.15h1.52c1.5 0 2.72-1.22 2.72-2.71V16.7c0-1.49-1.22-2.71-2.72-2.71Z" fill="#EE7D1B"/></svg>