<!-- by TradingView --><svg width="56" height="56" viewBox="0 0 56 56" xmlns="http://www.w3.org/2000/svg"><path fill="#F0F3FA" d="M0 0h56v56H0z"/><path d="M6.65 27c0-.23.21-1.1.25-1.34.04-.24.15-.6.38-.66H10c.4 0 .43-.04.59-.3.11-.19.38-.55.41-.7H5.56c-.24.05-.26.35-.32.6-.47 2.08-.79 3.96-1.2 6.01-.02.1-.08.33 0 .39h4.3c.85 0 .73.03 1-.38l.5-.86c.15-.25.2-.25-.17-.24H6.13C6.34 28 6.43 28 7.14 28c.74 0 1.49.02 2.23 0l.22-1H6.65ZM17.72 27h-1.8c-.1.02-.1.15-.11.23-.11.63-.29 1.6-.37 2.19-1.05 0-1.72 0-2.19-.64a1.49 1.49 0 0 1-.25-.87c0-.92.6-2.04 2.1-2.22.85-.1 1.82.13 2.66.2.16-1.28.58-1.44-.3-1.65a8.18 8.18 0 0 0-1.99-.24 5 5 0 0 0-1.77.33 4.12 4.12 0 0 0-2.7 3.88c0 1.29.29 1.8 1.01 2.24.61.38 1.39.53 2.19.55a8 8 0 0 0 2.12-.26c.73-.2.73-.14.88-.8.17-.85.4-2.1.52-2.94ZM37.72 27.25c.36-.09.8 0 1.02.2.3.25.18.56.1.94-.12.6-.12 1.25-1.05 1.4-.82.12-1.35-.43-1.18-1.18.14-.65.5-1.22 1.11-1.36ZM40.08 31c.1-.08.22-1.06.25-1.25.07-.4.32-2.23.53-2.44.12-.12.16-.06.13-.26-.02-.26-.12-.73-.15-1.05-1.6 0-1.33-.01-1.62.43-.47-.15-.45-.43-1.54-.43C36.1 26 35 27.51 35 29.04c0 1.14.51 1.96 1.8 1.96.95 0 1.04-.22 1.62-.47-.01.13-.07.44.02.47h1.64ZM43.71 26h-1.6c-.13.05-.53.94-.64 1.1.07.15.2.16.18.4-.02.36-.57 2.87-.65 3.5h1.8c.11-.7.27-1.41.4-2.1.13-.72.1-1.34 1.01-1.55.42-.1.72.07.78.4l.01.15c-.01.29-.11.74-.16.95-.14.7-.29 1.43-.38 2.14h1.86c.13-.1.2-.8.22-.98.12-.63.44-2.04.46-2.76l-.01-.29c-.13-.7-.86-.96-1.55-.96-.4 0-.78.08-1.04.2-.4.19-.5.34-.76.48l.07-.68ZM29.75 24h-1.98c-.1.06-.07.08-.1.2l-.14.68c-.07.3-.14.82-.2 1.12h-.87c-.07.2-.46.88-.46 1l1.09.1c-.08.59-.22 1.01-.32 1.6-.11.59-.3 1.18.07 1.69.31.42.83.6 1.63.61.52 0 1.46-.18 1.82-.41l-.26-1.14c-.78.11-1.42.23-1.22-.72.12-.57.27-.99.36-1.56l1.62-.17.21-1h-1.56l.31-2ZM47.74 27.6c0 1.36 2.19 1.02 2.06 1.82-.05.3-.35.56-.7.58-.3.02-.66-.2-.9-.28-.18-.06-.47-.19-.64-.2l-.56.99c.14.04.29.12.44.18.47.19 1.05.3 1.63.31.64 0 1.28-.12 1.77-.44.5-.33.8-.83.8-1.3a1 1 0 0 0-.43-.83c-.57-.42-1.56-.57-1.65-.89-.1-.34.44-.54.76-.54.42 0 .83.22 1.23.23l.45-.82c-.23-.22-1.43-.41-1.9-.41-.78 0-1.7.24-2.1.88a1.4 1.4 0 0 0-.26.73ZM35 26c-1.05.04-1.37.58-1.66.73l.07-.73h-1.6l-.47 1.1c.11.08.15-.02.18.12.02.09-.52 3.28-.52 3.78h1.56c.1-.4.36-2.03.45-2.56.2-1.19 1.05-.95 1.8-1.2L35 26Z" fill="#1F3D7C"/><path d="M23.66 27.5c-.19-.28-.38-.58-.58-.85l-.28-.43c-.1-.15-.22-.3-.28-.44-.19-.26-.37-.54-.54-.8-.66-.98-.55-.98-1.68-.98H19c.25.43 1.68 2.46 2.1 3.07.07.1.24.32.28.43-.31.56-2.14 3.05-2.38 3.5h2c.38-.01.43-.2.6-.44.2-.27 2-2.92 2.06-3.07Z" fill="#00974D"/><path d="M22.52 25.78c.06.15.18.3.28.44l.28.43c.2.27.39.57.58.84l1.17-1.71.59-.88.58-.9h-1.28c-.92 0-.96-.04-1.38.6l-.82 1.18Z" fill="#1F3D7C"/></svg>