<!-- by TradingView --><svg width="56" height="56" viewBox="0 0 56 56" xmlns="http://www.w3.org/2000/svg"><path fill="#FFC10E" d="M0 0h56v56H0z"/><path d="M28 12c8.82 0 16 7.18 16 16s-7.18 16-16 16-16-7.18-16-16 7.18-16 16-16Z" fill="#F0F3FA"/><path d="M19.24 41.42a17.03 17.03 0 0 1-4.9-5.04c.05 0 4.03 1.43 12.66-6.38l-1.8-2.06c-.1-.06-.2-.28-.2-.5 0-.2.11-.44.46-.44h8.97s.52 0 .57.46c-.38 3.57-.66 6.32-1 9.09 0 0-.15.45-.48.45a.55.55 0 0 1-.34-.14C32.55 36.36 32 35 32 35s-6.83 6.04-12.76 6.42ZM37 14.77A15.64 15.64 0 0 1 41.86 20c-.32 3.21-3.73 7.46-4.04 7.9-.06.1-.14.1-.25.1-.57 0-.57-.5-.57-.98V25l-2.32-.02s-.3.03-.64.02c-.34 0-.7-.06-.86-.21a.54.54 0 0 1-.18-.4c0-.28.24-.48.24-.48 3.44-4.47 3.78-7.29 3.76-8.44v-.7Z" fill="#076D93"/></svg>