<!-- by TradingView --><svg width="56" height="56" viewBox="0 0 56 56" xmlns="http://www.w3.org/2000/svg"><path fill="#9FCB0C" d="M0 0h56v56H0z"/><path d="M17.11 38c-1.4.01-2.08-.91-2.11-2 0-1.38.93-3.13 2.44-5h-1.26c-1.33 1.81-2.14 3.54-2.18 5-.04 1.75 1.03 3 3.11 3 2.2 0 8.44-3.64 14.12-8h-1.9c-5.12 3.83-10.38 6.98-12.22 7Zm22.96-17h1.18c.48-.86.75-1.64.75-2.3-.03-1.77-1.36-2.7-3.11-2.7-2.69 0-7.17 2.07-11.59 5h1.97c3.78-2.37 7.42-4 9.62-4 1.19 0 2.11.54 2.11 1.76 0 .6-.34 1.36-.93 2.24Z" fill="#F0F3FA"/><path d="M14.85 41c-1.82.04-2.85-.83-2.85-2.3 0-2.5 1.08-5.13 2.83-7.7h-1.3c-1.59 2.56-2.54 5.18-2.53 7.7 0 2 1.47 3.35 3.88 3.3 5.2 0 13.2-5.22 19.58-11h-1.74c-6.18 5.28-13.54 9.9-17.87 10Zm27.21-20h1.2c.84-1.37 1.73-3.16 1.74-4.76.01-2.2-1.84-3.28-3.88-3.24-4.69.1-11.84 3.35-18 8h2.05c5.88-4.17 12.29-7.02 15.95-7.02 1.5-.03 2.87.63 2.88 2.26.01 1.6-1.13 3.54-1.94 4.76Z" fill="#F0F3FA"/><path d="M11 29h34v6H11v-6ZM16 23h-3v4h3v-.98h-1.56V25H17v1.58c0 .38-.03.68-.1.88a.68.68 0 0 1-.32.42c-.15.08-.36.12-.62.12h-2.92c-.26 0-.47-.04-.62-.12a.68.68 0 0 1-.32-.42c-.07-.2-.1-.5-.1-.88v-3.16c0-.38.03-.67.1-.88.06-.2.17-.34.32-.42.15-.08.36-.12.62-.12h2.92c.26 0 .47.04.62.12.15.07.25.21.32.41.07.2.1.48.1.83v.14l-1 .24V23ZM19 28v-6h3.61c.22 0 .4.04.54.12.14.07.24.2.3.37.07.17.1.4.1.67v1.7c0 .42-.07.69-.22.87-.15.18-.4.27-.72.27h-.56L24 28h-1.4l-1.7-2H20v2h-1Zm3.17-5H20v2h2.2c.16 0 .24-.03.31-.1.07-.06.1-.19.1-.38v-1.05c0-.18-.03-.3-.1-.37-.06-.07-.18-.1-.34-.1ZM25 28l2.49-6h.99L31 28h-1.15l-.42-1h-2.98l-.43 1H25Zm1.79-2h2.31l-1.15-2.84L26.79 26ZM32 28v-6h.79l2.88 3.54c.2.23.25.45.37.65L36 25.15V22h1v6h-.79l-3-3.7c-.15-.2-.16-.35-.25-.5a17.11 17.11 0 0 1 .04.96V28h-1ZM39 28v-6h2.65c1.68 0 2.35 1.47 2.35 2.96 0 1.78-.8 3.04-2.6 3.04H39Zm1-1h1.2c1.26 0 1.8-.82 1.8-2.06 0-1.23-.44-1.94-1.34-1.94H40v4Z" fill="#F0F3FA"/><path d="M18.58 34c1.1 0 1.42-.25 1.42-1.2v-.19h-.66v.12c0 .56-.16.67-.76.67h-.08c-.65 0-.8-.12-.8-1.2v-.42c0-1.04.12-1.2.8-1.2h.08c.62 0 .74.2.74.65v.12h.66v-.16c0-.92-.27-1.19-1.4-1.19h-.1c-1.2 0-1.48.32-1.48 1.77v.45c0 1.48.28 1.78 1.48 1.78h.1ZM22.92 30h-.84L21 34h.62l.2-.84h1.34l.2.84H24l-1.08-4Zm-.96 2.6.52-2.05h.03l.51 2.04h-1.06ZM25.72 32.12v-1.54h.8c.66 0 .77.11.77.67v.21c0 .53-.1.66-.76.66h-.8Zm0 .6h.9c1.08 0 1.38-.22 1.38-1.27v-.2c0-1.04-.26-1.25-1.42-1.25H25v4h.72v-1.28ZM29.78 30H29v4h.78v-4ZM32.87 30.6H34V30h-3v.6h1.13V34h.74v-3.4ZM35.92 30h-.84L34 34h.62l.2-.84h1.34l.2.84H37l-1.08-4Zm-.96 2.6.52-2.05h.03l.51 2.04h-1.06ZM40 33.4h-1.4V30H38v4h2v-.6Z" fill="#9FCB0C"/></svg>