<!-- by TradingView --><svg width="56" height="56" viewBox="0 0 56 56" xmlns="http://www.w3.org/2000/svg"><path fill="#F0F3FA" d="M0 0h56v56H0z"/><path d="M27 37.59V16.66s.35-1.84 2.88-.32c2.53 1.56 0-.51 0-.51s-.86-.83-2-.83c-1.1 0-1.88.78-1.88 1.94V38l1-.41ZM21 26.03l-.35-.23s-1.03-.8-2.4-.8c-1.37 0-2.25.75-2.25 1.86V39l1-.4v-12s.62-1.78 3.65-.32l.35.18v-.43Z" fill="#74A94C"/><path d="M24 20.12v20.4l-1 .41V20.37c0-1.12.72-1.89 1.84-1.89 1.13 0 1.97.81 1.97.81l.12.1v.47l-.12-.07c-2.49-1.49-2.81.33-2.81.33Z" fill="#74A94C"/><path d="M21 37.94v1.52l-1 .4V23.57c0-1.12.68-1.88 1.75-1.88a2.92 2.92 0 0 1 1.97.9v.47l-.11-.07c-2.36-1.48-2.61.31-2.61.31v14.64Z" fill="#74A94C"/><path d="m35 11 5 3.25V37h-5V11Z" fill="#95C85B"/><path d="M35 37h-5V14.25L35 11v26Z" fill="#74A94C"/><path d="M13.78 36h28.44c1.52 0 2.78 1.36 2.78 3s-1.26 3-2.78 3H13.78C12.26 42 11 40.64 11 39s1.26-3 2.78-3Z" fill="#F0F3FA"/><path fill-rule="evenodd" d="M42 37H14c-1.25 0-2 .72-2 2s.75 2 2 2h28c1.25 0 2-.72 2-2s-.75-2-2-2Zm.22-1H13.78C12.26 36 11 37.36 11 39s1.26 3 2.78 3h28.44c1.52 0 2.78-1.36 2.78-3s-1.26-3-2.78-3Z" fill="#74A94C"/><path d="M34 17v-1h-2.4s-.6-.04-.6.53v2.63s0 .84.8.84H34v-2.5h-1.5v1h.5v.5h-1v-2.5h1v.5h1ZM34 22v-1h-2.4s-.6-.04-.6.53v2.63s-.14.84.8.84H34v-1.5h-1v.5h-1v-2.5h1v.5h1ZM34 27v-1h-2.5s-.5 0-.5.5V28s0 .35.5.35H33v1.15h-1V29h-1v1h2.2s.8.04.8-.78V28s-.18-.5-1.01-.5H32v-1h1v.5h1ZM34 32v-1h-2.5s-.5 0-.5.5V33s0 .35.5.35H33v1.15h-1V34h-1v1h2.2s.8.04.8-.78V33s-.18-.5-1.01-.5H32v-1h1v.5h1Z" fill="#F0F3FA"/><path opacity=".5" fill="#98BC6E" d="M13 38h30v2H13z"/></svg>