<!-- by TradingView --><svg width="56" height="56" viewBox="0 0 56 56" xmlns="http://www.w3.org/2000/svg"><path fill="#F0F3FA" d="M0 0h56v56H0z"/><path fill-rule="evenodd" d="M17.13 30.67c-.38-1.41-1.2.94-1.13-1.3v-2c-.04-1.8 1.24-1.32 3.01-1.47 2.56-.22 1.36.11 1.49 1.95.03.38.02 3.5-.07 3.8l-4.1.22-.16-.19.95-1.01Zm20.48-3.03-.8.7c-.26-.1-1.55-.6-1.7-.6l-.26.63-3.1-.79-.18 1.38-.35-2.27-.37.02c-.04.33-.24 1.8-.17 2.02l.17.39.52.5-.94-.28.25-2.3c-1.62-.62-3.36-1.28-4.93-2l.3.84-3.64-.08-1.3.03-.2-.96-3.04.87h-1.5l-.97-.7-.9 1.4h1.13l-.38 5.22c0 .41.38.77.83.5l1.56.4.5.32 8.24-1c-.38-.07-.97-.12-1.3-.25l.26-4.8 1.1.33.12.93h.21v-.9l.96.38-.7 1.12.33.2 1.02-1.22.42.94.25-.04.17-.75c.02.15-.01.9.12.96.15.06.58-.04.76.1l-.4.75c.27 2.28.99 2.4 1.27 2.57.5.27.48-.08 1.2.1l.59-1.27 3.8.68.44.6 1.13-.94-5.48-2.11.75.22c.02-.1 2.48 2.24 4.2.23-.2 1.3 1.48 2.33 2.02 1.3l-.1-1.2-2.13-.83.18-.4 1.53.35c-.01-.26-.07-1.45-.15-1.59l.58.2c-.14-.23-.6-2.5-.7-2.92L38 27.54l.42.13-.82-.03Z" fill="#B4A27C"/><path d="m22.45 25.8 3.64.08-.19-.51c1.67.62 3.3 1.34 4.62 1.82l-.23 2.07.6 2.36.21-.04.63-2.06-.57-.25.58-.09-1.04-.44c-.08-.2.14-1.68.18-2.02l.37-.01.35 2.26.17-1.38 3.1.8.26-.63c.15-.03 1.45.5 1.7.58l.8-.68-.24-1-5.58-.46-.17-2.63L28.57 18l-2.28 2.75c.48-.45 1.79-1.84 2.28-2.06l2.07 2.57-4.36.04c0 .49.16 1.19.25 1.7l-.7-.06.02 1.81-.28.13-.04.77-3.08.15Z" fill="#E3DCCB"/><path d="m37 32.26.33-.36.02.38 4.11.7-.05-.3c.04-.2 1.18-1.5 1.17-1.76l-1.1.06-.02-.65-.96-.03-.1-1 .86-.1v-.23l-.93-.11-1.5-4.26c.08.44.56 2.7.7 2.92l-.58-.19c.08.15.14 1.34.15 1.59l-1.53-.35-.18.4 2.14.82v.87l-.27-.38-.3.55c-.13-.18-.91-.32-1.18-.38l-.19-.76-1.23.38-.58-.69-.2.05-.06.95-.16-.01-.07-1.04-.16.53-.2.02-.3-.77c-.13.05-.95-.13-.95-.13l-.11-.14-.17.63-.32-.78-.3.04-.13.51-.3-.68-.38.07.2 1.87.21-.23 5.32 1.04-.7.95Z" fill="#EBE4D3"/><path d="M17.21 31.36c.06-2.15-.33-2.03 1.15-1.95l.03 1.82-.16.08c-.56.27-.31.11-1.02.05Zm-.02-4.83c.32-.06.96-.11 1.24-.01 0 .44-.04 1.41.08 1.75-.1.06-.48.31-.55.32 0 0-.73-.1-.76-.12-.01-.04-.03-1.81-.01-1.94Zm-.44 4.06-.58 1.1.16.18 4.1-.21c.08-.3.1-3.43.07-3.8-.13-1.85 1.07-2.18-1.49-1.96-1.77.15-3.05-.36-3.01 1.43v2.04c-.07 2.23.5.4.75 1.22Z" fill="#FAFAF1"/><path d="m26.56 23.12-1.2.58c.01.3.18.43.46.8l4.87-.5.03-.35-3.55-.3.2-1.15.43 1.02h.16l.38-1.14.48.96.62-.95.21.81c1.28-1.26-.95-1.25-1.1-1.17-1 .43-1.86-.6-2 1.39Z" fill="#B39B73"/><path d="M17.19 26.53v1.93l.76.12c.08-.01.46-.26.54-.32-.12-.34-.05-1.3-.08-1.75a3.7 3.7 0 0 0-1.22.02Z" fill="#B89A74"/><path d="M17.21 31.36c.7.06.44.22 1.02-.05l.16-.08-.03-1.82c-1.48-.08-1.08-.2-1.15 1.95Z" fill="#AC9364"/><path d="M25.77 30.26c.04.29-.08.67.21.67 0-.08-.04-.16-.04-.26l.08-.4c.86.01.24.43.58.73.04-.07.1-1.06.2-1.3.09.27.12.6.49.7.08-.7-.23-.83-.52-1.16-.41-.46-.25-.12-.56-.1-.52.04.21-.16-.37-.2-.47-.06-.35.74-.3 1 .03.32-.02.14.23.32Z" fill="#BCAB8C"/><path d="m28.69 30.36.38.28.3 2.13c-.77.18-1.46.37-2.12.73-.36.19-1.61.73-1.66 1.12.35-.03.26-.16.8-.19.32-.01.64 0 .95-.03l.46.3-.26.2c-.86.23-1.64.49-2.78.34-.37-.4-1.33-2.16-1.76-2.23-.42.57.38 1.12.5 1.64-.57.61-1.58.67-2.25.44-.16-.05-.02-.04-.23-.03l-.02.62.15.23c.46.04.88.04 1.28-.1.27-.09.76-.36.98-.37.15-.01.3-.01.48-.04.1.6 1.24.62 1.91.6 1.37-.05 1.7-.57 3.04-.95.77-.22 1.22-.07 1.15-.8-.52-.05-.92.06-1.4.07a4.13 4.13 0 0 1-1.22-.25c.5-.48 1.3-.27 2.06-.45.4-.1.52-.43.53-.83.02-.42-.1-.9-.2-1.18-.32-1.02.03-.76.14-1.3l.05-.34c-.19-.18-.42-.05-.63-.18-.19-.1-.15-.5-.05-.52L29.2 29c-.51.16-.56.78-.51 1.36ZM16.7 33.06c.02.56-.1.3.19.8.1.2.34.55.33.82-.35.22-.51.3-.97.45-.9.3-.77-.13-1.24-.13l-.01.73.18.15c.5.06.87 0 1.27-.17.31-.13.8-.47 1.05-.51.56.55.32.83 1.45.8 1-.03 1.22-.31 1.71-.5.14-.43.39-.74.33-1.33-.24-.19-.54-.65-1.1-.6l-.1.58c.22.21.59.38.61.72-.43.4-1.2.4-1.97.37-.27-.11-1.12-1.64-1.19-1.84-.34-.26-.17-.52-.54-.34Z" fill="#0C442B"/><path d="m13.56 35 .26-.31c.41-.03.7.1.85.36-.06.13-.09.18-.28.27a.69.69 0 0 1-.36.08l-.49-.08.02-.31Zm-.44 1.02c1.83.62 3.34-2.15.73-2.02-.4.62-1.14 1.27-.73 2.02Z" fill="#0C442B"/><path d="m30.25 31.62.06.54c.01.33.2 1.2.26 1.6.3 1.71.09.93.19 1.83.47-.04.1-2.42.1-2.52-.11-.17-.22-1.2-.27-1.55l-.02-.12c-.17-.06-.23-.05-.32.22Z" fill="#13432C"/><path d="M36.28 34.53c.08-.28 1.03-.67 1.3-.78.51-.22 1.47.01 1.66.33-.24.44-2.45.49-2.96.45Zm-6.97.61c.19-.06.42-.13.4-.39-.2 0-.32.11-.45.26-.15.07-.26.2-.42.24a2 2 0 0 0-.6.59c-.09.2-.3.43-.22.74.07.27.35.4.64.42a3.8 3.8 0 0 0 1.53-.66c.8-.28 1.06-.74 2.88-1.11.23-.05.46-.03.69-.05.33-.04.24-.12.5-.13.55.13.53 0 .45.4-.01.27-.41.51-.43.93.31-.09.16-.16.65-.7l.42-.44c.3-.18 1.77-.02 2.27-.1.26-.03 2.57.22 3.2-.02.39-.15.32-.4.56-.64.78 0 .92.31 1.5.26.1-.17.13-.4.12-.63-.04-.5-.33-1.04-.76-1.09-.28-.04-.62.13-1 .62-.12.14-.16.26-.24.34-.04.33-.12.47-.45.52-.25.03-.57.07-.85.03l.24-.53c.07-.64-1.1-1.32-2.22-.83l-1.73.9c-.3.18-.74.59-1.05.12-.15-.22-.01-.28-.28-.4-.47.2.01.66-.9.7-1.03.07-3.5 1.14-3.63 1.4-.37.1-.5.12-.91.18-.26.01-.33-.08-.38-.28.21-.39.19-.35.47-.65Zm12.37-1.27c.1-.53.66-.12.71.17l-.71-.17Z" fill="#13432C"/><path d="M13.33 32.18a.84.84 0 0 0-.33.5c.17.13.65.35.9.35.5-.22.29-.37.27-.47-.02-.16-.26-.2-.84-.38Z" fill="#15472C"/><path d="M26.12 35.99c.13.12.64.33.89.35.12-.13.27-.27.32-.48l-.88-.41c-.12.15-.28.32-.33.54ZM20.5 35.88l.05.25.03.05c.25.08.45.2.73.24.18-.15.3-.26.32-.5-.2-.13-.64-.31-.89-.33l-.04.04-.2.25Z" fill="#13432C"/><path d="M19 36.08c.11.08.4.23.64.25l.23.05.25-.42-.09-.14-.44-.18-.32-.05c-.1.12-.3.3-.27.49Z" fill="#0C442B"/><path d="M14.55 32.35c-.03.16-.11.3-.07.4.1.15.53.3.77.27.07-.12.15-.25.26-.39l-.07-.12c-.32-.09-.53-.25-.84-.3l-.05.14Z" fill="#13432C"/><path d="M8.5 37c-.33-1.47-.5-3-.5-4.58C8 21.14 16.95 12 28 12s20 9.14 20 20.42c0 1.57-.17 3.1-.5 4.58h-2.2A18.01 18.01 0 0 0 28 14a18 18 0 0 0-17.3 23H8.5Z" fill="#A09077" fill-opacity=".5"/></svg>