<!-- by TradingView --><svg width="56" height="56" viewBox="0 0 56 56" xmlns="http://www.w3.org/2000/svg"><path fill="#F0F3FA" d="M0 0h56v56H0z"/><path fill-rule="evenodd" d="M43.5 28a15.5 15.5 0 1 0-31 0 15.5 15.5 0 0 0 31 0Zm.5 0a16 16 0 1 0-32 0 16 16 0 0 0 32 0Z" fill="#181B1E"/><path d="M28.5 22c-4.87 0-9.63-.97-13.72-3l.5-.5a29.6 29.6 0 0 0 13.22 3c4.5 0 8.4-1.22 12.22-3l.5.5c-3.93 1.83-8.1 3-12.72 3ZM28.5 34c-4.87 0-9.56.97-13.65 3l.5.5c3.99-1.98 8.4-3 13.15-3 4.5 0 8.34 1.22 12.16 3l.5-.5a29.5 29.5 0 0 0-12.66-3ZM44 28.5H12V28h32v.5Z" fill="#2B2B2A"/><path fill-rule="evenodd" d="M24 28.5a5.5 5.5 0 1 0-11 0 5.5 5.5 0 0 0 11 0Zm-4 0a1.5 1.5 0 1 0-3 0 1.5 1.5 0 0 0 3 0Z" fill="#2B2B2A"/><path d="m28.46 16 2.02 3.04.52 17.5L28.37 39 25 36.26S24.63 20.61 28.46 16Z" fill="#174F2D"/><path d="M14.5 28c0 8.5 7.5 13 13.5 15.5v.5c-6-2-14-7-14-16s8-15 14-16v.5c-6 1.5-13.5 7-13.5 15.5ZM41.5 28c0 8.5-7.5 13-13.5 15.5v.5c6-2 14-7 14-16s-8-15-14-16v.5c6 1.5 13.5 7 13.5 15.5Z" fill="#2B2B2A"/><path d="M28 12.5c-5.23 3.17-8 8.86-8 15.5 0 6.68 2.73 12.34 8 15.5v.5c-5.56-3.33-8.5-9.13-8.5-16 0-6.83 2.99-12.66 8.5-16v.5ZM28 12.5c5.23 3.17 8 8.86 8 15.5 0 6.68-2.73 12.34-8 15.5v.5c5.56-3.33 8.5-9.13 8.5-16 0-6.83-2.99-12.66-8.5-16v.5Z" fill="#2B2B2A"/><path fill="#D49E28" d="M30 35h9v4h-9zM30 35l7.36-13h1.82L41 27h-1.82l-.93-3-6.47 11H30Z"/></svg>