<!-- by TradingView --><svg width="56" height="56" viewBox="0 0 56 56" xmlns="http://www.w3.org/2000/svg"><path fill="#F0F3FA" d="M0 0h56v56H0z"/><path d="M5 24h7v7H5v-7Z" fill="#98012E"/><path d="M8.32 27.78v-.13c.52-.1 1.1-.27 1.49-.65H10v3.34c0 .1.03.28.08.34.18.18.64.15.9.21l.02.06c0 .02 0 .02-.03.05H8.13c-.05 0-.13-.02-.13-.08 0-.05.05-.08.13-.1.22 0 .6-.03.76-.2.08-.05.11-.26.11-.4v-1.76c0-.22 0-.33-.03-.38-.02-.03-.08-.08-.16-.11-.16-.08-.19-.13-.49-.19Z" fill="#F0F3FA"/><path d="M13.43 30.76c.2-.07.26-.01.42-.16.14-.07.17-.51.15-1.01-.02-.73.01-1.58 0-1.59 0 0-.33 0-.57-.03v-.16c.44-.1.82-.39 1-.81H15v.64c.35-.29.38-.29.92-.52.19-.08.43-.12.58-.12 1 0 1.46.73 1.5 1.55.03.51 0 .95 0 1.5.06.72.31.6.84.82 0 .04 0 .1-.03.13h-2.55c-.01-.06-.05-.14 0-.19.24-.08.74 0 .74-.37V28.6c0-.63-.34-1.22-1.06-1.08-.27.05-.57.24-.94.54v1.43c0 .32 0 1 .25 1.15.16.06.66.03.75.22V31h-2.77c-.11-.19.1-.21.2-.24ZM23 30v.31c-.55.48-1.13.69-1.85.69A2.1 2.1 0 0 1 19 28.94c0-1.36 1.37-1.94 2.54-1.94.5 0 .95.17 1.22.31.15.09.24.2.24.35 0 .23-.21.34-.42.34-.56 0-.8-.69-1.37-.69-.83 0-1.21.95-1.21 1.69 0 .88.58 1.57 1.5 1.57.62 0 1-.24 1.5-.57ZM24 29c0-1.13.87-2 1.99-2s2.01.89 2.01 1.99S27.05 31 25.99 31c-1.1 0-1.99-.92-1.99-2Zm1.99 1.78c.92 0 1.01-1 1.01-1.8 0-.79-.07-1.76-1.01-1.76-1.03 0-.99.92-.99 1.78 0 .78.07 1.78.99 1.78ZM29 25.4v-.1l.4-.08c.22-.06.84-.14 1.29-.22H31v5.14c0 .36.27.7.94.7.03 0 .06.03.06.05 0 .1-.06.11-.14.11H29.2c-.1 0-.2 0-.2-.1 0-.03.08-.14.24-.16.33-.04.76-.24.76-.5v-4.4c0-.25-.24-.3-.43-.36-.32 0-.49-.05-.57-.08ZM37 28.5h-2.94c-.07.2-.06.27-.06.47 0 .93.68 1.57 1.55 1.57.56 0 .98-.2 1.42-.53l.03.2c-.55.54-1.23.79-1.99.79A1.96 1.96 0 0 1 33 29.06c0-1.2 1.05-2.06 2.2-2.06 1.21 0 1.8 1.14 1.8 1.5Zm-2.83-.5h2.02c-.1-.5-.57-.83-1-.83-.54 0-.93.37-1.02.83ZM52 28.5h-2.94c-.07.2-.06.27-.06.47 0 .93.68 1.57 1.55 1.57.56 0 .98-.2 1.42-.53l.03.2c-.55.54-1.24.79-2 .79-1.11 0-2-.84-2-1.94 0-1.2 1.05-2.06 2.2-2.06 1.21 0 1.8 1.14 1.8 1.5Zm-2.83-.5h2.02c-.1-.5-.57-.83-1-.83-.54 0-.93.37-1.02.83ZM43 30.32c0 .35-.66.68-.95.68-.42 0-1.03-.24-1.08-.65-.55.33-1.05.65-1.71.65-.31 0-.7-.23-.7-.57 0-1.17 1.7-1.3 2.44-1.78v-.35c0-.51-.13-.91-.73-.91-.76 0-.83.52-1.1 1.04a.99.99 0 0 1-.35.14c-.07 0-.27-.03-.27-.14 0-.08.11-.27.3-.57.31-.48.93-.86 1.52-.86.5 0 1.63 0 1.63.73v2.4c0 .2.16.33.35.33.14 0 .35-.05.46-.19.05-.08.19-.06.19.05ZM41 30c.03-.39 0-.5 0-1-.54.18-1.58.52-1.58 1.19 0 .84 1.29.07 1.58-.19ZM44.09 29.64c.29.6.6 1.15 1.32 1.15.32 0 .6-.25.6-.63 0-.62-.32-.85-.8-1.02-.52-.17-1.2-.44-1.2-1.1 0-.7.88-1.04 1.5-1.04.38 0 .76.01 1.1.2.06.3.09.51.09.8h-.2c-.18-.45-.43-.76-.93-.76-.37 0-.57.19-.57.6 0 .45.23.62.57.73.62.21 1.43.55 1.43 1.33 0 .76-.88 1.1-1.51 1.1-.47 0-.96-.08-1.35-.2a.2.2 0 0 1-.05-.14c0-.29-.08-.57-.08-.86 0-.1-.04-.16.08-.16Z" fill="#98012E"/><circle cx="9.5" cy="25.5" r=".5" fill="#F0F3FA"/></svg>