<!-- by TradingView --><svg width="56" height="56" viewBox="0 0 56 56" xmlns="http://www.w3.org/2000/svg"><path fill="#F0F3FA" d="M0 0h56v56H0z"/><path d="M28 44c8.95 0 16-7.05 16-16s-7.05-16-16-16-16 7.05-16 16 7.05 16 16 16Zm17-16a17 17 0 1 1-34 0 17 17 0 0 1 34 0Z" fill="#4C8C51"/><path d="M28 17a11 11 0 1 1 0 22 11 11 0 0 1 0-22Z" fill="#A8E0F9"/><path fill-rule="evenodd" d="M38.45 28a10.45 10.45 0 1 0-20.9 0 10.45 10.45 0 0 0 20.9 0Zm.55 0a11 11 0 1 0-22 0 11 11 0 0 0 22 0Z" fill="#757575"/><path d="M34.54 28c0-3.65-1.51-7.34-3.54-9.16l.46-.22C33.61 20.55 35 24.18 35 28c0 3.61-1.68 7.44-3.56 9.39l-.48-.21c1.84-1.9 3.58-5.8 3.58-9.18Z" fill="#757575"/><path d="M35.63 35.5c-.04.05-.09.45-.13.5-2.36-1.15-4.66-1.5-7.48-1.5-2.82 0-5.08.35-7.44 1.5-.04-.05-.13-.5-.18-.55 2.4-1.18 4.75-1.45 7.62-1.45s5.22.32 7.61 1.5ZM38 31.5c-.03.08-.05.42-.08.5A19.1 19.1 0 0 0 28 29.5c-3.59 0-6.96.74-9.92 2.5-.03-.08-.05-.42-.08-.5A19.28 19.28 0 0 1 28 29c3.61 0 7.02.73 10 2.5ZM37.91 24c.03.08.06.42.09.5A19.32 19.32 0 0 1 28 27c-3.6 0-7.01-.73-10-2.5.03-.08.06-.42.09-.5A19.14 19.14 0 0 0 28 26.5c3.58 0 6.95-.74 9.91-2.5ZM35.3 20.56c.05.09.14.53.18.62A11.29 11.29 0 0 1 28 23.75c-2.67 0-5.2-.78-7.44-2.66.05-.09.1-.44.14-.53a11.19 11.19 0 0 0 7.3 2.66c2.62 0 5.1-.83 7.3-2.66ZM32 37.82c-.06.06-.44.12-.5.18a4.65 4.65 0 0 0-3.5-1.5c-1.38 0-2.36.42-3.5 1.5-.06-.06-.44-.12-.5-.18A5.74 5.74 0 0 1 28 36c1.45 0 2.8.66 4 1.82ZM24 18.18c.06-.06.44-.12.5-.18a4.65 4.65 0 0 0 3.5 1.5c1.38 0 2.36-.42 3.5-1.5.06.06.44.12.5.18A5.74 5.74 0 0 1 28 20c-1.45 0-2.8-.66-4-1.82Z" fill="#757575"/><path d="M26.5 19.76h.5c-2.37 3.03-2.5 6.1-2.5 8.24 0 2.67.13 5.2 2.5 8.23l-.5.02C24.16 33.21 24 30.67 24 28c0-2.13.16-5.2 2.5-8.24ZM29.5 19.7H29c2.37 3.03 2.5 6.18 2.5 8.32 0 2.66-.13 5.25-2.5 8.28h.5c2.34-3.04 2.5-5.62 2.5-8.28 0-2.14-.16-5.28-2.5-8.32Z" fill="#757575"/><path d="M42.34 28.18c0-5.24-2.75-9.85-6.9-12.47l.28-.45a15.26 15.26 0 0 1 7.16 12.92h-.54ZM20.56 15.71a14.74 14.74 0 0 0-6.9 12.47h-.54c0-5.43 2.86-10.2 7.16-12.92l.28.45Z" fill="#E9C27F"/><path d="M41.26 28.18c0-6.31-4.23-11.66-10.07-13.47l.17-.52a14.72 14.72 0 0 1 10.45 14h-.55ZM24.81 14.7a14.18 14.18 0 0 0-10.06 13.48h-.56c0-6.56 4.4-12.1 10.45-14l.17.53Z" fill="#E9C27F"/><path d="M40.25 28.18c0-4.86-3.42-9.1-6.94-11.36l.25-.48c3.66 2.36 7.19 6.78 7.19 11.84h-.5ZM22.69 16.82c-3.52 2.26-6.94 6.5-6.94 11.36h-.5c0-5.06 3.53-9.48 7.19-11.84l.25.48Z" fill="#E9C27F"/><path d="M21 27.9c0-3.8 1.56-7.51 3.6-9.44l.4.22c-1.92 1.82-3.59 5.58-3.59 9.22 0 3.38 1.86 7.53 3.59 9.41l-.54.21C22.66 35.57 21 31.48 21 27.9Z" fill="#757575"/><path d="M28 42.24S29.8 40 32.04 40l-1.07 1.84 3.03.6s-.99.6-2.74.56c-.9-.03-2-.22-3.26-.76Z" fill="url(#at441o3ph)"/><path d="M32 40.87s1.62-2.4 4.22-2.87l-.93 1.9 3.71-.1s-.93.73-2.98 1.05a14.5 14.5 0 0 1-4.02.02Z" fill="url(#bt441o3ph)"/><path d="M36 39s.18-1.42.76-2.82c.34-.84.83-1.66 1.51-2.18l.08 2.7L41 35.49s-.47 1.53-1.92 2.56c-.75.53-1.69.65-3.08.95Z" fill="url(#ct441o3ph)"/><path d="M40.28 35S40 33.74 40 32.36c0-.82.1-1.69.41-2.36l.8 2.24 1.79-1.5s-.05 1.06-.74 2.44c-.35.7-1.13 1.08-1.98 1.82Z" fill="url(#dt441o3ph)"/><path d="M41.73 31s-.38-.9-.6-1.95a5.22 5.22 0 0 1-.07-1.93l.9 1.5L42.97 27s.13.83-.14 2.07c-.14.64-.62 1.13-1.1 1.93Z" fill="url(#et441o3ph)"/><path d="M40.1 23s2.74 1.2 1.64 4c0 0-2.23-1.2-1.64-4Z" fill="url(#ft441o3ph)"/><path d="M28 42.24S26.2 40 23.96 40l1.07 1.84-3.03.6s.99.6 2.74.56c.9-.03 2-.22 3.26-.76Z" fill="url(#gt441o3ph)"/><path d="M24 40.87s-1.4-2.4-3.62-2.87l.8 1.9-3.18-.1s.8.73 2.55 1.05c.9.17 2.04.22 3.45.02Z" fill="url(#ht441o3ph)"/><path d="M19 39s-.14-1.42-.6-2.82A5.4 5.4 0 0 0 17.17 34l-.06 2.7L15 35.49s.38 1.53 1.54 2.56c.6.53 1.35.65 2.46.95Z" fill="url(#it441o3ph)"/><path d="M15.72 35s.28-1.26.28-2.64c0-.82-.1-1.69-.41-2.36l-.8 2.24-1.79-1.5s.05 1.06.74 2.44c.35.7 1.13 1.08 1.98 1.82Z" fill="url(#jt441o3ph)"/><path d="M14.47 31.19s.41-.95.64-2.08c.13-.67.2-1.4.08-2.04l-.96 1.6-1.07-1.73s-.14.88.15 2.2c.14.67.65 1.2 1.16 2.05Z" fill="url(#kt441o3ph)"/><path d="M15.9 23s-2.74 1.2-1.64 4c0 0 2.23-1.2 1.64-4Z" fill="url(#lt441o3ph)"/><path d="M27.47 21.63a2.66 2.66 0 1 1 0 5.3 2.66 2.66 0 0 1 0-5.3ZM31.19 28a2.13 2.13 0 1 1 0 4.25 2.13 2.13 0 0 1 0-4.25Z" fill="#F0F3FA"/><path d="M26.94 35.34c-.08 0-.64.1-.64.1a22.07 22.07 0 0 1 0-8.5l.64.11a21.5 21.5 0 0 0 0 8.28Z" fill="#974923"/><path d="M23.75 25.3s1.2 4.04 5.63 2.24c4.43-1.8 2.41-1.02 2.41-1.02l-2-.15-1.01-2.62s-2.7 2.69-5.03 1.55ZM26.94 35.44l-.58-.02a4.76 4.76 0 0 1 3.56-4.23l.2.42a4.3 4.3 0 0 0-3.18 3.83Z" fill="#974923"/><path d="M29.35 29.06s-.15 1.86 2.98 1.23c0 0-1.57 1.17-.98 2.98 0 0-3.25-1.06-2-4.2Z" fill="#974923"/><defs><linearGradient id="at441o3ph" x1="28" y1="42" x2="34" y2="42" gradientUnits="userSpaceOnUse"><stop stop-color="#D17630"/><stop offset=".46" stop-color="#F7A51B"/><stop offset="1" stop-color="#D37C36"/></linearGradient><linearGradient id="bt441o3ph" x1="32" y1="40" x2="39" y2="40" gradientUnits="userSpaceOnUse"><stop stop-color="#D17630"/><stop offset=".46" stop-color="#F7A51B"/><stop offset="1" stop-color="#D37C36"/></linearGradient><linearGradient id="ct441o3ph" x1="36" y1="37.33" x2="41" y2="37.33" gradientUnits="userSpaceOnUse"><stop stop-color="#D17630"/><stop offset=".46" stop-color="#F7A51B"/><stop offset="1" stop-color="#D37C36"/></linearGradient><linearGradient id="dt441o3ph" x1="42.5" y1="30" x2="42.5" y2="35" gradientUnits="userSpaceOnUse"><stop stop-color="#D17630"/><stop offset=".46" stop-color="#F7A51B"/><stop offset="1" stop-color="#D37C36"/></linearGradient><linearGradient id="et441o3ph" x1="42.67" y1="27" x2="42.67" y2="31" gradientUnits="userSpaceOnUse"><stop stop-color="#D17630"/><stop offset=".46" stop-color="#F7A51B"/><stop offset="1" stop-color="#D37C36"/></linearGradient><linearGradient id="ft441o3ph" x1="41.67" y1="23" x2="41.67" y2="27" gradientUnits="userSpaceOnUse"><stop stop-color="#D17630"/><stop offset=".46" stop-color="#F7A51B"/><stop offset="1" stop-color="#D37C36"/></linearGradient><linearGradient id="gt441o3ph" x1="22" y1="42" x2="28" y2="42" gradientUnits="userSpaceOnUse"><stop stop-color="#D17630"/><stop offset=".46" stop-color="#F7A51B"/><stop offset="1" stop-color="#D37C36"/></linearGradient><linearGradient id="ht441o3ph" x1="18" y1="40" x2="24" y2="40" gradientUnits="userSpaceOnUse"><stop stop-color="#D17630"/><stop offset=".46" stop-color="#F7A51B"/><stop offset="1" stop-color="#D37C36"/></linearGradient><linearGradient id="it441o3ph" x1="15" y1="37.33" x2="19" y2="37.33" gradientUnits="userSpaceOnUse"><stop stop-color="#D17630"/><stop offset=".46" stop-color="#F7A51B"/><stop offset="1" stop-color="#D37C36"/></linearGradient><linearGradient id="jt441o3ph" x1="15.5" y1="30" x2="15.5" y2="35" gradientUnits="userSpaceOnUse"><stop stop-color="#D17630"/><stop offset=".46" stop-color="#F7A51B"/><stop offset="1" stop-color="#D37C36"/></linearGradient><linearGradient id="kt441o3ph" x1="14.9" y1="26.94" x2="14.9" y2="31.19" gradientUnits="userSpaceOnUse"><stop stop-color="#D17630"/><stop offset=".46" stop-color="#F7A51B"/><stop offset="1" stop-color="#D37C36"/></linearGradient><linearGradient id="lt441o3ph" x1="15.67" y1="23" x2="15.67" y2="27" gradientUnits="userSpaceOnUse"><stop stop-color="#D17630"/><stop offset=".46" stop-color="#F7A51B"/><stop offset="1" stop-color="#D37C36"/></linearGradient></defs></svg>