<!-- by TradingView --><svg width="56" height="56" viewBox="0 0 56 56" xmlns="http://www.w3.org/2000/svg"><path fill="#F0F3FA" d="M0 0h56v56H0z"/><path d="M36 13H13v2h23v-2Z" fill="#005C24"/><path d="M13 13h2v4l-2 1.5V13Z" fill="#005C24"/><path d="M20 23h2v-1.48c0-2.49-2.23-4.52-4.95-4.52h-3.09c-.53 0-.96.4-.96.88v3.01C13 19.3 14.3 18 15.87 18h.4c2.05 0 3.73 1.7 3.73 3.76V23Z" fill="#005C24"/><path d="M16 23h3v-.99A2.97 2.97 0 0 0 16.08 19h-.13A3 3 0 0 0 13 22.04v.82c0 .07.06.14.14.14H16Zm0 0a1 1 0 1 1 0-2 1 1 0 0 1 0 2ZM25 20h-1v4h1v-4Z" fill="#005C24"/><path d="M13 25h12v-2H13v2Z" fill="#005C24"/><path d="M17 24h2v5h-2v-5ZM21 26a1 1 0 1 1 0 2 1 1 0 0 1 0-2ZM24 26a1 1 0 1 1 0 2 1 1 0 0 1 0-2ZM38 13a1 1 0 1 1 0 2 1 1 0 0 1 0-2ZM26 23h7v2h-7v-2Z" fill="#005C24"/><path d="m33 23-2.36-3h-1.93s-.71.33-.71.88v.45h2L32.38 24l.62-1Z" fill="#005C24"/><path fill-rule="evenodd" d="M38.5 18c0-4.3 4.5-5 4.5-5v10h-2v-5h-2.5Zm1.5-1c0-1.55 1-2 1-2v2h-1Z" fill="#005C24"/><path d="M37 23h3v-.99c0-1.66-1.25-3.01-2.77-3.01h-.43c-1.54 0-2.8 1.37-2.8 3.04V23c0 .05.02.04.06.02a.19.19 0 0 1 .07-.02H37Zm0 0a1 1 0 1 1 0-2 1 1 0 0 1 0 2Z" fill="#005C24"/><path d="M34 25h9v-2h-9v2Z" fill="#005C24"/><path d="M38 24h2v5h-2v-5ZM17 37c.62 5.6 5.31 10 10.96 10h1.08c5.65 0 10.34-4.4 10.96-10h-2a9.6 9.6 0 0 1-9.5 8 9.6 9.6 0 0 1-9.5-8h-2Z" fill="#005C24"/><path d="M29.37 31H14v2h2v1h-2v3h-1v-7h17v.3c0 .39-.28.7-.63.7ZM33 32v5h-1v-5h1Zm0-2v1h-1v-1h1Z" fill="#CA1621"/><path fill-rule="evenodd" d="M40.5 37c1.47 0 2.5-1.02 2.5-2.5a2.4 2.4 0 0 0-2.5-2.5 2.4 2.4 0 0 0-2.5 2.5c0 1.48 1.03 2.5 2.5 2.5Zm0-1a1.5 1.5 0 1 0 0-3 1.5 1.5 0 0 0 0 3ZM24.5 37c1.47 0 2.5-1.02 2.5-2.5a2.4 2.4 0 0 0-2.5-2.5 2.4 2.4 0 0 0-2.5 2.5c0 1.48 1.03 2.5 2.5 2.5Zm0-1a1.5 1.5 0 1 0 0-3 1.5 1.5 0 0 0 0 3Z" fill="#CA1621"/><path fill-rule="evenodd" d="M19.5 37c1.47 0 2.5-1.02 2.5-2.5a2.4 2.4 0 0 0-2.5-2.5 2.4 2.4 0 0 0-2.5 2.5c0 1.48 1.03 2.5 2.5 2.5Zm0-1a1.5 1.5 0 1 0 0-3 1.5 1.5 0 0 0 0 3ZM32 34.42V30h-1v2.65c-.3-.42-.66-.65-1.5-.65-2 0-2.5 1.3-2.5 2.5 0 1.08.63 2.5 2.5 2.5 1.03 0 2.5-.5 2.5-2.58ZM29.5 36a1.5 1.5 0 1 0 0-3 1.5 1.5 0 0 0 0 3Z" fill="#CA1621"/><path d="M36.91 34H38c-.16-1.32-1.2-2-2.44-2-1.54 0-2.56 1.03-2.56 2.57C33 36.1 34.05 37 35.54 37c1.13 0 2.35-.78 2.46-2h-1.09a1.5 1.5 0 0 1-2.91-.46v-.04c0-.07 0-.15.02-.22.06-.52.33-.88.72-1.07a1.5 1.5 0 0 1 2.18.8Z" fill="#CA1621"/></svg>