<!-- by TradingView --><svg width="56" height="56" viewBox="0 0 56 56" xmlns="http://www.w3.org/2000/svg"><path fill="url(#amicksqeo)" d="M0 0h56v56H0z"/><path d="M35.88 42.4c1.9 1.9 1.88 2.6 5 2.6.52-2.96-.74-3.69-1.04-4.14-1.58-2.33-7.73-9-9.88-11.18-1.3-1.31-1.97-1.93-1.96-2.49 0-.05 0-.1.02-.14.08-.38.48-.76 1.22-1.35l7.53-6.3c.57-.64 2.2-2.05 2.23-3.09a.86.86 0 0 0-.06-.35c-.54-.6-.73-.94-1.86-.96-1.44-.03-5.42 4.46-7.4 5.98-.78.56-3.76 3.11-4.47 3.02-.96-.38-.56-1-1.85-1-.86 0-2.38.09-2.36 1.14.02 1.08 1.05 1.84 1 2.91-.45.35-.87.95-1.21.95-.5 0-.82-.84-.79-2.07.06-2.8.22-4.5 1.2-7.07.37-1 .81-1.96.78-2.69-.03-.63-.4-1.09-1.48-1.14-.21-.02-.45-.03-.7-.03-.47 0-.97.05-1.29.26-1.42.94-1.85 4.9-2.14 6.54-.22 1.27-.43 4.2-.35 7.19.1 3.64.63 7.62 2.1 8.52a3.2 3.2 0 0 0 1.52.49c.65.03 1.25-.17 1.78-.56.45-.73-.4-3.66-.42-4.2 0-1.24.58-1.43 1.81-2.52.92-.8 1.41-1.14 1.79-1.14.6 0 .9.86 2.08 2.08 3.3 3.38 5.38 6.1 9.2 10.73Z" fill="#F0F3FA"/><defs><linearGradient id="amicksqeo" x1="28" y1="0" x2="28" y2="56" gradientUnits="userSpaceOnUse"><stop stop-color="#860B03"/><stop offset="1" stop-color="#F81004"/></linearGradient></defs></svg>