<!-- by TradingView --><svg width="56" height="56" viewBox="0 0 56 56" xmlns="http://www.w3.org/2000/svg"><path fill="url(#azy0gx335)" d="M0 0h56v56H0z"/><path fill-rule="evenodd" d="M14.43 41h28.03c.3 0 .54-.21.54-.51V15.55c0-.3-.24-.55-.54-.55H13.55c-.3 0-.55.26-.55.55v19.96c0 .3.25.49.55.49H17v-1h1v1h2v-4h1v4h3v-1h1v1h4v-1h1v1h1v-1h1v1h1.47c.3 0 .53-.2.53-.49v-1l1-.25V37H13.33c-.73 0-1.33-.58-1.33-1.32V15.34c0-.74.6-1.34 1.33-1.34h29.34c.73 0 1.33.6 1.33 1.34v25.32c0 .74-.6 1.34-1.33 1.34H15.76c-.74 0-1.33-.17-1.33-.91V41ZM15 17v-1h1v1h-1Zm2-1v1h1v-1h-1Zm2 2v3h1.26a2.1 2.1 0 0 1-.26-1c0-1.1.88-2 1.74-2H23v1h-1.12c-.57 0-.86.58-.86.98 0 .39.3 1.02.86 1.02H23v1h-7.06c-1.07 0-1.94-.9-1.94-2s.87-2 1.95-2H19Zm-1 3v-2h-1.93c-.59 0-1.07.45-1.07 1s.48 1 1.07 1H18Zm1-5h16.39c.9 0 1.63.68 1.63 1.51V20H38v-2.49c0-.97.7-1.51 1.75-1.51H42v4.23c0 .98-.85 1.77-1.9 1.77H38v-1h-2v1h-1v-1h1v-2h-1.42c-.3 0-.58.22-.58.5v2.97c0 .3.28.53.58.53H42v1h-7.41c-.88 0-1.6-.7-1.6-1.57v-.44H32v.18c0 1-.82 1.83-1.85 1.83H28v-2H27v.43c0 .87-.68 1.57-1.56 1.57H14v-1h11.34c.3 0 .66-.35.66-.64V22h-.26c-1.07 0-1.74-.95-1.74-2s.67-2 1.74-2H27v3h1.01v-1.43c0-.87.72-1.57 1.6-1.57H32v3h1v-1.23c0-.87.32-1.77 1.59-1.77H36v-.26c0-.42-.56-.74-1.01-.74H19v-1Zm20 5h.51c1.1.1 1.49-.41 1.49-.92V17h-.51c-1.19 0-1.49.41-1.49.92V21Zm-9.09 2H29v-3.1c0-.5.41-.9 1.2-.9h.8v3.1c0 .5-.3.9-1.09.9Zm-4.37-2H26v-2h-.46c-.3 0-.54.45-.54 1s.24 1 .54 1ZM14 27h1v2.48c0 .31.26.52.57.52H22v-4h1v5h-7.09A1.93 1.93 0 0 1 14 29.05V27Zm4 0h-1v1h1v-1Zm1 0h1v1h-1v-1Zm5 4v-6h1v5h6v-1.44c0-.3-.23-.56-.53-.56H27v-1.15c0-1.18.63-1.85 1.82-1.85H42v1H28.55c-.3 0-.55.3-.55.6v.4h2.07c1.05 0 1.93.22 1.93 1.26V31h-8Zm-10 1h5v1h-5v-1Zm8 0v1h10.63c.71 0 1.37-.29 1.37-1h6.6c.74 0 1.4-.62 1.4-1.36V29h-1v1.48a.5.5 0 0 1-.52.52H40v-2h-1v1.48c0 .3-.2.52-.5.52H38v-2h-1v2h-3v-3h-1v4H22Zm16-5h-1v1h1v-1Zm1 0h1v1h-1v-1Zm3 0h-1v1h1v-1Zm-4 13v-1h-1.14c-.27.62-.89 1-1.65 1H25v-1h10.22c.44 0 .78-.42.78-.87V34h1v4h1v-2.32c0-.93.81-1.68 1.81-1.68H42v4.32c0 .93-.81 1.68-1.81 1.68H38Zm1-1v-3.08c0-.5.6-.92 1.32-.92H41v3.08c0 .5-.6.92-1.32.92H39Zm-24 0h1v1h-1v-1Zm7 0h-1v1h1v-1Zm-5 0h1v1h-1v-1Zm7 0h-1v1h1v-1Z" fill="#CF9C54"/><defs><linearGradient id="azy0gx335" x1="10.42" y1="9.71" x2="68.15" y2="76.02" gradientUnits="userSpaceOnUse"><stop stop-color="#1A1E21"/><stop offset="1" stop-color="#06060A"/></linearGradient></defs></svg>