<!-- by TradingView --><svg width="56" height="56" viewBox="0 0 56 56" xmlns="http://www.w3.org/2000/svg"><path fill="#F0F3FA" d="M0 0h56v56H0z"/><path d="M35 9h1v37h-1V9Z" fill="#2B2A29"/><path d="M34 39h3v1h-3v-1ZM35.5 41a1.5 1.5 0 1 1 0 3c-.86 0-1.5-.64-1.5-1.5 0-.8.64-1.5 1.5-1.5ZM39 44s-1.65.33-2.76 1.17l-.71-.61h-.06l-.7.6A8.05 8.05 0 0 0 32 44c2.35 2.17 3.53 4 3.53 4s1.12-1.78 3.47-4ZM26 41h1v4h-1v-4ZM23 41h2v4h-2v-4Z" fill="#2B2A29"/><path d="M23 44v-2h4v2h-4ZM23 48a1 1 0 0 0 1-1 1 1 0 0 0-1-1 1 1 0 0 0-1 1c.04.56.48 1 1 1Z" fill="#2B2A29"/><path d="M22 47V24h2v23h-2Z" fill="#2B2A29"/><path d="M21.51 37h2.98a.5.5 0 0 1 .51.5.5.5 0 0 1-.51.5H21.5a.5.5 0 0 1-.51-.5c0-.28.23-.5.51-.5ZM21.51 26h2.98a.5.5 0 0 1 .51.5.5.5 0 0 1-.51.5H21.5a.5.5 0 0 1-.51-.5c0-.28.23-.5.51-.5ZM18.4 22h9.2c.23 0 .4.22.4.5s-.17.5-.4.5h-9.2c-.23 0-.4-.22-.4-.5.04-.28.22-.5.4-.5Z" fill="#2B2A29"/><path d="M19 21h8v3h-8v-3Z" fill="#2B2A29"/><path d="M20 23h6v2h-6v-2ZM22.5 18S21 16.97 21 14h4s0 3-1.5 4l.5 3h2v-2l3 2-.66-9.24s0-.76-.84-.76-1.84 1-2.85 1S24 9.5 24 9c0-.43-.58-1-1.11-1-.17 0-.84.31-.75.4l-.79.04L21 9s1-.34 1 0-.3 2.96-.82 3c-.58.04-1.68-1-2.55-1-.63 0-1.19.93-1.19 1.15 0 .21-.44 8.85-.44 8.85l3-2v2h2l.5-3Z" fill="#2B2A29"/><path d="M22 14h2v4h-2v-4Z" fill="#2B2A29"/></svg>