<!-- by TradingView --><svg width="56" height="56" viewBox="0 0 56 56" xmlns="http://www.w3.org/2000/svg"><path fill="#F0F3FA" d="M0 0h56v56H0z"/><path fill-rule="evenodd" d="M27 41h-9a6 6 0 0 1-6-6v-9h9a6 6 0 0 1 6 6v9Zm-2-2h-7a4 4 0 0 1-4-4v-7h7a4 4 0 0 1 4 4v7Z" fill="#6FC6B2"/><path d="M24.71 40.64 17 31.62l9.15 7.1v1.3l-1.43.62ZM38 41h-9v-9a6 6 0 0 1 6-6h9v9a6 6 0 0 1-6 6Zm-7-3.31 7.97-6.07L32.53 39H38a4 4 0 0 0 4-4v-7h-7a4 4 0 0 0-4 4v5.69ZM19.34 25h2.2c-.89-1.47-.68-4.39.63-5.65l5.85-5.31 5.81 5.28c1.32 1.27 1.52 4.2.61 5.68h2.2c.77-2.04.3-5.41-1.4-7.05L28.03 11l-7.27 7c-1.68 1.62-2.15 4.97-1.4 7Z" fill="#6FC6B2"/><path d="M27 26.44 28.02 28l.98-1.56-.98-7.44L27 26.44Z" fill="#6FC6B2"/></svg>