<!-- by TradingView --><svg width="56" height="56" viewBox="0 0 56 56" xmlns="http://www.w3.org/2000/svg"><path fill="#F0F3FA" d="M0 0h56v56H0z"/><path d="M17 34.08V12h22v32h-2.54c-1.62-.61-3.46-1.76-3.46-3.47 0-1.58.49-2.48 1.23-3.85.59-1.08 1.33-2.44 2.11-4.65 1.43-4.02-.05-9.39-.97-11.57C34.85 18.3 33.1 14 30.35 14c-3.43 0-3.43 2.68-3.43 3.11 0 .44.52 1.4 1.7 2.18 1.16.78 1.73 1.17 1.73 1.78 0 .49-1.47 1.15-2.2 1.41-1.97.66-6.36 2.84-8.23 6.3-.26.51-.88 1.82-1.2 2.91-.35 1.24-1 2.22-1.72 2.39ZM17 36v8h3v-8h-3Zm5 8h3v-8h-3v8Zm5 0h3v-5.54c0-1.92-1.9-2.46-3-2.46v8Z" fill="#0096D1"/></svg>