<!-- by TradingView --><svg width="56" height="56" viewBox="0 0 56 56" xmlns="http://www.w3.org/2000/svg"><path fill="#F0F3FA" d="M0 0h56v56H0z"/><path d="M10.81 23.92c-1.45-2.6.97-2.93 2.37-2.77-4.4-1.24-3.98 1.96-3.28 3.5.7 1.54 3.86 4.48 6.88 6.7 3.03 2.22 4.8 2.22 5.68 1.5.7-.59.5-2.01.33-2.65-.08 2.05-1.99 2.22-3.56 1.58-1.58-.64-6.6-4.61-8.42-7.86Z" fill="#0A6AE5"/><path d="M21.59 15.17c-1.53.2-4.84 4.84-6.3 7.13l8.33-6.14c-.04-.42-.5-1.2-2.03-.99Z" fill="#FD3A50"/><path d="M12.78 28.84a17 17 0 0 1-.8-.55l-2.04 3.04 2.84-2.49ZM15.98 26.48 14.6 25.4c6.63-5.68 13.56-9.3 16.2-10.4l-.98 4.22c-2.44.58-10.25 5.08-13.85 7.26Z" fill="#104448"/><path d="M13.6 29.7c-1.26 1-4.26 4.68-5.6 6.4.07-.08 5.39-4.34 7.38-5.06a6.42 6.42 0 0 1-1.78-1.34ZM18.73 29.3l-2.15-1.78c7.09-4.66 18.09-8.12 22.7-9.27l-1.9 6.3c-5.68.35-14.8 3.31-18.65 4.75Z" fill="#181774"/><path fill-rule="evenodd" d="m25.49 37 2.89-9h3.9l-.5 4.62L35.44 28h3.4l-2.92 9h-2.49l2.01-5.14L31.77 37H30v-5.14L27.58 37h-2.1Zm15.2-9-3 9h2.78l1.02-3h2.4c2.56 0 4.11-3.19 4.11-4.6 0-1.15-1.34-1.41-2.01-1.4h-5.3Zm2.19 2-.54 2c1.16 0 2.57-.2 2.57-1.15 0-.76-1.35-.88-2.03-.84Z" fill="#181774"/></svg>