<!-- by TradingView --><svg width="56" height="56" viewBox="0 0 56 56" xmlns="http://www.w3.org/2000/svg"><path fill="#F0F3FA" d="M0 0h56v56H0z"/><path d="M48 24c.07-.13-.2-3.05 2.96-4 .02 0 .54 3.16-2.96 4Z" fill="url(#ahh3vjpdt)"/><path d="M47 24c-.14-.07-3.04.21-4-2.97.02 0 3.15-.54 4 2.97Z" fill="url(#bhh3vjpdt)"/><path d="M48 25c.14.07 3.04-.21 4 2.97-.02 0-3.15.54-4-2.97Z" fill="url(#chh3vjpdt)"/><path d="M47.68 23c-.03-.1-1.19-1.2-.42-3 0-.02 1.34 1.1.42 3Z" fill="url(#dhh3vjpdt)"/><path d="M49 24.65c.1-.03 1.23-1.17 3-.36 0 0-1.14 1.32-3 .36Z" fill="url(#ehh3vjpdt)"/><path fill-rule="evenodd" d="M48 29.5a4.5 4.5 0 1 0-9 0 4.5 4.5 0 0 0 9 0Zm-2 0a2.5 2.5 0 0 0-2.5-2.5 2.52 2.52 0 0 0-2.5 2.5 2.5 2.5 0 0 0 2.5 2.5 2.5 2.5 0 0 0 2.5-2.5Z" fill="#1E4B6F"/><path d="M3.5 25H6l2 2.5 2-2.5h2.5l-.5.5v8l.5.5h-3l.5-.5V29l-2 2.5L6 29v4.5l.5.5h-3l.5-.5v-8l-.5-.5Z" fill="#1E4B6F"/><path fill-rule="evenodd" d="M22 29.5a4.5 4.5 0 1 0-9 0 4.5 4.5 0 0 0 9 0Zm-2 0a2.5 2.5 0 0 0-2.5-2.5 2.52 2.52 0 0 0-2.5 2.5 2.5 2.5 0 0 0 2.5 2.5 2.5 2.5 0 0 0 2.5-2.5Z" fill="#1E4B6F"/><path d="M38.02 32.31A4.49 4.49 0 0 1 30 29.5a4.52 4.52 0 0 1 8.02-2.8l-1.75 1.04A2.5 2.5 0 1 0 34.5 32c.7 0 1.32-.28 1.78-.73l1.74 1.04Z" fill="#1E4B6F"/><path fill-rule="evenodd" d="M22.5 25h3.28c1.77 0 3.22 1.33 3.22 2.98 0 1.67-1.47 3.02-3.25 3.02H25v2.5l.5.5h-3l.5-.5v-8l-.5-.5Zm2.5 2h.92c.6 0 1.08.45 1.08 1s-.48 1-1.08 1H25v-2Z" fill="#1E4B6F"/><defs><linearGradient id="ahh3vjpdt" x1="48" y1="24" x2="51.38" y2="24" gradientUnits="userSpaceOnUse"><stop stop-color="#AEC71D"/><stop offset="1" stop-color="#849830"/></linearGradient><linearGradient id="bhh3vjpdt" x1="43" y1="24" x2="47.5" y2="24" gradientUnits="userSpaceOnUse"><stop stop-color="#AEC71D"/><stop offset="1" stop-color="#849830"/></linearGradient><linearGradient id="chh3vjpdt" x1="48" y1="28" x2="52.5" y2="28" gradientUnits="userSpaceOnUse"><stop stop-color="#AEC71D"/><stop offset="1" stop-color="#849830"/></linearGradient><linearGradient id="dhh3vjpdt" x1="47" y1="23" x2="48.13" y2="23" gradientUnits="userSpaceOnUse"><stop stop-color="#AEC71D"/><stop offset="1" stop-color="#849830"/></linearGradient><linearGradient id="ehh3vjpdt" x1="49" y1="25" x2="52.38" y2="25" gradientUnits="userSpaceOnUse"><stop stop-color="#AEC71D"/><stop offset="1" stop-color="#849830"/></linearGradient></defs></svg>