<!-- by TradingView --><svg width="56" height="56" viewBox="0 0 56 56" xmlns="http://www.w3.org/2000/svg"><path fill="#F0F3FA" d="M0 0h56v56H0z"/><path d="M19.39 26H17V11h22v15h-1.56c-.33-3.72-2.6-11-9.03-11-6.42 0-8.7 7.28-9.02 11Z" fill="#389F12"/><path d="M19.39 29H17v16h22V29h-1.56c-.33 3.97-3.02 12-9.44 12s-8.28-8.03-8.61-12Z" fill="#FF9600"/><path fill-rule="evenodd" d="m31.95 32.84 2.05.7L32 23h-7l-2 10.55 1.84-.71L26.83 34l1.69-1.16L30.08 34l1.87-1.16Zm-1.86.8 1.82-1.13 1.7.59-1.8-9.8h-6.56l-1.82 9.76 1.43-.55 1.96 1.14 1.7-1.18 1.57 1.17Z"/><path fill-rule="evenodd" d="M29 25.67a.67.67 0 1 0 0-1.34.67.67 0 0 0 0 1.34Zm0 .33a1 1 0 1 0 0-2 1 1 0 0 0 0 2Z"/><path d="m33.35 28-.15-2 1.83 2h-1.68Z"/><path d="M25 22v-3h1v1.5h2V19h1v1.5h2V19h1v3h-7Z" fill="#FF2C2C"/></svg>