<!-- by TradingView --><svg width="56" height="56" viewBox="0 0 56 56" xmlns="http://www.w3.org/2000/svg"><path fill="#F0F3FA" d="M0 0h56v56H0z"/><path d="M35.5 31H21.9l1.2 3.48 9.95.52 2.45-4Z" fill="url(#arn5mpgts)"/><path d="M27.02 32.38c-.54 0-.98-.26-1.13-.39.38 1.11 1.51 1.1 1.9.8.37-.3.37.2.76.56.32.3.47-.25.5-.56.04.05.24.16.78.2.53.02.33-.4.17-.6.16.02.55.06.8 0 .33-.1-.03-.64-.53-.86-.4-.16-.52.24-.53.46-.17-.15-.58-.43-.9-.35-.3.09-.12.44 0 .6a1.8 1.8 0 0 0-.85-.25c-.47 0-.28.4-.96.4Z" fill="url(#brn5mpgts)"/><path fill-rule="evenodd" d="M28 45.59a17.58 17.58 0 1 0 0-35.17 17.58 17.58 0 0 0 0 35.16Zm0 .41a18 18 0 1 0 0-36 18 18 0 0 0 0 36Z" fill="#520C6C"/><path fill-rule="evenodd" d="M15.39 27.76V28h6.2v-.24A6.45 6.45 0 0 1 28 21.27 6.45 6.45 0 0 1 34.4 28h6.21v-.24C40.61 20.71 34.97 15 28 15a12.69 12.69 0 0 0-12.61 12.76Zm7.37 0V28h10.47v-.24c0-2.92-2.34-5.3-5.23-5.3a5.27 5.27 0 0 0-5.24 5.3ZM19.03 27c0-1.25.74-3.34 2.3-5.11a9.04 9.04 0 0 1 6.94-3.17 8.28 8.28 0 0 1 6.67 3.18A9.02 9.02 0 0 1 37 27h1.17c0-1.53-.74-3.88-2.32-5.85a9.45 9.45 0 0 0-7.58-3.62c-3.49 0-6.1 1.6-7.82 3.57-1.7 1.94-2.6 4.3-2.6 5.9h1.18Z" fill="#FEF200"/><path d="M17.3 27.38c0-1.54.68-4.07 2.44-6.21 1.75-2.12 4.57-3.87 8.87-3.87 3.4 0 5.99 1.68 7.73 3.8 1.76 2.14 2.63 4.67 2.63 6.28h.78c0-1.83-.96-4.53-2.8-6.77a10.65 10.65 0 0 0-8.34-4.1c-4.54 0-7.58 1.86-9.47 4.16a11.31 11.31 0 0 0-2.63 6.71h.79Zm3.38 0c0-1.04.46-2.77 1.68-4.23 1.2-1.45 3.13-2.64 6.1-2.64a6.8 6.8 0 0 1 5.32 2.6 7.47 7.47 0 0 1 1.8 4.27h.8c0-1.3-.7-3.2-2-4.78a7.58 7.58 0 0 0-5.91-2.88c-3.22 0-5.37 1.3-6.71 2.93a7.93 7.93 0 0 0-1.87 4.73h.79Z" fill="#CD2F00"/><path d="M21.25 30h-5.87c.34 4.34 4.3 11 12.79 11 8.48 0 12.13-7.52 12.44-11h-5.1l-3.17 4h-8l-3.09-4Z" fill="#401E8C"/><path d="M20.93 31h-5.07c1.12 3.12 3.92 9.4 12.27 9.4 7.96 0 10.85-6.28 11.82-9.4H35.9l-3.2 4H24l-3.07-4Z" fill="#E40404"/><path fill-rule="evenodd" d="M28 40.6a12.6 12.6 0 1 0 0-25.2 12.6 12.6 0 0 0 0 25.2Zm0 .4a13 13 0 1 0 0-26 13 13 0 0 0 0 26Z" fill="#520C6C"/><path d="m39.7 35.7 1.58 1.16-.15.21-1.59-1.15.15-.21Zm.69-.95.26 1.2.11.65-.24-.13-.1-.5-.21-.97.18-.25Zm1.44 1.36-1.2.02-.08-.24 1.46-.03-.18.25ZM35.57 41.49l-.32-1.26.15-.09.16.47.32 1.32-.15.09-.16-.53Zm-.96-.9.87.92.36.44-.15.09-1.29-1.33.2-.12Zm1.82.38-.38-1.2.2-.12.54 1.77-.15.08-.21-.53Zm-1-.84.93.9.39.41-.15.09-1-.95-.33-.37.15-.08ZM33.67 42.88l.06.18-.85.31-.06-.18.85-.3Zm-1.36-1.22.62 1.7-.23.08-.61-1.7.22-.08ZM30.34 43.72l.3-1.64.27-.04-.4 1.94-.19.02.02-.28Zm-.74-1.48.77 1.47.11.27-.18.03-.96-1.73.26-.04ZM28.92 42.29l.03 1.85h-.24l-.03-1.85h.24ZM31.57 41.88l.46 1.8-.24.05-.46-1.79.24-.06ZM27.94 43.54h.25a.8.8 0 0 1-.1.32.6.6 0 0 1-.22.23.8.8 0 0 1-.38.1.68.68 0 0 1-.55-.22.83.83 0 0 1-.16-.28c-.03-.1-.06-.22-.06-.36v-.19c-.01-.13 0-.25.03-.36.04-.11.08-.2.15-.28a.68.68 0 0 1 .23-.2c.1-.04.2-.06.32-.06.14 0 .26.01.37.07.1.05.18.12.23.21.06.1.1.2.12.33h-.25a.7.7 0 0 0-.08-.22.35.35 0 0 0-.14-.14.48.48 0 0 0-.24-.05.45.45 0 0 0-.38.2.64.64 0 0 0-.1.22l-.02.27.01.2c0 .09.02.17.04.26a.7.7 0 0 0 .1.2c.04.07.09.12.15.15s.14.05.22.04c.11 0 .2-.02.26-.05.06-.04.1-.1.14-.16a.74.74 0 0 0 .06-.23ZM23.37 42.43l-.04.1a.95.95 0 0 1-.2.27.7.7 0 0 1-.55.2.93.93 0 0 1-.32-.09.93.93 0 0 1-.27-.18.72.72 0 0 1-.2-.55c0-.11.03-.22.08-.34l.04-.1c.06-.1.12-.2.2-.27a.72.72 0 0 1 .55-.2.94.94 0 0 1 .6.28.7.7 0 0 1 .2.55c0 .1-.03.21-.09.33Zm-.28-.02.05-.1a.86.86 0 0 0 .07-.25.51.51 0 0 0-.01-.22.45.45 0 0 0-.1-.18.61.61 0 0 0-.2-.13.6.6 0 0 0-.22-.06c-.07 0-.14 0-.2.03a.54.54 0 0 0-.18.13.83.83 0 0 0-.15.23l-.04.1a.84.84 0 0 0-.08.25c0 .08 0 .16.02.22.02.07.06.13.1.18.05.06.12.1.2.13.07.04.14.06.22.06.07 0 .14 0 .2-.03a.52.52 0 0 0 .18-.13.9.9 0 0 0 .14-.23ZM37.07 39.78l.07.1c.08.1.17.2.27.26a.77.77 0 0 0 .64.1c.11-.03.22-.09.33-.17.1-.08.2-.16.26-.26s.1-.2.12-.3a.8.8 0 0 0-.02-.34 1 1 0 0 0-.16-.34l-.07-.1c-.08-.1-.17-.2-.27-.26a.8.8 0 0 0-.64-.1c-.12.04-.23.1-.33.17-.11.08-.2.16-.26.26a.77.77 0 0 0-.1.64c.03.11.08.23.16.34Zm.3-.08-.06-.1a.95.95 0 0 1-.14-.25.56.56 0 0 1-.03-.24.5.5 0 0 1 .07-.22c.05-.07.1-.13.18-.18a.66.66 0 0 1 .23-.11.51.51 0 0 1 .23-.01.6.6 0 0 1 .22.1c.07.05.14.12.2.21l.07.1c.07.09.11.18.14.26a.53.53 0 0 1-.05.46.66.66 0 0 1-.17.18.68.68 0 0 1-.23.12.48.48 0 0 1-.23 0 .58.58 0 0 1-.22-.1 1 1 0 0 1-.2-.22ZM20.98 40.21l-.94 1.59-.2-.13.93-1.58.21.12Zm.24 1.1-.1.18-.7-.42.1-.17.7.42Zm.53-.64-.1.17-.82-.48.1-.18.82.49ZM18.55 38.3l.43.43c.1.1.17.2.2.3.04.1.05.19.03.28a.56.56 0 0 1-.16.26.49.49 0 0 1-.43.15.64.64 0 0 1-.24-.08l-.06-.03-.4-.4.13-.15.3.3c.07.07.13.11.2.13.06.02.12.02.17 0 .06-.01.11-.04.16-.09a.4.4 0 0 0 .1-.16.28.28 0 0 0 0-.17.5.5 0 0 0-.14-.2l-.25-.25-1.16 1.15-.17-.17 1.3-1.3Zm-.53 2.06.27-.9.18.17-.26.9h-.01l-.18-.17ZM24.2 41.7l.6.15c.13.04.23.09.31.15.08.07.14.15.16.24.03.09.03.2 0 .3a.49.49 0 0 1-.3.34.64.64 0 0 1-.24.05l-.07.01-.55-.14.04-.2.42.11c.08.03.16.03.22.02a.32.32 0 0 0 .16-.09c.04-.04.07-.1.09-.15a.4.4 0 0 0 0-.2.28.28 0 0 0-.09-.14.51.51 0 0 0-.2-.1l-.36-.1-.42 1.58-.24-.07.48-1.77Zm.57 2.04-.22-.92.25.07.22.9v.02l-.25-.07ZM38.17 37.48l.46-.47c.11-.1.22-.18.32-.22a.5.5 0 0 1 .32-.03c.1.03.2.09.29.18.06.06.1.14.14.22.02.08.03.16.02.25a.7.7 0 0 1-.1.25l-.03.08-.44.44-.15-.15.33-.34a.51.51 0 0 0 .13-.2.35.35 0 0 0 .01-.2.43.43 0 0 0-.27-.28.3.3 0 0 0-.2.01.56.56 0 0 0-.21.14l-.28.28 1.26 1.27-.19.19-1.41-1.42Zm2.24.59-.99-.3.2-.2.98.29h.01l-.2.2ZM16.96 38.65a.33.33 0 0 0 .07-.1.22.22 0 0 0 .02-.11.5.5 0 0 0-.04-.15 1.72 1.72 0 0 0-.09-.2 1.82 1.82 0 0 1-.1-.23.82.82 0 0 1-.05-.21c0-.07 0-.13.03-.2a.46.46 0 0 1 .11-.16.47.47 0 0 1 .37-.14c.08 0 .15.02.22.06.07.03.14.08.2.14.1.1.15.2.18.3a.55.55 0 0 1-.14.55l-.17-.17a.4.4 0 0 0 .1-.16.3.3 0 0 0 0-.18.45.45 0 0 0-.12-.2.46.46 0 0 0-.17-.1.28.28 0 0 0-.16-.02.31.31 0 0 0-.2.18.29.29 0 0 0-.01.12l.03.14.09.18c.05.1.09.18.11.26a.7.7 0 0 1 .04.21c0 .07-.01.13-.04.19a.52.52 0 0 1-.11.16.45.45 0 0 1-.38.14.59.59 0 0 1-.21-.06.85.85 0 0 1-.35-.35.7.7 0 0 1-.08-.23.56.56 0 0 1 .02-.24.52.52 0 0 1 .14-.21l.16.16a.33.33 0 0 0-.1.3c0 .04.02.1.05.14a.64.64 0 0 0 .27.25c.06.03.11.03.16.02.06-.01.1-.04.15-.08ZM42.35 33.96a.35.35 0 0 0-.12-.04l-.12.01a.54.54 0 0 0-.14.08l-.18.15-.2.17a.87.87 0 0 1-.21.1.49.49 0 0 1-.2.03.49.49 0 0 1-.2-.07.52.52 0 0 1-.26-.35.62.62 0 0 1 0-.23.79.79 0 0 1 .1-.25.7.7 0 0 1 .25-.27.59.59 0 0 1 .6 0l-.12.22a.43.43 0 0 0-.2-.07.32.32 0 0 0-.18.05.47.47 0 0 0-.16.18.5.5 0 0 0-.08.21c0 .07.01.12.04.17a.33.33 0 0 0 .24.16.3.3 0 0 0 .12-.02.62.62 0 0 0 .14-.08l.16-.14c.08-.07.16-.14.23-.18a.76.76 0 0 1 .21-.1.46.46 0 0 1 .2-.02c.07.01.14.04.2.08.08.04.13.09.18.15.04.06.06.12.08.2l-.01.23a.9.9 0 0 1-.27.46.75.75 0 0 1-.21.14.6.6 0 0 1-.25.04.56.56 0 0 1-.26-.08l.12-.21a.35.35 0 0 0 .33.03c.05-.02.1-.05.14-.1a.68.68 0 0 0 .18-.34.3.3 0 0 0-.02-.18.3.3 0 0 0-.13-.13ZM16.37 36.25l-1.64.39-.18-.23 1.82-.4.11.15-.11.09Zm-.83 1.4.75-1.5.12-.1.11.16-.8 1.68-.18-.23Zm.46-.4-.14.1-.75-.93.15-.12.74.94ZM15.67 34.76l-1.4.92-.17-.25.43-1.69-1.07.72-.17-.25 1.4-.93.16.25-.43 1.69 1.08-.72.17.26ZM27.34 11.79l.06 1.4c.06.12.28.34.71.37l.33.02.23.01a.5.5 0 0 0 .75.05 7.8 7.8 0 0 1 1.53.23l.36.09.37-.97c-.35-.08-1.12-.16-1.41.17l-.76-.08a.5.5 0 0 0-.85-.06l-.67-.03c-.04 0-.13-.12-.15-.45-.01-.33-.05-.68-.06-.82l-.44.07Zm-1.78 1.49-.53.14c.12.3.5.88 1.13.76.63-.13.72-.7.69-.98l-.22-1.4-.47.07.2 1.33c0 .19-.05.57-.3.57-.26 0-.44-.33-.5-.5Zm-9.57 7.61c-.24.13-.6-.27-.73-.5l.2-.33.22.08c.26 0 .11-.6 0-.9.19.08.6.2.81.15.12-.03.13-.15.14-.3.02-.16.03-.35.23-.43.25-.1.16-.46.1-.67-.02-.1-.04-.17-.01-.17h.56l.4-.47c.07-.06-.44-.56-.7-.8l.3-.27 1.13 1.07c-.48.48-1.44 1.5-1.43 1.74.01.24-.23.42-.35.48-.06.02-.18.12-.2.38 0 .26-.28.33-.42.33.02.15 0 .49-.25.61Zm-1.21-.72a.28.28 0 1 0 0-.56.28.28 0 0 0 0 .56Zm2.98-.56a.28.28 0 1 1-.57 0 .28.28 0 0 1 .57 0Zm.19-.38a.28.28 0 1 0 0-.57.28.28 0 0 0 0 .57Zm.98-3.1a.28.28 0 1 1-.57 0 .28.28 0 0 1 .57 0Zm.17-.12a.28.28 0 1 0 0-.57.28.28 0 0 0 0 .57Zm.52-.18-.95.75.26.33c1.36-1 3.23-2.04 4-2.44l-.83-1.48-.46.22.55 1c-.03.02-.15.08-.37.26-.16.13-.35.12-.53.1-.14 0-.27-.01-.37.05-.18.12-.21.35-.2.44l-.54.46-.49-.46-.44.25.37.52Zm3.02-3.06.66 1.46.33-.15-.58-1.46-.41.15Zm9.85-.32c.1.04.44.27.6.38l-.6.9c-.1.14-.24.44 0 .58.24.15.5-.15.6-.31l.7-1.17.42.41-.46.64c-.05.1-.1.32.05.43.14.12.33-.05.4-.15l.54-.87.46.35-.75 1.12c-.1.07-.37.2-.65.11-.3-.09-.36-.26-.36-.33-.25.16-.85.42-1.25.13-.51-.36-.39-.87-.26-1.03.1-.13.42-.85.56-1.19Zm3.06 4c-.2-.17-.6-.53-.66-.56.72-.15 1.06-.52 1.14-.68l.33.32-.15.26.38.3.5-.5 1.95 1.96-.51.42.26.41.8-.65.25.38-.8.6.24.36.99-.69.35.52c-.48.3-1.47.91-1.52.91a16.27 16.27 0 0 0-3.16-3.72l-.4.37Zm3.92 3.63 1.3-.84.34.48-1.4.77-.24-.41Z" fill="#520C6C"/><defs><linearGradient id="arn5mpgts" x1="24.32" y1="31.55" x2="31.05" y2="35.24" gradientUnits="userSpaceOnUse"><stop offset=".33" stop-color="#790C69"/><stop offset="1" stop-color="#E58EDD"/></linearGradient><linearGradient id="brn5mpgts" x1="29.55" y1="33.32" x2="29.69" y2="31.69" gradientUnits="userSpaceOnUse"><stop stop-color="#3A7CD3"/><stop offset="1" stop-color="#E3F7FE"/></linearGradient></defs></svg>