<!-- by TradingView --><svg width="56" height="56" viewBox="0 0 56 56" xmlns="http://www.w3.org/2000/svg"><path fill="#F0F3FA" d="M0 0h56v56H0z"/><path d="M6 33.83V20.62L12.33 18h3.8l1.41 1.87 5.37-.98 3.59.38V20h1.6l1.12-.62 9.08 1.43.73 1.01 2.08-.83 2.82.32v1.44l3.92-.93 2.15.6V34h-3.4v-1h-3.05v1.48l-2 .32-1.73-.32H38.5v.6l-9.19 1.02-2.81-.7v1.1h-3.59l-6.41-2.26V38h-3.9L6 33.83Z" fill="#35521C"/><path d="M41 34.39v-12.8l2 .21V27h5v-4.63l1.5.41V33.5H48V29h-5v5.15l-2 .24Z" fill="#C7E3AE"/><path d="M13 37.5v-19h3l6.6 11.46h.4V19.43l3 .42V36h-2.83l-6.54-10.37H16V37.5h-3ZM29 35.63V20.05l9 1.37v2.08l-6.5-.3v9.73l6.5-.35v2.07l-9 .98Z" fill="#C8E4AF"/></svg>