<!-- by TradingView --><svg width="56" height="56" viewBox="0 0 56 56" xmlns="http://www.w3.org/2000/svg"><path fill="#F0F3FA" d="M0 0h56v56H0z"/><path fill-rule="evenodd" d="M16 13h24l-1 1.56v18.99c0 1.06-.75 1.45-1.72 1.45h-6.96c-.6.06-1.9.9-2.37 2-.13-.45-.68-1.85-1.87-2h-7.46c-.97 0-1.62-.4-1.62-1.45v-19L16 13Zm12 1H18v10h10V14Zm10 10H28v11c.53-.83 1.63-.96 2.12-1h6.58c.72 0 1.3-.76 1.3-1.5V24Zm-15.5-8.79c-.34 0-.5.23-.5.52v1.38c0 .06-.05.11-.12.11-.28 0-.63.42-.63.68 0 .14.1.27.25.39.14.11.32.2.43.24.05.01.08.05.08.09 0 .04-.02.08-.07.1l-.09.04c-.16.07-.4.18-.47.29a.7.7 0 0 0-.13.32v2.88c0 .3.28.54.63.54h1.24c.35 0 .63-.24.63-.54v-2.88c0-.48-.46-.62-.56-.64-.06-.01-.1-.06-.1-.12 0-.05.06-.1.13-.1.08 0 .21-.02.32-.1.11-.09.21-.24.21-.51 0-.4-.24-.65-.63-.68-.06 0-.11-.05-.11-.1v-1.4c0-.28-.19-.5-.52-.5Zm-.74.52c0-.4.27-.73.73-.73.47 0 .77.33.77.73v1.3c.45.1.74.38.74.87 0 .32-.12.53-.29.66a.77.77 0 0 1-.17.1l.02.02c.17.13.44.35.44.69v2.88c0 .41-.4.75-.88.75h-1.24c-.49 0-.88-.34-.88-.75v-2.88c0-.12.07-.28.17-.43a.88.88 0 0 1 .28-.19l.2-.1c-.11-.06-.22-.12-.32-.2-.17-.13-.33-.32-.33-.55 0-.35.43-.78.76-.87v-1.3Zm10.2 9.9a.49.49 0 0 1-.48.4c-.26 0-.48-.23-.48-.52 0-.28.22-.51.48-.51.23 0 .43.17.47.4.51-.04 1.17-.04 1.74.1.34.09.66.23.9.45s.4.52.41.9v.02c-.02.32-.35.82-1.34.82-.59 0-1.15.05-1.56.2-.42.15-.64.37-.64.7 0 .34.21.55.5.67a2.29 2.29 0 0 0 1.04.14h.05l.23-.02c.2-.02.45-.02.68.01.23.04.46.11.64.28.18.16.3.4.32.75 0 .14-.03.35-.14.52a.66.66 0 0 1-.59.33c-.1 0-.22 0-.35-.02h-.25c-.23-.02-.48-.02-.72.01-.49.07-.95.27-1.22.78a.2.2 0 0 0 .02.19c.05.07.18.15.49.15h.15c.33.01.64.02.9.06.28.05.53.15.67.4.03.04.02.11-.03.14a.1.1 0 0 1-.14-.03c-.1-.16-.27-.25-.54-.3a6.14 6.14 0 0 0-.87-.05h-.14c-.34 0-.54-.1-.65-.23a.42.42 0 0 1-.05-.42c.32-.61.86-.83 1.38-.9.26-.04.53-.03.76-.03l.27.02.32.01c.22 0 .34-.1.42-.23a.8.8 0 0 0 .11-.4c-.02-.28-.11-.47-.25-.59s-.33-.2-.54-.22a2.94 2.94 0 0 0-.64-.02l-.22.02h-.05c-.08.02-.16.02-.22.02-.21 0-.59-.03-.91-.17-.33-.14-.63-.4-.63-.87s.33-.75.77-.9a5.12 5.12 0 0 1 1.63-.21c.91 0 1.12-.45 1.14-.62a1.04 1.04 0 0 0-.35-.75c-.2-.19-.49-.32-.81-.4a5.07 5.07 0 0 0-1.69-.09ZM33.01 14 37 16.28v4.48L33.02 23 29 20.76v-4.48L33.02 14Zm-3.79 2.41v4.22l3.8 2.1 3.74-2.1V16.4l-3.75-2.15-3.79 2.15Zm1.05 3.53v-2.72h.23v2.72h-.23Zm5.14-.33-2.23 1.64.14.18 2.23-1.64-.14-.18Zm.07-2.7-2.42-1.34.11-.2 2.43 1.34-.12.2ZM22.5 32.77c1.76 0 3.2-1.4 3.26-3.13h-6.52a3.27 3.27 0 0 0 3.26 3.13Zm-3.27-3.36h6.54a3.27 3.27 0 0 0-6.54 0ZM22.5 33a3.5 3.5 0 1 0 0-7 3.5 3.5 0 0 0 0 7Z" fill="#313193"/><path d="M15 43v-6h26v6H15Zm3-5v4h1.5v-2.17L21.44 42H23v-4h-1.5v2.14L19.62 38H18Zm7.5 0v4H27v-4h-1.5Zm3.5 0v4h4v-1h-2.5v-3H29Zm5 0v4h4v-1h-2.4v-.5h1.9v-1h-1.9V39H38v-1h-4Z" fill="#313193"/><path d="M14.5 41H11l1.66-2.47L11 36h5v.5h-1.5V41ZM41.5 41H45l-1.66-2.47L45 36h-5v.5h1.5V41Z" fill="#313193"/></svg>