<!-- by TradingView --><svg width="56" height="56" viewBox="0 0 56 56" xmlns="http://www.w3.org/2000/svg"><path fill="#F0F3FA" d="M0 0h56v56H0z"/><path fill-rule="evenodd" d="M19 19.51V19h3.66v.51H19Zm4 .1h-5v8.89h.23v-.25h.46v.22h.26v-.22h.47v.22h1.26V33H21v-8h2v-5.38Zm-2.81 7.55V28h-.51v-.84h.51Zm0-.92v.66h-.51v-.77h.5v.11h.01ZM19.42 28v-.84h-.47V28h.47Zm-.73 0v-.84h-.46V28h.46Zm0-1.1h-.46v-.77h.46v.77Zm.73 0h-.47v-.77h.47v.77Zm1.49-1.03v-.75h-.46v.75h.46Zm-.72 0v-.75h-.51v.75h.5Zm-.77 0v-.75h-.47v.75h.47Zm-.73 0v-.75h-.46v.75h.46Zm0-1h-.46v-.82h.46v.81Zm.73 0h-.47v-.82h.47v.81Zm.77 0h-.51v-.82h.5v.81Zm.72 0h-.46v-.82h.46v.81Zm.82-1.07h-.56v-.82h.56v.82Zm-.82 0h-.46v-.82h.46v.82Zm-.72 0v-.82h-.51v.82h.5Zm-.77 0v-.82h-.47v.82h.47Zm-.73 0v-.82h-.46v.82h.46Zm0-1.07h-.46v-.74h.46v.74Zm.73 0h-.47v-.74h.47v.74Zm.77 0h-.51v-.74h.5v.74Zm.72 0h-.46v-.74h.46v.74Zm.26 0h.56v-.74h-.56v.74Zm.56-1h-.56v-.83h.56v.84Zm.82 0H22v-.83h.56v.84Zm-1.64 0h-.46v-.83h.46v.84Zm-.72 0v-.83h-.51v.84h.5Zm-.77 0v-.83h-.47v.84h.47Zm-.73 0v-.83h-.46v.84h.46Zm0-1.08h-.46v-.78h.46v.78Zm.73 0h-.47v-.78h.47v.78Zm.77 0h-.51v-.78h.5v.78Zm.72 0h-.46v-.78h.46v.78Zm.26 0h.56v-.78h-.56v.78Zm.82 0h.56v-.78H22v.78Zm-.5 4.72h5.03v5.29h-1.79V29.97h-2.98v2.76h.68V33h-.94v-7.63Zm3.5 4.6v.43h1.26v-.43h-1.27Zm0-.26v-.88h1.26v.88h-1.27Zm-.27-.88v.88h-1.34v-.88h1.34Zm-2.97.88h1.37v-.88h-1.37v.88Zm2.97-1.14h-1.34v-.76h1.34v.76Zm-1.6 0v-.76h-1.37v.76h1.37Zm1.6-1.02h-1.34v-.84h1.34v.84Zm-1.6 0v-.84h-1.37v.84h1.37Zm1.6-1.1h-1.34v-.83h1.34v.84Zm-1.6 0v-.83h-1.37v.84h1.37Zm1.86 2.12h1.27v-.76h-1.27v.76Zm0-1.02h1.27v-.84h-1.27v.84Zm0-1.1h1.27v-.83h-1.27v.84ZM15 28.8h5.26v3.99H20v-.54h-.54v.48h-.26v-.48h-.62v.48h-.26v-2.7h-.56v.7h-.26v-.7h-.6v.7h-.26v-.7h-.61v.95h.53v.25h-.53V32h.53v.25h-.53v.4h-.27v-2.61h-.5v1H15V28.8Zm5 3.2h-.54v-.77H20V32Zm0-1.02h-.54v-.94H20v.94Zm-.8 0v-.94h-.62v.94h.62Zm.8-1.2h-.54V29H20v.78Zm-.8 0V29h-.62v.78h.62Zm0 2.22v-.77h-.62V32h.62Zm-.88-3v.78h-.56V29h.56Zm-1.42 0h.6v.78h-.6V29Zm-.26 0v.78h-.61V29h.61Zm-1.38 0h.5v.78h-.5V29ZM27 23.43h3V30h-1.76v-.7h-.37v.7h-.26v-.7h-.23v.7H27v-6.58Zm2.2 1.28h.25v.7h-.25v-.7Zm0 .96h.25v.66h-.25v-.66Zm-1.82 3.38h.23v-.63h-.23v.63Zm.5 0h.55v-.63h-.56v.63Zm1.06-1.52v.63h-.25v-.63h.25Zm-.51 0v.63h-.56v-.63h.56Zm-.82 0v.63h-.23v-.63h.23Zm-.23-.26h.23v-.69h-.23v.7Zm.5 0h.55v-.69h-.56v.7Zm.81 0h.25v-.69h-.25v.7Zm.25-1.6v.66h-.25v-.66h.25Zm-.51 0v.66h-.56v-.66h.56Zm-.82 0v.66h-.23v-.66h.23Zm-.23-.26h.23v-.7h-.23v.7Zm.5 0h.55v-.7h-.56v.7Zm.81 0h.25v-.7h-.25v.7Zm1.05-1.73v.78h-.54v-.78h.54Zm-.8 0v.78h-.25v-.78h.25Zm-.51 0v.78h-.56v-.78h.56Zm-.82 0v.78h-.23v-.78h.23Zm-1.94-.12h-1.29v.77h1.3v-.77Zm-.2-.22h-.82l.37-.39.45.39Zm3.53 7h4v2.37h-1v-1.34h-3v-.24h2.4v-.54H29v-.25Z" fill="#AAA6A2"/><path d="M23 31.55v1.95h2.11l.33-.5H24v-1h1.1l.33.2.34-.53a3.56 3.56 0 0 1 .14-.17c.14-.15.29-.3.29-.5h-3.34v.22l.14.33Zm0 3.7V34h1v1h1.25l.28-.22h.3L25.31 36h-2.45v-.47l.13-.28Zm-10-3.73v1.98h2.13l.33-.5H14v-1h1.55v-1h-2.67v.21l.12.31Zm0 3.73V34h1v1h1.27l.28-.22h.3L15.33 36h-2.45v-.47l.11-.28ZM17 34h1v1.21a8.51 8.51 0 0 0 1.6-.3l.12.13-.51.96h-2.44l.04-.08c.07-.15.19-.4.19-.56V34Zm10-3v2.5h2.28c.24-.09.73-.46.73-1.22s-.73-1.17-1.1-1.28H27Zm1.71 2c-.15-.1-.53-.16-.71-.17V32h.4c.27 0 .51.32.6.48l-.29.52ZM28 34h-1v2h1.83c1.28 0 1.26-1.35 1.09-2h-1l.12.67c-.24.49-.6.64-.76.65l-.28-.25V34Zm2.46-.5.3-1.16c.11-.44.77-1.34 2.45-1.34 1.67 0 2.22 1.67 2.3 2.5h-1.2c-.15-.53-.65-1.59-1.34-1.59-.86 0-1.5.81-1.5 1.59h-1Zm1.11.5h-1.1c.07.67.7 2 2.52 2s2.41-1.33 2.48-2h-1.22c0 .8-.44 1.2-.68 1.2-.23 0-.7-.01-1.04-.13-.27-.09-.75-.75-.96-1.07Zm-11.44.5L20 34h2v.5h-1.87ZM36 31.44l-.05-.44h1.13l-.08.34v2.16h-1v-2.06ZM36 34h1.01c-.04.38.27 1 1.05 1s.99-.62.94-1h1v2h-1v-.33c-.14.11-.74.33-1.47.33-.91 0-1.53-.57-1.53-2Zm4-.5h-1V31h1v2.5Zm.88-2.5h2.19c.35.06.93.46.93 1.58v.06c0 .21-.02.58-.27.86h-1.38c.2-.08.6-.38.6-.92 0-.68-.65-.75-.85-.75-.15 0-.06.94 0 1.42l.12.25H41v-2.1l-.12-.4Zm2.98 3H41v1.37l-.26.44v.2H42v-1.69h.52l.37.52c.36.52.67.97.87 1.16h1.62l-1.52-2Zm-27.12-2.77V31h1.52v.23l-.26.19v2.08h-1v-2.08l-.26-.19Z" fill="#4B439A"/><path fill-rule="evenodd" d="m10.17 16 16.35 1.76v-.21c0-.02.02-.03.03-.03H27v.3l.9.1-.02.24H27v2.33h.97l.03.02v.47l-.03.02h-2.28c-.01 0-.02 0-.02-.02v-.47c0-.01 0-.02.02-.02h.8c.02 0 .03-.01.03-.03v-2.3h-16.2V31.7c1.15.07 2.06 1 2.06 2.15 0 1.14-.91 2.08-2.06 2.14V38h-.26v-2A2.17 2.17 0 0 1 8 33.84c0-1.15.91-2.08 2.06-2.15V18.16h-.77l-.48-.47L10.17 16Zm1 1.91h-.85v-1.23l.84 1.23Zm.42 0h1.87l-1.01-1.28-.86 1.28Zm2.37 0h2l-.97-1-1.03 1Zm2.53 0h2.4l-1.54-.84-.86.84Zm2.88 0h6.17l-7.63-.82 1.47.8-.01.02Zm-2.3-.91-1.83-.2.98 1.02.84-.82Zm-2.3-.25-2.08-.23 1.01 1.29 1.08-1.06Zm-2.52-.27-.87 1.3-1.04-1.5 1.9.2Zm-3.1 1.19.91-1.13v1.37H9.4l-.25-.24Zm.91 14.28c-1 .07-1.8.9-1.8 1.9 0 1 .8 1.83 1.8 1.89v-.4a1.52 1.52 0 0 1-1.4-1.5c0-.78.61-1.43 1.4-1.5v-.39Zm.26.4v-.4c1 .07 1.8.9 1.8 1.9 0 1-.8 1.83-1.8 1.89v-.4c.78-.06 1.4-.7 1.4-1.5 0-.78-.62-1.43-1.4-1.5Zm-.26.25c-.65.06-1.15.6-1.15 1.25s.5 1.18 1.15 1.25v-2.5Zm.26 0c.64.06 1.15.6 1.15 1.25s-.5 1.18-1.15 1.25v-2.5Zm37.61-.34c-.88 0-1.46.47-1.68.72a.14.14 0 0 1-.2.02.13.13 0 0 1-.02-.18c.26-.3.91-.82 1.9-.82 1.26 0 2.07.98 2.07 2h1v.5h-1.1c-.12.36-.37.71-.68.98-.45.4-1.08.64-1.69.46a.13.13 0 0 1-.09-.16c.02-.07.1-.1.18-.09.48.14 1-.05 1.41-.4.26-.23.47-.5.58-.79H47V34h2.72c0-.9-.7-1.74-1.79-1.74Z" fill="#F04A38"/></svg>