<!-- by TradingView --><svg width="56" height="56" viewBox="0 0 56 56" xmlns="http://www.w3.org/2000/svg"><path fill="#F0F3FA" d="M0 0h56v56H0z"/><path d="M4 23.64v8.18L9.52 34v-8.73L4 23.64Z" fill="url(#au53qpqpz)"/><path d="M9.52 25.27V34L15 31.82v-8.18l-5.48 1.63Z" fill="#51ADD4"/><path d="M9.54 22 4 23.64l5.54 1.63L15 23.64 9.54 22Z" fill="url(#bu53qpqpz)"/><path d="m51.66 23.31.33.09H52V27c-.54-.9-1.6-1-1.89-1-1.09.01-2.12.82-2.11 2 0 1.07 1 2.03 2.11 2 .7-.02 1.42-.53 1.89-1v3.63l-.01.01c-.8.26-1.55.36-2.26.36-2.02 0-3.67-1-4.73-3.02V33h-4v-3c-1.28 2.53-3.16 2.96-5.35 3H32v-3.3a4.77 4.77 0 0 1-4.77 3.3 5.95 5.95 0 0 1-4.8-2.46v.03c-.56 1.76-2.43 2.44-4.25 2.43-.76 0-1.56-.18-2.17-.38V30l.3.12c.64.24 1.26.48 2 .33.3-.08.68-.29.69-.6a.49.49 0 0 0-.06-.25c-.22-.33-.68-.36-1.06-.38l-.21-.02a3.33 3.33 0 0 1-1.67-.73V24c.79-.79 1.91-.96 2.98-1 1.17 0 2.05.35 3.08.76l.15.05-.17.55-.72 1.91-.31-.16a3.52 3.52 0 0 0-1.82-.56c-.33.03-.75.12-.73.53.05.58.87.68 1.52.76.26.03.5.05.64.1a4.2 4.2 0 0 1 1.38.66c0-2.6 2.34-4.56 5-4.6 3.56-.05 4.3 1.8 4.7 2.77.1.28.19.49.3.56V23.2l.7-.07a18.2 18.2 0 0 1 2.08-.13c2.46.03 5.45.57 6.21 3.32l.01-3.3V23h4a355.65 355.65 0 0 0 0 3.32 5 5 0 0 1 4.9-3.3c.62 0 1.18.14 1.76.3ZM35.02 26H35v4c2 0 3-.46 3-2 0-1.36-1-2-2.98-2ZM27 30a2 2 0 1 0 0-4 2 2 0 0 0 0 4Z" fill="#6D6F72"/><defs><linearGradient id="au53qpqpz" x1="9.59" y1="33.96" x2=".85" y2="29.57" gradientUnits="userSpaceOnUse"><stop offset=".17" stop-color="#0A76A5"/><stop offset=".3" stop-color="#0F79A7"/><stop offset=".47" stop-color="#2084AE"/><stop offset=".66" stop-color="#3B95BB"/><stop offset=".86" stop-color="#60ADCB"/><stop offset="1" stop-color="#7EC0D9"/></linearGradient><linearGradient id="bu53qpqpz" x1="4" y1="23.61" x2="15" y2="23.61" gradientUnits="userSpaceOnUse"><stop stop-color="#B9E6FB"/><stop offset="1" stop-color="#7EC0D9"/></linearGradient></defs></svg>