<!-- by TradingView --><svg width="56" height="56" viewBox="0 0 56 56" xmlns="http://www.w3.org/2000/svg"><path fill="#F0F3FA" d="M0 0h56v56H0z"/><circle cx="28" cy="28" r="15" fill="#C12500"/><circle cx="28" cy="31" r="9" fill="#FFFFFD"/><path d="M24.12 18.15 21.82 12l-5.15 3 1.04 1.71-2.3 2.54-1.46-.91-2.36 4.36 1.52 1.04-.62 2.7H11l.1 3.96h1.4l.6 2.17-1.18 1.05 2.23 3.53.88-.67 1.04 1.1-.85.81 2.43 2.44L18.7 40l.88.69-.63 1.03L20.88 43l.78-1.28 1.7.53c.27.1.52.17.75.23l-.75-.23a12.42 12.42 0 0 1-8.14-11.85c0-7.71 5.93-11.38 8.9-12.25Zm7.76 0 2.3-6.15 5.15 3-1.04 1.71 2.3 2.54 1.46-.91 2.36 4.36-1.52 1.04.62 2.7H45v3.96h-1.5l-.6 2.17 1.18 1.05-2.23 3.53-.88-.67-1.04 1.1.85.81-2.43 2.44L37.3 40l-.88.69.63 1.03L35.12 43l-.78-1.28-1.66.51a12.4 12.4 0 0 0 8.1-11.83c0-7.71-5.93-11.38-8.9-12.25Zm.05 24.32c.23-.06.48-.14.75-.24l-.75.24Z"/><path d="M31.5 28a.5.5 0 1 0 0-1 .5.5 0 0 0 0 1Zm-.5 1a.5.5 0 0 0 .5-.5.5.5 0 1 0 1 0 .5.5 0 0 0-1 0 .5.5 0 1 0-.5.5Zm-8.72 1.71c-.12.26-.34.92-.34 1.47 0 .69.4 1.06 1.33 1.06.94 0 1.44-.58 1.44-1.24H23.5c.01-.7.27-2.1 1.22-2.34a.89.89 0 0 0-.07-.11c-.08-.12-.2-.3-.24-.53-.04-.41.33-.65.73-.65.4 0 .64.34.64.65 0 .14-.18.4-.3.57l-.05.07.06.03c.45.19 1.25.53 1.25 1.31h.22l.04-.05c.18-.24.49-.62.49-1.3H28V31h1.92l.13-.13c.2-.18.45-.42.51-.87H31v1h.82c.3-.13.55-.43.55-1h.37v1h.8v-1.34H34v1.71c-.03.23-.25.63-.86.63-.62 0-.88-.24-.93-.38-.15.14-.8.38-1.2.38h-2.24c-.33-.02-1-.1-1-.38a.84.84 0 0 1-.72.38h-.76c-.02-.54-.28-1.58-1.16-1.58-1.1 0-.83 1-.42 1h.7c.05.83-.31 2.58-2.14 2.58-2.27 0-2.5-2.5-1-3.29ZM27.5 33a.5.5 0 1 0-.5-.5.5.5 0 1 0-1 0 .5.5 0 0 0 1 0c0 .28.22.5.5.5Z"/><path d="M32 16.75c0-.07.02-.13.07-.18.04-.05.1-.07.18-.07.08 0 .14.02.18.07.05.05.07.11.07.18 0 .07-.02.13-.07.18a.24.24 0 0 1-.18.07.24.24 0 0 1-.18-.07.25.25 0 0 1-.07-.18ZM31.34 16.73V17h-1.09v-.27h1.1ZM30.35 15v2H30v-2h.35Zm.85.84v.26h-.95v-.26h.95Zm.14-.84v.27h-1.09V15h1.09ZM29 16.75c0-.07.02-.13.07-.18.04-.05.1-.07.18-.07.08 0 .14.02.18.07.05.05.07.11.07.18 0 .07-.02.13-.07.18a.24.24 0 0 1-.18.07.24.24 0 0 1-.18-.07.25.25 0 0 1-.07-.18ZM27 15h.73c.15 0 .29.02.4.07.1.04.19.11.25.2.06.1.09.2.09.33 0 .1-.02.19-.06.27a.54.54 0 0 1-.16.19.78.78 0 0 1-.24.12l-.11.05h-.65v-.28h.48c.09 0 .16-.01.21-.04a.3.3 0 0 0 .13-.12c.03-.05.04-.1.04-.17a.37.37 0 0 0-.04-.18.27.27 0 0 0-.13-.12.5.5 0 0 0-.21-.05h-.38V17H27v-2Zm1.17 2-.48-.9h.37l.49.88V17h-.38ZM26 16.75c0-.07.02-.13.07-.18.04-.05.1-.07.18-.07.08 0 .14.02.18.07.05.05.07.11.07.18 0 .07-.02.13-.07.18a.24.24 0 0 1-.18.07.24.24 0 0 1-.18-.07.25.25 0 0 1-.07-.18ZM24.78 15.27l-.6 1.73h-.37l.76-2h.24l-.03.27Zm.5 1.73-.6-1.73-.02-.27h.23l.77 2h-.37Zm-.02-.74v.27h-1.1v-.27h1.1Z" fill="#fff"/></svg>