<!-- by TradingView --><svg width="56" height="56" viewBox="0 0 56 56" xmlns="http://www.w3.org/2000/svg"><path fill="#F0F3FA" d="M0 0h56v56H0z"/><path d="M17.36 27.02c.84-.89 1.57-1.8 2.08-2.7.7-1.22 1.27-2.5 1.71-3.77a7.03 7.03 0 0 0 1.2 5.58 7.04 7.04 0 0 0-5 .89Zm-2.12 2A45.88 45.88 0 0 1 9 33.5L14.24 42c1.43-.53 3.9-1.35 6.58-2a7 7 0 0 1-5.58-10.98Zm8.75 10.31c1.44-.24 2.84-.4 4.1-.4 1.2 0 2.53.15 3.87.38a7 7 0 0 1-2.61-10.44 7.03 7.03 0 0 1-2.7 0 7 7 0 0 1-2.67 10.46Zm11.15.67c2.56.65 4.88 1.47 6.2 2L47 33.5c-2-1.36-6.8-4.98-9.98-8.6a12.2 12.2 0 0 1-2.04-3.36L35 22c0 1.54-.5 2.97-1.35 4.13A7 7 0 1 1 35.15 40Zm-1.17-21.66a26.3 26.3 0 0 1-.69-6.34H22.72c0 1.46-.26 4.2-1.14 7.2a7 7 0 0 1 12.39-.86ZM29.5 22a1.5 1.5 0 1 1-3 0 1.5 1.5 0 0 1 3 0Zm7 11a1.5 1.5 0 1 1-3 0 1.5 1.5 0 0 1 3 0ZM21 34.5a1.5 1.5 0 1 0 0-3 1.5 1.5 0 0 0 0 3Z" fill="#04A1C9"/><path fill-rule="evenodd" d="M27 33a6 6 0 1 1-12 0 6 6 0 0 1 12 0Zm-4 0a2 2 0 1 1-4 0 2 2 0 0 1 4 0Zm-2.24-4.6a4.6 4.6 0 0 0-2.8.86c-.14.1-.34.12-.48 0-.13-.12-.14-.32 0-.43a5.15 5.15 0 0 1 3.28-1.07c.82 0 1.39.12 1.81.29.27.1.47.23.63.35.14.1.16.31.06.45-.11.14-.31.16-.45.06s-.28-.19-.48-.27c-.33-.13-.8-.24-1.57-.24Zm-.13 1.38a3.1 3.1 0 0 0-1.9.58c-.09.07-.23.08-.32 0s-.1-.22 0-.3a3.48 3.48 0 0 1 2.22-.72c.55 0 .94.08 1.22.2.18.07.32.16.43.24.1.07.1.2.04.3-.08.1-.21.11-.3.04a1.52 1.52 0 0 0-.33-.18c-.22-.1-.55-.17-1.06-.17Zm-3.73 5.98a3.15 3.15 0 0 0 1.85 1.48c.15.04.24.18.19.33-.05.15-.22.25-.37.22a3.57 3.57 0 0 1-2.22-1.7c-.33-.57-.45-1.02-.46-1.4-.02-.23.02-.43.05-.6.04-.15.2-.27.37-.26.16 0 .26.13.23.28-.03.14-.05.28-.05.46.02.29.11.67.41 1.2Zm1.25-.6c.37.64.91.91 1.25 1 .1.03.16.12.12.22-.03.1-.14.18-.25.15a2.41 2.41 0 0 1-1.5-1.15c-.22-.38-.3-.68-.31-.94 0-.16.01-.3.04-.4.02-.1.14-.19.25-.19.1 0 .17.1.15.2-.02.09-.03.19-.03.3 0 .2.07.46.28.81Zm6.87-1.37c.07.5.02 1.4-.63 2.28-.36.48-.67.72-.94.85-.15.08-.3.12-.44.14-.15.03-.22.17-.16.32s.23.26.38.23c.18-.03.37-.08.58-.18.34-.17.7-.45 1.1-.98.75-1 .8-2.08.68-2.71-.02-.15-.2-.27-.35-.25-.16.01-.24.15-.22.3Zm-1.25-.17c.05.35.02.96-.42 1.55-.25.32-.46.48-.64.57-.1.05-.2.08-.3.1-.1.01-.15.1-.1.21.04.1.15.18.26.16.11-.02.25-.06.39-.13.23-.1.47-.3.73-.66.51-.68.55-1.4.47-1.83-.02-.1-.13-.18-.24-.17-.1 0-.16.1-.15.2Z" fill="#FD1D1D"/><path fill-rule="evenodd" d="M34 22a6 6 0 1 1-12 0 6 6 0 0 1 12 0Zm-4 0a2 2 0 1 1-4 0 2 2 0 0 1 4 0Zm-1.89-4.52a4.6 4.6 0 0 0-2.8.86c-.13.1-.34.12-.47 0-.13-.11-.14-.32 0-.43a5.15 5.15 0 0 1 3.27-1.07c.83 0 1.4.12 1.82.3.26.1.46.23.63.35.14.1.16.3.05.44-.1.14-.3.17-.45.06-.13-.1-.28-.18-.47-.26-.33-.14-.81-.25-1.58-.25Zm-.13 1.38a3.1 3.1 0 0 0-1.89.58c-.1.07-.23.08-.32 0s-.1-.21 0-.3a3.48 3.48 0 0 1 2.21-.71c.56 0 .94.08 1.23.2.18.07.31.15.42.23.1.07.12.21.04.3-.07.1-.2.11-.3.04a1.51 1.51 0 0 0-.33-.18c-.22-.09-.54-.16-1.06-.16Zm-3.72 5.99a3.15 3.15 0 0 0 1.85 1.48c.14.04.24.17.19.32-.05.15-.22.26-.38.22a3.57 3.57 0 0 1-2.21-1.7 3.04 3.04 0 0 1-.47-1.39c0-.23.02-.43.06-.6.03-.15.2-.27.37-.27.16 0 .26.13.22.28a1.7 1.7 0 0 0-.04.46c.01.3.1.67.4 1.2Zm1.24-.6c.37.63.92.9 1.25 1 .1.03.16.12.13.22s-.15.17-.25.15a2.41 2.41 0 0 1-1.5-1.16c-.22-.38-.3-.68-.31-.93-.01-.16.01-.3.04-.41.02-.1.13-.18.24-.18.11 0 .18.09.16.19-.02.1-.04.2-.03.3 0 .2.07.46.27.82Zm6.88-1.38c.07.51.02 1.41-.63 2.29-.36.48-.68.72-.94.84-.16.08-.3.12-.44.15-.15.03-.23.16-.16.32.06.15.23.26.38.23.17-.03.37-.09.58-.19.34-.16.7-.45 1.09-.97.75-1.01.8-2.09.69-2.72-.03-.15-.2-.26-.35-.25-.16.02-.25.15-.22.3Zm-1.25-.16c.05.34.01.95-.43 1.54-.24.33-.45.49-.63.57-.1.05-.2.08-.3.1-.1.02-.15.11-.1.22.03.1.15.17.25.15.12-.02.25-.05.4-.12.22-.11.47-.3.73-.66.51-.69.54-1.41.47-1.84-.02-.1-.13-.18-.24-.17-.1.01-.16.1-.15.2Z" fill="#F3B93C"/><path fill-rule="evenodd" d="M41 33a6 6 0 1 1-12 0 6 6 0 0 1 12 0Zm-4 0a2 2 0 1 1-4 0 2 2 0 0 1 4 0Zm-2.24-4.6a4.6 4.6 0 0 0-2.8.86c-.14.1-.34.12-.48 0-.13-.12-.14-.32 0-.43a5.15 5.15 0 0 1 3.28-1.07c.82 0 1.39.12 1.81.29.27.1.47.23.63.35.14.1.16.31.06.45-.11.14-.31.16-.45.06s-.28-.19-.48-.27c-.33-.13-.8-.24-1.57-.24Zm-.13 1.38a3.1 3.1 0 0 0-1.9.58c-.09.07-.23.08-.32 0s-.1-.22 0-.3a3.48 3.48 0 0 1 2.22-.72c.55 0 .94.08 1.22.2.18.07.32.16.43.24.1.07.1.2.03.3-.07.1-.2.11-.3.04a1.52 1.52 0 0 0-.32-.18c-.22-.1-.55-.17-1.06-.17Zm-3.73 5.98a3.15 3.15 0 0 0 1.85 1.48c.15.04.24.18.19.33-.05.15-.22.25-.37.22a3.57 3.57 0 0 1-2.22-1.7c-.33-.57-.45-1.02-.46-1.4-.02-.23.02-.43.05-.6.04-.15.2-.27.37-.26.16 0 .26.13.23.28-.03.14-.05.28-.05.46.02.29.11.67.41 1.2Zm1.25-.6c.37.64.91.91 1.25 1 .1.03.16.12.12.22-.03.1-.14.18-.25.15a2.41 2.41 0 0 1-1.5-1.15c-.22-.38-.3-.68-.31-.94 0-.16.01-.3.04-.4.02-.1.14-.19.25-.19.1 0 .17.1.15.2-.02.09-.03.19-.03.3 0 .2.07.46.28.81Zm6.87-1.37c.07.5.02 1.4-.63 2.28-.36.49-.67.72-.94.85-.15.08-.3.12-.44.14-.15.03-.22.17-.16.32s.23.26.38.23c.18-.03.37-.08.58-.18.34-.17.7-.45 1.1-.98.75-1 .8-2.08.68-2.71-.02-.15-.2-.27-.35-.25-.16.01-.24.15-.22.3Zm-1.25-.17c.05.35.02.96-.42 1.55-.25.32-.46.48-.64.57-.1.05-.2.08-.3.1-.1.01-.15.1-.1.21.04.1.15.18.26.16.11-.02.25-.06.39-.13.23-.1.47-.3.73-.66.51-.68.55-1.4.47-1.83-.02-.1-.13-.18-.24-.17-.1 0-.16.1-.15.2Z" fill="#70AC00"/></svg>