<!-- by TradingView --><svg width="56" height="56" viewBox="0 0 56 56" xmlns="http://www.w3.org/2000/svg"><path fill="#F0F3FA" d="M0 0h56v56H0z"/><path d="M25 27H12V14l4 4v5h5l4 4Z" fill="#6D6D6A"/><path d="M14 12h13v13l-4-4v-5h-5l-4-4Z" fill="red"/><path d="M42 12H29v13l4-4v-5h5l4-4Z" fill="#FF7900"/><path d="M31 27h13V14l-4 4v5h-5l-4 4Z" fill="#FFDC00"/><path d="M31 29h13v13l-4-4v-5h-5l-4-4Z" fill="#00A755"/><path d="M42 44H29V31l4 4v5h5l4 4Z" fill="#0093CD"/><path d="M14 44h13V31l-4 4v5h-5l-4 4Z" fill="#004F9B"/><path d="M25 29H12v13l4-4v-5h5l4-4Z" fill="#A32285"/></svg>