<!-- by TradingView --><svg width="56" height="56" viewBox="0 0 56 56" xmlns="http://www.w3.org/2000/svg"><path fill="#F0F3FA" d="M0 0h56v56H0z"/><path fill-rule="evenodd" d="M28 46a18 18 0 1 0 0-36 18 18 0 0 0 0 36Zm0-2a16 16 0 1 0 0-32 16 16 0 0 0 0 32Z" fill="#AAA98B"/><path fill-rule="evenodd" d="M42.12 25.5 39 28.04l3.1 2.46H13.71a14.1 14.1 0 0 1-.03-.2L17 27.83l-3.07-2.34h28.19Zm.58-.48a15 15 0 0 0-29.4 0l-.03-.02c-.1.5-.27 1.76-.27 2.84V28a15 15 0 0 0 29.7 2.98l.03.02a19.59 19.59 0 0 0 .27-2.96V28a20.14 20.14 0 0 0-.27-3l-.03.02ZM13.81 31a14.5 14.5 0 0 0 28.38 0h-4.8l-.2.56A9.36 9.36 0 0 1 28.4 38h-.83a9.39 9.39 0 0 1-8.94-6.94l-.01-.06H13.8Zm23.04 0h-17.7a8.88 8.88 0 0 0 8.43 6.5h.83a8.86 8.86 0 0 0 8.3-6.1l.14-.4ZM28 13.5A14.5 14.5 0 0 0 13.81 25h5c1.19-4.15 4.79-7 8.89-7h.83a9.35 9.35 0 0 1 8.75 6.54l.16.46h4.75A14.5 14.5 0 0 0 28 13.5Zm8.8 11.2.1.3H19.34c1.17-3.88 4.55-6.5 8.37-6.5h.83c3.7 0 7.02 2.47 8.28 6.2ZM20.72 27v-.5H22v.5h-.32v2H22v.5h-1.29V29H21v-2h-.29ZM18 29v-2.5h1.27c.52 0 .94.4.94.9s-.42.9-.94.9h-.57v.7h.3v.5h-1.26V29H18Zm.7-2v.78h.4a.4.4 0 0 0 .4-.4.4.4 0 0 0-.4-.38h-.4Zm4.8-.5c-.63 0-1.14.49-1.14 1.09v.82c0 .6.51 1.09 1.14 1.09.63 0 1.14-.49 1.14-1.09v-.82c0-.6-.5-1.09-1.14-1.09Zm0 .5c-.28 0-.5.32-.5.72v.56c0 .4.22.72.5.72s.5-.32.5-.72v-.56c0-.4-.22-.72-.5-.72Zm1.5 2.5V29h.5v-2H25v-.5h1.1l.9 1.4V27h-.18v-.5h.96v.5h-.3v2.5h-.55L26 27.9V29h.2v.5H25Zm3 0h2.01V29H28.7v-.75h1v-.5h-1V27h1.31v-.5H28v3Zm2.3-3h2v.5H31v.75h.99v.5h-1V29h1.31v.5h-2v-3Zm2.46 2.5v.5H34V29h-.3v-.67h.25l.75 1.17h.66l-.73-1.2c.37-.1.64-.46.64-.88a.9.9 0 0 0-.88-.92H33V29h-.24Zm.94-1.15V27h.55c.25 0 .45.2.45.43 0 .23-.2.42-.45.42h-.55Zm1.8.65c0 .33.23 1 1.07 1 .84 0 1.04-.58 1.04-.87-.02-.22-.2-.72-.76-.9-.65-.2-.62-.38-.62-.45v-.01c0-.07 0-.27.34-.27.28 0 .34.18.34.3h.7c0-.27-.18-.8-1.04-.8-1.07 0-1.07.65-1.07.84 0 .2.2.5.8.83l.3.15c.24.12.3.15.3.35 0 .09-.06.33-.33.33s-.33-.35-.33-.5h-.74Zm-9-6.2V24H26v-1.7h-.67V22H27.1v.3h-.61Zm2.5.82h-1V24h-.5v-2h.5v.83h1V22h.5v2H29v-.88Zm2.5.88v-.3h-1.07v-.58h.91v-.3h-.91v-.52h1.07V22H30v2h1.5Zm-13.7 9.98-.41-.6-1.65 1.11.2.32.63-.42.2.3-.4.74.22.33h.02l.43-.83c.06.03.11.06.17.07.07.03.16.04.24.03a.61.61 0 0 0 .25-.1.6.6 0 0 0 .23-.27c.04-.1.05-.2.02-.32a1 1 0 0 0-.16-.36Zm-.98.24.2.3c.04.06.08.1.14.13.05.03.1.04.15.03.06 0 .11-.02.16-.06.06-.04.1-.08.13-.13.02-.05.03-.1.02-.16a.43.43 0 0 0-.07-.18l-.2-.29-.53.36Zm22.1.53-.06-.07c-.1-.1-.21-.18-.32-.24a.84.84 0 0 0-.33-.09c-.11 0-.22.01-.32.05s-.2.1-.28.19a.82.82 0 0 0-.19.28c-.04.1-.05.2-.05.32.01.1.04.21.1.32.05.12.13.22.23.33l.07.07c.1.1.22.18.33.24.1.05.22.08.33.09.1 0 .21-.01.31-.05s.2-.1.28-.2a.82.82 0 0 0 .2-.27.86.86 0 0 0-.04-.64 1.25 1.25 0 0 0-.25-.33Zm-.33.2.08.06c.07.08.13.15.17.22.05.07.07.14.09.2a.37.37 0 0 1-.12.36.4.4 0 0 1-.16.1.4.4 0 0 1-.19.01.64.64 0 0 1-.2-.08 1.2 1.2 0 0 1-.22-.17l-.08-.08a1.18 1.18 0 0 1-.17-.21.62.62 0 0 1-.08-.21.38.38 0 0 1 .1-.35c.06-.05.11-.09.17-.1a.37.37 0 0 1 .2-.02.6.6 0 0 1 .2.09c.07.04.14.1.21.17Zm-1.06 1.6.25-.24c.08.09.13.2.15.3a.6.6 0 0 1-.01.33.83.83 0 0 1-.22.32.67.67 0 0 1-.55.22.8.8 0 0 1-.3-.09c-.1-.05-.2-.12-.29-.21l-.1-.1c-.09-.1-.16-.2-.21-.3a.79.79 0 0 1-.09-.3c0-.1 0-.2.04-.29.04-.1.1-.18.18-.26.1-.1.21-.17.33-.2a.6.6 0 0 1 .32-.02c.11.03.21.08.31.16l-.24.25a.54.54 0 0 0-.18-.1.26.26 0 0 0-.17-.01.43.43 0 0 0-.17.12.4.4 0 0 0-.1.15.32.32 0 0 0-.01.17c.01.05.04.12.08.18l.16.2.1.1c.07.07.13.12.2.16.06.04.12.07.18.08.05.02.11.02.16 0 .06-.02.11-.05.16-.1.06-.06.1-.12.12-.17a.27.27 0 0 0 0-.17.5.5 0 0 0-.1-.18ZM33.9 38.1l.1-.08.13-.08 1.16.82-.42-1.36.12-.08.1-.08.12-.08 1.05 1.45-.26.19-.32-.45-.46-.68.42 1.39-.18.13-1.19-.83.5.64.33.45-.26.19-1.05-1.46.11-.08Zm-.1 1.43.05.08a.22.22 0 0 1-.03.25.46.46 0 0 1-.15.1.65.65 0 0 1-.15.06.37.37 0 0 1-.14 0 .27.27 0 0 1-.12-.05.37.37 0 0 1-.09-.12l-.32.16a.54.54 0 0 0 .42.3h.27a1.04 1.04 0 0 0 .49-.25.64.64 0 0 0 .14-.19.46.46 0 0 0 0-.42.47.47 0 0 0-.3-.26.78.78 0 0 0-.24-.03l-.29.03-.18.02h-.14a.28.28 0 0 1-.1-.03.18.18 0 0 1-.06-.08.23.23 0 0 1-.03-.12c0-.05.03-.09.06-.13a.44.44 0 0 1 .15-.11.4.4 0 0 1 .18-.05c.06 0 .1.02.15.05.04.02.08.07.1.12l.32-.16a.53.53 0 0 0-.2-.23.58.58 0 0 0-.31-.07.96.96 0 0 0-.59.25.67.67 0 0 0-.15.2.46.46 0 0 0 0 .42.44.44 0 0 0 .33.24l.23.02.26-.03.2-.02h.14l.1.05Zm-1.66-.62.56 1.71-.33.1-.56-1.7.33-.11Zm-2.37.67-.37.02.09 1.27c0 .09 0 .16-.03.22a.28.28 0 0 1-.12.13.45.45 0 0 1-.2.06c-.07 0-.14 0-.2-.03a.29.29 0 0 1-.13-.12.46.46 0 0 1-.06-.21l-.1-1.26-.37.02.1 1.27a.6.6 0 0 0 .4.56c.11.04.24.06.39.05a.93.93 0 0 0 .37-.1c.1-.06.2-.14.25-.25.06-.1.08-.22.07-.37l-.09-1.26Zm-1.82.99v.1a1.2 1.2 0 0 1-.1.37.7.7 0 0 1-.45.44.8.8 0 0 1-.32.03.8.8 0 0 1-.31-.09.72.72 0 0 1-.24-.2.83.83 0 0 1-.14-.3 1.19 1.19 0 0 1-.03-.38l.01-.1c.01-.14.04-.27.1-.38.04-.1.1-.2.18-.27a.7.7 0 0 1 .26-.17.8.8 0 0 1 .32-.03.8.8 0 0 1 .32.09c.1.05.17.11.23.2.07.08.11.18.14.3.03.12.04.24.03.39Zm-.37.06.01-.1v-.27a.59.59 0 0 0-.07-.2.36.36 0 0 0-.13-.13.4.4 0 0 0-.18-.06.36.36 0 0 0-.33.14.6.6 0 0 0-.1.19c-.02.07-.04.16-.05.27v.1c-.02.1-.01.19 0 .27.01.08.03.14.07.2.03.06.07.1.12.13a.4.4 0 0 0 .18.06.36.36 0 0 0 .33-.14.6.6 0 0 0 .1-.19c.03-.08.04-.16.05-.27Zm-1.3-1.08-.55-.1-.33-.06-.54-.1-.05.26.54.1-.28 1.5.33.06.28-1.5.55.1.05-.26Zm-3.95.77.19.1a1 1 0 0 0 .33.12.78.78 0 0 0 .84-.42l.05-.08c.06-.11.1-.23.12-.34a.78.78 0 0 0-.17-.6.96.96 0 0 0-.27-.23l-.19-.11-.18-.1-.13-.08-.9 1.56.14.07.18.1Zm.14-.24.18.1c.1.06.19.1.27.09.1 0 .18-.03.25-.1a.79.79 0 0 0 .21-.24l.05-.08a.87.87 0 0 0 .1-.23.5.5 0 0 0 0-.2.4.4 0 0 0-.08-.18.56.56 0 0 0-.16-.14l-.2-.1-.62 1.08Zm-.51-1.78-.08-.05-.13-.09-.07-.05-1.57 1.08.32.21.34-.24.6.39-.09.4.33.22.35-1.87Zm-.52.98-.45-.3.61-.45-.16.75Zm-2.7-1.1-.11-.08.85-1.73.28.22-.65 1.23 1.12-.84.08.06.08.06.07.07-.6 1.26 1.07-.88.28.22-1.52 1.2-.1-.1-.08-.06-.09-.07.56-1.22-1.08.8-.09-.07-.07-.07Zm-.02-1.52-.07.07c-.1.1-.2.18-.32.24a.84.84 0 0 1-.32.09c-.1 0-.21-.01-.31-.05a.8.8 0 0 1-.28-.19.8.8 0 0 1-.18-.27.73.73 0 0 1-.05-.31c0-.11.04-.22.09-.33.05-.1.13-.21.23-.32l.07-.06c.1-.1.21-.19.32-.24.1-.05.22-.08.32-.09.11 0 .22 0 .31.05a.8.8 0 0 1 .46.46c.05.1.06.2.05.31 0 .1-.03.22-.09.33-.05.1-.13.21-.23.31Zm-.33-.19.07-.07c.08-.07.13-.14.18-.21a.6.6 0 0 0 .08-.2.36.36 0 0 0-.01-.19.4.4 0 0 0-.1-.16.37.37 0 0 0-.34-.11.61.61 0 0 0-.21.08c-.07.04-.14.1-.22.17l-.07.07c-.07.08-.13.15-.17.22a.63.63 0 0 0-.08.2c-.02.07-.01.13 0 .19a.4.4 0 0 0 .1.16c.06.05.11.08.17.1.06.02.12.02.18.01a.6.6 0 0 0 .2-.08c.08-.05.15-.1.22-.18ZM30 39.45l.7-.19a1 1 0 0 1 .4-.03c.11.01.21.06.3.13.07.07.13.17.16.3.03.1.03.18.02.27a.52.52 0 0 1-.1.22.72.72 0 0 1-.13.13l.64.68v.02l-.38.1-.57-.62-.35.09.2.73-.37.1-.52-1.93Zm.44.19.17.62.34-.09a.4.4 0 0 0 .18-.09.27.27 0 0 0 .08-.14.34.34 0 0 0 0-.17.36.36 0 0 0-.09-.15.26.26 0 0 0-.14-.08.43.43 0 0 0-.2 0l-.34.1Zm9.37-4.84a.32.32 0 1 0 0-.65.32.32 0 0 0 0 .65Zm-16.8-1.1c.23.04.72.07.77-.22.03-.18-.11-.24-.25-.3-.13-.06-.26-.12-.26-.27 0-.32.73-.5.73 0v1.04c0 .1-.09.31-.53.31-.44 0-.5-.38-.46-.57Zm1.23.6v-2.1c.17.31.5.99.5 1.28 0 .29-.33.67-.5.82Zm.49-.25c.05.24.28.73.8.73.53 0 .76-.23.8-.34.12.13.43.4.73.4.31 0 .74-.58.92-.84h3.77c.24 0 .7-.1.65-.73a.7.7 0 0 0-.25-.48c.2.03.6.25.6.93.23-.5.32-1.44-1.05-1.72h-.04c-.08.02-.2.04-.2.35 0 .35.2.6.3.7.08.16.17.49-.19.49h-3.45c-.02-.2-.16-.6-.63-.6-.06.02-.2.11-.2.33 0 .22.27.39.4.45-.06.2-.25.61-.63.61-.37 0-.56-.18-.6-.28v-.89c.01-.15-.05-.45-.44-.45-.49 0-.49.65-.49.78 0 .11.25.38.38.5-.1.25-.49.62-1.18.06Zm2.19 1.53c-.42.1-.37.66-.3.93.1-.2.44-.3.6-.33.02.1.14.33.43.33.3 0 .49-.19.54-.28.08.1.28.28.52.28a.3.3 0 0 0 .32-.28c.29 0 .86-.1.86-.34 0-.24-.57-.67-.86-.86v.86h-.78c.02-.03-.03-.15-.34-.3-.32-.16-.55.21-.63.42.05-.18.05-.51-.36-.43ZM16.55 23.62c-.35-.38-.45-1-.45-1.26l.96.1.62-.77c.32-.4.13-.74 0-.86-.16.21-.51.6-.62.51-.1-.09-.1-.37-.1-.5.27-.33.86-1 1.08-1.04.28-.04.5.18.62.45.05.1-.03.17-.14.26-.15.13-.34.28-.2.64.18.47.14.88.1 1.03l-1.23 1.93c-.06 0-.28-.11-.64-.5Zm.84-.6-.85-.32c.2.44.48.7.6.79l.25-.46Zm-1.87-.47a.35.35 0 1 0 0-.7.35.35 0 0 0 0 .7Zm-.35.7a.35.35 0 1 0 0-.7.35.35 0 0 0 0 .7Zm6.26-3.15a.35.35 0 1 1-.6-.35.35.35 0 0 1 .6.35Zm-.65.43a.35.35 0 1 1-.6-.35.35.35 0 0 1 .6.35Zm-1.04-.16-2.02-1.6.45-.43 1.12 1.12.67-.68-.55-.44.33-.34.57.54.64-.3c-.1-.44-.04-.78 0-.9l.91.35c-.09-.28.04-.66.12-.82l.66.47-.44-.88.44-.25.61.66 1.05-.25-.5-1.49.61-.15.43 2.36c-1.8.22-4.15 2.11-5.1 3.03Zm5.3-5.6.46 2.42.39-.11-.39-2.32h-.46Zm2.7 1.45c-.43 0-.6-.3-.62-.45-.3.85.35 1.17.7 1.22.28.02.82-.14.82-1 0-1.07-.9-1.1-.97-.97-.08.13-.17.4.16.56.33.17.45.64-.1.64Zm1.35-1.71-.33 2.48.46.08.6-2.44-.73-.12Zm.11 2.8c.05.15.25.46.73.46.6 0 1.08-.86 1.16-1.17.09-.31.12-.98-.46-1.17-.47-.16-.7.26-.77.49-.08.23-.12.77.34 1.04-.28.62-.78.5-1 .35Zm1.24-.76a.32.32 0 1 0 0-.64.32.32 0 0 0 0 .64Zm.32 1.09c.04.18.2.54.59.54.38 0 1.15-1.27 1.48-1.91l-.47-.3-.94 1.62c-.13.1-.44.25-.66.05Zm4.61-1.2a.3.3 0 0 1-.01.1.3.3 0 0 1 .5.23.3.3 0 1 1-.6-.1.3.3 0 1 1 .1-.23Zm-1.4 1.18c.5-.37 1.24-.34 1.54-.28l-.6.93.7.72c.32.32.38-.02.38-.32s.37-.82.61-.64c.2.14.87.27 1.19.32v.5h-1.13c.01.22-.02.74-.3 1.04-.28.3-.68.2-.85.11l-1.8-1.53c-.13-.13-.24-.48.26-.85Zm.4.64.4-.48c-.19-.08-.53.06-.68.14l.28.34Zm2.4 2.62c-.47 0-.8-.32-.9-.48-.19.92.65 1.07 1.1 1.02.39.82 1.27 2.47 1.6 2.54.34.08 1.06-.66 1.37-1.04l-.45-.06c-.5.5-.74.25-.8.06l.5-.32-.14-.38-.61.33-.23-.37.56-.4-.2-.36c-.54.18-.83-.12-.91-.3l.55-.72-.44-.43c-.13.3-.52.9-1 .9Zm2.68 1.2c.17 0 .3-.14.32-.31 0 .08.03.15.08.2h-.04a.32.32 0 1 0 .23.1h.04a.32.32 0 1 0-.31-.33.32.32 0 1 0-.32.33Z" fill="#2D7852"/></svg>