<!-- by TradingView --><svg width="56" height="56" viewBox="0 0 56 56" xmlns="http://www.w3.org/2000/svg"><path fill="#F0F3FA" d="M0 0h56v56H0z"/><path d="M25.5 40c2.62 0 4.5-1.45 4.5-4h2v4h1V25h2v17h-5v-1.61a6.83 6.83 0 0 1-5 1.6V45h-2v-3.48a6.57 6.57 0 0 1-.24-.1 6.5 6.5 0 1 1 2.24-4.9v3.46l.5.02Zm-3.17-1.14A4.5 4.5 0 1 0 21 40.24 6.23 6.23 0 0 1 19.04 35h2c-.04.22-.04.45-.04.68 0 1.3.5 2.41 1.33 3.18Z" fill="#636"/><path d="M19.28 24H16L37 8v2.3L19.28 24Z" fill="#CBAB97"/><path d="M19.28 27H16l21-16v2.3L19.28 27Z" fill="#BD8E70"/><path d="M19.28 30H16l21-16v2.3L19.28 30Z" fill="#B17149"/><path d="M15.33 34h3.28l2.09-1.62A4.49 4.49 0 0 1 27 36.5a4.5 4.5 0 1 1-8.97-.5h-2.01l-.02.5a6.5 6.5 0 1 0 7.63-6.4L37 19.7v-2.3L19.76 30.6l-.16.08.01.04L15.33 34Z" fill="#B15013"/><path d="M36 45V23h2v22h-2Z" fill="#636"/><path d="M30.5 45a1.5 1.5 0 1 0 0-3 1.5 1.5 0 0 0 0 3Zm-3 0a1.5 1.5 0 1 0 0-3 1.5 1.5 0 0 0 0 3Z" fill="#B15013"/></svg>