<!-- by TradingView --><svg width="56" height="56" viewBox="0 0 56 56" xmlns="http://www.w3.org/2000/svg"><path fill="#F0F3FA" d="M0 0h56v56H0z"/><path d="M28 10c8.84 0 16 6.92 16 15.47 0 1.57-.24 3.1-.69 4.53L27.5 15 12.45 29.13c-.31-1.16-.45-2.4-.45-3.66C12 16.92 19.2 10 28 10Z" fill="#F17633"/><path fill-rule="evenodd" d="M32 28.5a4.5 4.5 0 1 0-9 0 4.5 4.5 0 0 0 9 0Zm-2-.5a3 3 0 1 0-6 0 3 3 0 0 0 6 0Z" fill="#5260AB"/><path d="M28.03 21.04a8.7 8.7 0 0 0-.69 1.87l-.42-.13c.22-.83.47-1.51.74-1.99.13-.24.27-.43.42-.57a.73.73 0 0 1 .54-.22c.2.02.35.13.47.28.13.15.24.35.33.58.18.47.32 1.11.42 1.88.2 1.55.22 3.65.04 5.94-.18 2.3-.52 4.36-.95 5.85a7.97 7.97 0 0 1-.7 1.78c-.12.2-.26.38-.4.5a.69.69 0 0 1-.51.19c-.23-.03-.4-.18-.54-.38s-.26-.46-.35-.78c-.2-.63-.34-1.51-.43-2.56l.44-.05c.08 1.04.22 1.88.4 2.46.1.3.19.5.29.64.1.14.17.18.23.2.05 0 .11-.02.2-.1.1-.07.2-.2.3-.38.22-.38.44-.94.65-1.66.42-1.45.76-3.48.93-5.75.18-2.27.15-4.33-.04-5.83a7.73 7.73 0 0 0-.39-1.76 1.6 1.6 0 0 0-.24-.45c-.07-.09-.14-.12-.18-.12-.06 0-.13.02-.23.1-.1.1-.2.25-.33.46Z" fill="#5260AB"/><path d="M33.77 24.51c-.48 0-1.15.1-1.95.32l-.11-.5a7.71 7.71 0 0 1 2.06-.33c.27 0 .51.04.7.12.2.08.37.21.46.42.09.2.08.42.03.63-.06.2-.17.42-.31.64a7.8 7.8 0 0 1-1.35 1.44 27.51 27.51 0 0 1-4.92 3.28c-2 1.08-3.92 1.84-5.4 2.21-.73.19-1.37.28-1.86.26a1.76 1.76 0 0 1-.64-.14.79.79 0 0 1-.42-.42 1 1 0 0 1 .03-.74c.09-.24.25-.5.46-.78a11.9 11.9 0 0 1 1.92-1.82l.27.41c-.82.65-1.45 1.25-1.84 1.75-.2.25-.32.46-.39.64-.06.17-.05.27-.03.33.02.05.07.1.18.16.1.05.27.08.48.1.43.02 1.02-.06 1.74-.25a24.68 24.68 0 0 0 5.3-2.17 27.06 27.06 0 0 0 4.84-3.22c.57-.5 1-.96 1.25-1.35.13-.19.2-.35.24-.48.04-.13.03-.2 0-.26-.02-.05-.07-.1-.2-.16-.12-.05-.3-.08-.54-.09Z" fill="#5260AB"/><path d="M20.49 24.74c.03-.06.1-.13.26-.18.17-.05.4-.07.7-.05.6.03 1.4.2 2.36.52l.14-.47a10.2 10.2 0 0 0-2.48-.55 2.5 2.5 0 0 0-.85.07.86.86 0 0 0-.55.43.9.9 0 0 0-.03.62c.05.2.16.42.3.63.3.43.76.92 1.35 1.43a28.18 28.18 0 0 0 4.9 3.28c2 1.07 3.92 1.85 5.4 2.24.73.2 1.37.3 1.86.29.25 0 .47-.04.65-.12a.8.8 0 0 0 .44-.4.92.92 0 0 0 0-.65 2.44 2.44 0 0 0-.35-.66c-.32-.47-.84-1-1.5-1.56l-.3.4a8.5 8.5 0 0 1 1.43 1.46c.15.2.24.38.28.52.05.14.04.22.02.27-.03.05-.08.1-.19.15a1.4 1.4 0 0 1-.49.09 6.53 6.53 0 0 1-1.74-.27 26.44 26.44 0 0 1-5.3-2.2 27.72 27.72 0 0 1-4.82-3.23c-.57-.5-1-.95-1.25-1.33-.13-.2-.2-.35-.24-.48-.03-.12-.03-.2 0-.25ZM29 21a1 1 0 0 1 1 1 1 1 0 0 1-1 1 1 1 0 0 1-1-1 1 1 0 0 1 1-1Z" fill="#5260AB"/><path d="M33 32a1 1 0 0 1 1 1 1 1 0 0 1-1 1 1 1 0 0 1-1-1c.03-.56.47-1 1-1ZM23 32a1 1 0 0 1 1 1 1 1 0 0 1-1 1 1 1 0 0 1-1-1c.03-.56.47-1 1-1Z" fill="#5260AB"/><path d="M11 40.41 27.95 39l17.05.62L28.02 41 11 40.41ZM16 43.64 28 43l12 .36-11.97.64L16 43.64Z" fill="#1685F0"/></svg>