<!-- by TradingView --><svg width="56" height="56" viewBox="0 0 56 56" xmlns="http://www.w3.org/2000/svg"><path fill="#F0F3FA" d="M0 0h56v56H0z"/><path d="M30.15 31.49c-.7.74-1.53 1.37-2.44 1.88-1.62.93-4.4 1.79-8.3 2.57-2.36.47-3.55.62-3.6.42a.24.24 0 0 1 .08-.19 8.7 8.7 0 0 1 .83-.5l.13-.08c.1-.09.15-.15.14-.19-.04-.11-.28-.1-.71 0-.48.12-.94.31-1.36.56-.5.36-.89.84-1.13 1.39-.3.47-.44 1.02-.38 1.57.07.22.19.42.36.57.17.16.38.46.6.51H10l6.5-11a1.9 1.9 0 0 0 .85.57c2.23.53 4.54.71 6.83.54.78-.06 1.55-.05 2.33.02 1.7.17 2.91.62 3.64 1.36Z" fill="#1F4181"/><path d="M32.9 18.13a4.13 4.13 0 0 0-.69-.07c-1.3.02-2.6.17-3.85.46-2.13.43-4.2 1.07-6.19 1.91l-.64.28L28 10l4.9 8.13Z" fill="#F9AE16"/><path d="M31.23 34.73c1.04-1.17 1.42-2.33 1.16-3.45-.35-1.46-2.25-2.44-5.71-2.94-1.38-.19-2.76-.29-4.15-.3h-2.12c-1.02-.07-1.57-.3-1.66-.68-.12-.53.28-1.15 1.2-1.84 2.1-1.62 5.33-2.86 9.69-3.72.7-.14 1.05-.15 1.08-.03.02.12-.28.33-.83.71-1.26.88-1.84 1.55-1.75 2 .03.07.1.1.2.08.67-.48 1.28-.94 1.84-1.39.36-.25.96-.59 1.73-1.02.4-.2.8-.43 1.17-.69.33-.27.57-.62.7-1.02.07-.22.11-.45.13-.68l3.1 5.15L46 40H18.4c.62-.09 1.3-.4 2.04-.55 1.1-.23 2.22-.52 3.38-.87a25.52 25.52 0 0 0 5.6-2.3c.68-.42 1.3-.94 1.81-1.55Z" fill="#8F221B"/></svg>