<!-- by TradingView --><svg width="56" height="56" viewBox="0 0 56 56" xmlns="http://www.w3.org/2000/svg"><path fill="#F0F3FA" d="M0 0h56v56H0z"/><path fill-rule="evenodd" d="M43 28c0-5.54-6.73-10-15-10s-15 4.46-15 10 6.73 10 15 10 15-4.46 15-10Zm-4 0c0-3.81-4.89-7-11-7s-11 3.19-11 7 4.89 7 11 7 11-3.19 11-7Z" fill="#B41F22"/><path d="M28.38 22S30 23.06 30 24.2c0 1.15-1.27 1.07-1.27 1.8 0 0-1.73-1.06-1.73-1.71 0-.74 1.5-.66 1.38-2.29Z" fill="#B41F22"/><path d="m22 27.32-.32.63s-.63-.3-1.05-.28c-.22 0-.5.14-.5.45 0 .61 1.55.4 1.55 1.54 0 .87-.68 1.34-1.6 1.34-.38 0-.88-.08-1.08-.26v-.78s.6.37 1.03.37c.5 0 .82-.28.82-.66 0-.66-1.57-.5-1.57-1.5 0-.46.28-1.16 1.35-1.17.36 0 .81.09 1.37.32ZM23.13 27c.18 0 .37.17.37.33 0 .17-.19.34-.38.34-.18 0-.37-.17-.37-.34 0-.16.13-.33.38-.33ZM22.58 28.04h.75L22.75 31H22l.58-2.96Z" fill="#181B1E"/><path fill-rule="evenodd" d="m27 32 .97-4h.64c1.04 0 1.39.33 1.39 1.14C30 30 29.62 31 28.4 31h-.43l-.3 1H27Zm1.15-1.57s.07-.67.16-1.04c.1-.37.18-.82.49-.82s.52.21.52.57c0 .68-.27 1.28-.93 1.29h-.24ZM27 27l-.97 4h-.64c-1.04 0-1.39-.33-1.39-1.14 0-.86.38-1.72 1.6-1.72h.43l.3-1.14H27Zm-1.15 1.71s-.07.53-.16.9c-.1.37-.18.82-.49.82s-.52-.21-.52-.57c0-.68.27-1.14.93-1.15h.24ZM33.63 30.7v-.62a2.9 2.9 0 0 1-1.15.32c-.58 0-.48-.6-.48-.6 1.73 0 2-.8 2-.95v-.04c0-.2.02-.81-1.1-.81-1.17 0-1.9.92-1.9 1.7 0 .76.64 1.3 1.36 1.3.73 0 1.27-.3 1.27-.3Zm-.89-2.1c-.34 0-.65.43-.65.6.15 0 1.15-.03 1.16-.27 0-.16-.14-.33-.5-.33Z" fill="#181B1E"/><path d="M37 28.07v.68s-.2-.15-.62-.15c-.48 0-.81.3-.81.9 0 .41.2.9.57.9.3 0 .52-.08.85-.38v.68s-.3.3-.88.3c-.85 0-1.11-.9-1.11-1.5 0-.52.14-1.5 1.45-1.5.07 0 .26 0 .55.07Z" fill="#181B1E"/><path fill-rule="evenodd" d="M28 43c13.25 0 24-6.72 24-15 0-8.28-10.75-15-24-15S4 19.72 4 28c0 8.28 10.75 15 24 15Zm0-2c11.6 0 21-5.82 21-13s-9.4-13-21-13S7 20.82 7 28s9.4 13 21 13Z" fill="url(#a4mmfovwu)"/><defs><linearGradient id="a4mmfovwu" x1="28" y1="13" x2="28" y2="43" gradientUnits="userSpaceOnUse"><stop stop-color="#06015D"/><stop offset=".5" stop-color="#FCFBFF"/><stop offset="1" stop-color="#B11A1F"/></linearGradient></defs></svg>