<!-- by TradingView --><svg width="56" height="56" viewBox="0 0 56 56" xmlns="http://www.w3.org/2000/svg"><path fill="#F0F3FA" d="M0 0h56v56H0z"/><path d="M9.76 22.8c-.58 0-.94.15-1.01.8H11v.8H8.75c0 .58.49.8 1 .8H11v.8H9.7C8.59 26 8 25.1 8 24c0-1.12.58-2 1.7-2H11v.8H9.76ZM9.76 29.8c-.58 0-.94.15-1.01.8H11v.8H8.75c0 .58.49.8 1 .8H11v.8H9.7C8.59 33 8 32.1 8 31c0-1.12.58-2 1.7-2H11v.8H9.76ZM18.76 29.8c-.58 0-.94.15-1.01.8H20v.8h-2.25c0 .58.49.8 1 .8H20v.8h-1.3c-1.11 0-1.7-.9-1.7-2 0-1.12.58-2 1.7-2H20v.8h-1.24ZM23.76 22.8c-.58 0-.94.15-1.01.8H25v.8h-2.25c0 .58.49.8 1 .8H25v.8h-1.3c-1.11 0-1.7-.9-1.7-2 0-1.12.58-2 1.7-2H25v.8h-1.24ZM35.76 22.8c-.58 0-.94.15-1.01.8H37v.8h-2.25c0 .58.49.8 1 .8H37v.8h-1.3c-1.11 0-1.7-.9-1.7-2 0-1.12.58-2 1.7-2H37v.8h-1.24ZM14.33 26c-.82 0-1.33-.67-1.33-1.6V22h.67v2.4c0 .63.33.8.66.8H15v.8h-.67ZM14.33 33c-.82 0-1.33-.67-1.33-1.6V29h.67v2.4c0 .63.33.8.66.8H15v.8h-.67ZM20 22.8h-1.5c-.33 0-.75.03-.75.42 0 .31.4.38.65.38H19c.54 0 .99.56.99 1.12 0 .93-.57 1.28-1.4 1.28H17v-.8h1.54c.32 0 .71 0 .71-.42 0-.38-.47-.38-.75-.38h-.2c-.74 0-1.3-.32-1.3-1.18 0-.9.64-1.22 1.4-1.22H20v.8ZM27 22h.71l.72 2.8.71-2.8h.72l.71 2.8.72-2.8H32l-.97 4h-.83l-.69-2.8-.62 2.8h-.8L27 22ZM39 22h1.98c1.25 0 2.02.74 2.02 2 0 1.18-.72 2-1.95 2H39v-4Zm1.95.8H39.8v2.4h1.22c.14 0 .28 0 .38-.03.59-.14.8-.65.8-1.14 0-.72-.46-1.23-1.25-1.23ZM44 22h.8l1.2 1.6 1.2-1.6h.8l-1.6 2.22V26h-.8v-1.78L44 22ZM35 29h1.7c.65 0 1.3.43 1.3 1.2 0 .5-.24 1.06-.75 1.2L38 33h-.75l-.75-1.6h-.75V33H35v-4Zm1.54.8h-.79v.97h.79c.34 0 .71-.08.71-.5s-.35-.47-.71-.47ZM41.77 33H41v-4h.77v4ZM24.73 29.8c-.82 0-.98.5-.98 1.2 0 .63.27 1.2.92 1.2H26v.8h-1.3c-1.15 0-1.7-.81-1.7-2s.57-2 1.73-2H26v.8h-1.27ZM46.73 29.8c-.82 0-.98.5-.98 1.2 0 .63.27 1.2.92 1.2H48v.8h-1.3c-1.15 0-1.7-.81-1.7-2s.57-2 1.73-2H48v.8h-1.27Z" fill="#181B1E"/><path d="M30 29.8h-1V29h3v.8h-1V33h-1v-3.2Z" fill="url(#aytpsbnge)"/><path d="M42 35.09S26.01 39.93 13 35c.04.05 11.95 8.92 29 .09Z" fill="#D71921"/><path d="M50 27H6v1h44v-1Z" fill="#181B1E"/><defs><linearGradient id="aytpsbnge" x1="30.5" y1="29" x2="30.5" y2="33"><stop offset="1" stop-color="#181B1E"/></linearGradient></defs></svg>