<!-- by TradingView --><svg width="56" height="56" viewBox="0 0 56 56" xmlns="http://www.w3.org/2000/svg"><path fill="#013660" d="M0 0h56v56H0z"/><path fill-rule="evenodd" d="M9 33.5v.5h1.5v-.5H9Zm2 .5v-1H9v-.5h6V32h-.5v-1h-4V21H10v11H9V21h-.5v10H7v1h-.5v-1H6v1H4.5v-1H4v1.5h4.5v.5H7v1h-.5v-1H5v1h.5v-.5H6v1h9V33h-1v1h-.55v-1.5H13v.5h-1.5v1H11Zm3.45 0v-.5h.1v.5h-.1ZM12 33.5v.5h1v-.5h-1Zm-3.5 0v.5h-1v-.5h1Zm2-2H14v.5h-3.5v-.5Zm-2 .5v-.5h-1v.5h1Zm-2.6-.5H5V31h.9v.5Zm5.6-2.5v-7H11v7.5h1v1h3V30h-2.5v-.5H14V29h-1.5v-5H12v5h-.5Zm-4-7v7H7v-5h-.5v5H5v.5h1.5v.5H4v.5h3v-1h1V22h-.5ZM4 34.44h1.5V34h-1v-1H4v1.44ZM18 23v11h-1V23h1Zm7 0h3v2h-3v9h-2v-9h-3v-2h5Zm4 11 1-11h2.5s2.5 8.16 2.5 8c0-.16 2.5-8 2.5-8H40l1 11h-2l-.5-8.5L36 34h-2l-2.5-8.5L31 34h-2Zm23-10.43v2.1S50.43 25 48.64 25c-1.8 0-3.64 1.18-3.64 3.47 0 2.3 2.17 3.53 3.2 3.53.8 0 1.8-.2 1.8-.2V30h-2v-2h4v5.84s-1.72.18-3.24.16C45 34 43 31.7 43 28.3c0-3.75 3.52-5.31 5.64-5.31 2.06 0 3.36.57 3.36.57Z" fill="url(#a1u21wbkd)"/><defs><linearGradient id="a1u21wbkd" x1="9" y1="16.5" x2="42" y2="38.5" gradientUnits="userSpaceOnUse"><stop stop-color="#D3CA67"/><stop offset=".15" stop-color="#7F8061"/><stop offset=".4" stop-color="#D4CB67"/><stop offset=".51" stop-color="#B5933D"/><stop offset="1" stop-color="#9F7418"/></linearGradient></defs></svg>