<!-- by TradingView --><svg width="56" height="56" viewBox="0 0 56 56" xmlns="http://www.w3.org/2000/svg"><path fill="#5983A9" d="M0 0h56v56H0z"/><path d="M41.62 27.5c0 7.46-6.1 13.5-13.6 13.5-7.52 0-13.62-6.04-13.62-13.5S20.5 14 28.01 14c7.52 0 13.61 6.04 13.61 13.5Z" fill="#F45337"/><path d="M32.17 40.32c-2.57 1.23-5.9.51-7.39 0v-7.94c0-.83-.18-1.38-1.02-1.38H14.1l-1.07-8h28.57l1.22 2.4c-.3.62-.94 1.99-1.07 2.64-.13.65-.4 2.28-.5 2.96h-7.56c-.83 0-1.51.55-1.51 1.38v7.94Z" fill="#FDFFFE"/><path fill-rule="evenodd" d="M32 40.13c-1.2.53-2.7.53-3.97.5a12.74 12.74 0 0 1-3.03-.26v-7.99c0-.49-.18-.91-.5-1.22-.31-.3-.75-.46-1.23-.46h-8.92l-.99-7.4h28.05l1.07 2.11c-.15.3-.36.74-.54 1.18-.22.5-.42 1.03-.5 1.39-.1.49-.27 1.54-.4 2.31l-.06.41h-7.3A1.6 1.6 0 0 0 32 32.38v7.75ZM41.23 31h-7.55c-.83 0-1.38.55-1.38 1.38v7.94c-1.28.64-2.27.68-3.96.68a12.6 12.6 0 0 1-3.64-.41v-8.2c0-.84-.6-1.39-1.43-1.39H14.1l-1.07-8h28.57l1.22 2.4c-.3.62-.94 1.99-1.07 2.64-.1.48-.27 1.52-.4 2.3l-.1.66Z" fill="#853523"/><path d="M53 23.1c.18-.18-30.2-.08-45.42 0L5 27.9c2.82-1.9 4.1-4.58 6.75.8 2.12 4.3 4.9 6.88 6 7.67-2.14-2.69-3.28-5.96-3.28-6.58 0-.5.46-.75.68-.79h8.43c.97 0 2.42.83 2.42 1.78v9.92l1-.05V28.22c0-.95-1.12-1.22-2.1-1.22h-9.75c-.83 0-.78-.86-.55-1.56.19-.57.56-1.31.72-1.44h10.23c1.25 0 2.26 1.33 2.26 2.54V41h.97V26.54c0-1.21 1.01-2.54 2.26-2.54h9.79c.17-.03.6.45 1.02 1.22.41.78.1 1.67-.1 1.78h-9.8c-.97 0-1.75.27-1.75 1.22V40.8l1.1-.3v-9.72c0-.95.79-1.78 1.76-1.78h8.34c3.9-4.93 11.37-5.68 11.6-5.9Z" fill="#F89240"/><path fill-rule="evenodd" d="M41.75 26.7h-9.8c-.97 0-1.95.57-1.95 1.52v12.63l1.3-.15v-9.92c0-.95.79-1.78 1.76-1.78h8.5c3.06-3.88 8.24-5.17 10.42-5.65l.34-.07.4-.1a.97.97 0 0 0 .28-.08c-.03-.02-.13-.02-.3-.03-.18 0-.43-.06-.75-.07H7.58L5 27.9a13.34 13.34 0 0 0 1.4-1.06c1.93-1.54 3.18-2.54 5.35 1.85a23.93 23.93 0 0 0 5.08 6.93c.39.35.71.62.96.8-.26-.33-.5-.66-.73-1-1.66-2.45-2.47-5.07-2.47-5.62 0-.5.34-.76.56-.8h8.43c.97 0 2.12.83 2.12 1.78v9.92l1.3.11v-12.6c0-.94-1.12-1.51-2.1-1.51h-9.75c-.83 0-.78-.56-.55-1.26.19-.57.56-1.01.72-1.14h10.23a2.18 2.18 0 0 1 2.15 2.24V41H29V26.54c0-1.21.79-2.24 2.04-2.24h9.79c.17-.03.6.15 1.02.92.41.78.1 1.37-.1 1.48Zm-.94-2.7c.2-.02.42.07.62.22.22.17.46.45.68.86.24.45.28.86.22 1.19-.04.16-.1.3-.16.42a.75.75 0 0 1-.28.28l-.07.03h-9.86c-.44 0-.86.13-1.17.35-.3.22-.49.51-.49.87v12.37l.7-.13v-9.68c0-1.1.92-2.08 2.06-2.08h8.36c1.99-2.46 4.8-3.87 7.13-4.7.81-.29 1.56-.5 2.2-.67l-2.63-.02H36.07c-9.4 0-20.7.05-28.3.09L5.9 26.86l.3-.25.49-.38a4.7 4.7 0 0 1 1.68-.95c.6-.14 1.2 0 1.8.53.58.52 1.18 1.4 1.85 2.75a24.33 24.33 0 0 0 4.13 5.97 19.7 19.7 0 0 1-1.65-3.73c-.13-.43-.21-.8-.21-1 0-.64.44-1.04.82-1.1H23.58c.56 0 1.16.24 1.61.6.45.36.81.88.81 1.48v9.77l.7.07v-12.4c0-.34-.2-.64-.55-.86a2.36 2.36 0 0 0-1.24-.36h-9.76c-.23 0-.44-.04-.62-.14a.73.73 0 0 1-.34-.45 1.25 1.25 0 0 1-.02-.53c.03-.17.08-.36.15-.54.2-.62.6-1.1.81-1.27l.08-.07h10.34A2.48 2.48 0 0 1 28 26.54v14.08h.7V26.54c0-1.34.89-2.54 2.34-2.54h9.77Z" fill="#853523"/><circle cx="8.5" cy="24.5" r=".5" fill="#212121"/></svg>