<!-- by TradingView --><svg width="56" height="56" viewBox="0 0 56 56" xmlns="http://www.w3.org/2000/svg"><path fill="#454545" d="M0 0h56v56H0z"/><path fill-rule="evenodd" d="m21.67 21.84.75.54.6-.54.6.26.45-.7-.76-.45-.49.45-.57-.19-.58.63Zm-1.3-.73-.68 1.15c.55.06.55 1.11.55 2.25v.25c0 .98.44 1.24.67 1.25h4.88c.31-.7 1.15-.29 1.52 0h5.18c0-.81-.2-1.73-.36-2.49l-.14-.68c-.11-.59.11-.83.25-.98.06-.06.1-.11.1-.16 0-.16-.44-.7-.88-.7-.36 0-.57.66-.63 1.1.71.11.96 2.02 1 2.9h-1.5l-.04-.24c-.07-.56-.19-1.49-.27-1.92a.87.87 0 0 1 .15-.74c.08-.12.15-.23.15-.4 0-.4-.54-.7-.88-.7-.28 0-.54.66-.63 1.1.77.22.97 2.07.97 2.9h-1.2l-.62-1.3a.75.75 0 0 0-1.26-.16L25.5 25h-.7c0-1.68-.63-2.65-1.21-2.65-.6 0-1.03.49-1.03 1.4 0 .72.41 1.18.62 1.25H21v-2.16a2.7 2.7 0 0 0-.63-1.73Zm3.53 2.99c.08-.07 0-.27-.17-.43-.18-.16-.4-.23-.47-.15-.09.07-.01.26.17.42.17.17.38.24.47.16Zm3.47.72c.08-.07 0-.27-.17-.43-.18-.16-.39-.23-.47-.15-.08.07 0 .26.17.43.18.16.39.23.47.15ZM11 21.24v1.52c.1.2.5.64 1.29.8.78.17 1.1.92 1.15 1.27l-1.15.9V27h1.66c.4-.35 1-1.3.15-2.24.05 0 .58-1.28.84-1.91.13-.51.14-1.6-.84-1.85-.06.16-.22.51-.42.7-.12.11 0 .27.14.46.13.18.28.38.28.6a3 3 0 0 1-.35 1.13c-.66-.88-2.14-2.65-2.75-2.65Zm4.17 5.2-.17.22c.21.44.92 1.34 2.03 1.34 1.11 0 1.78-1.11 1.97-1.67V24.1c0-.36-.22-1.1-.86-1.1S17 23.78 17 24.9c0 .92.85 1.15 1.27 1.16-.22.3-.87.89-1.72.89s-1.27-.34-1.38-.5Zm3.25-1.85c0 .24-.15.43-.34.43-.2 0-.35-.2-.35-.43 0-.24.16-.44.35-.44.19 0 .34.2.34.44ZM7.66 23.37l-.77-.52.6-.6.59.19.5-.44.79.44-.48.67-.61-.26-.62.52Zm-1.64.01-.29-.24c-.55.35-.72 1.08-.73 1.4 0 1.12.8 1.44 1.21 1.46H11c0-2.01-.4-2.75-.6-2.86l-.59.91.73.95H7.2c-.9 0-1.61-.18-1.61-.8 0-.5.29-.75.43-.82Z" fill="#fff"/><path d="m34.12 20.93.75.57.6-.57.59.28.46-.73-.77-.48-.48.48-.57-.2-.58.65Zm1.58 1.15.35-.66c.1.38.32 1.37.32 2.28 0 .91.46 1.22.7 1.3h1.35c.34 0 .55-.34.77-.71.25-.43.53-.89 1.04-.89.77 0 1.1.96 1.18 1.43V26h-1.18a.92.92 0 0 0-.78-.42c-.42 0-.6.26-.64.42h-1.57c-1.14 0-1.3-.8-1.25-1.35-.05.22-.3.65-1.02.65-.7 0-.94-.28-.97-.43-.08-1.2 1.1-1.94 1.7-2.16v-.63Zm.05 1.47c-.11-.11-.35-.07-.52.1-.17.16-.22.38-.1.5.12.1.36.07.53-.1.17-.16.21-.39.1-.5Zm3.97.86c-.12.12-.08.34.1.5.16.17.4.2.52.1.12-.12.07-.34-.1-.5-.17-.17-.4-.2-.52-.1Zm1.95-1.23c0-.68-.32-.92-.48-.95l.58-1c.77.41.63 1.83.55 2.62l-.03.4c0 .42.12.65.18.75h1.13c.54 0 .64-.16.62-.27-.03-.13-.14-.4-.35-.4-.21 0-.47.11-.57.17.14-1.32.99-1.32 1.49-1.32h.03c.5 0 1.14.17 1.14.76 0 .47-.4.88-.6 1.06h2.6c-.05-.63-.2-1.93-.32-2.39a.83.83 0 0 0-.7-.6c.08-.44.33-1.3.7-1.3.37 0 .8.63.96.94l-.56.85c.35.68.52 2.52.56 3.5h-3.24c0-.15-.12-.44-.54-.44-.42 0-.57.3-.6.44h-1.41c-1 0-1.18-.46-1.14-.7v-2.12Zm7.12-.77.68-1.17c.43 1.32 1 4.21-.13 5.26.44-1.06-.19-3.17-.55-4.09ZM8.24 33.6v.94c0 .17.1.46.63.46h5.17c.16-.06.5-.2.66-.46.09.17.36.46.72.46h1.49c.17-.01.56-.08.81-.46.06.17.3.46.84.46h6.86c0-.9-.12-2.87-.51-3.67l.51-.7c-.22-.24-.71-.8-.86-1-.2-.26-.81.62-.76 1.16.1-.01.37.13.54.77.14.53.36 1.52.5 2.13l.07.31h-1.46v-1.13c-.06-.3-.37-.92-1.22-.92-.84 0-2.5 1.39-3.24 2.05h-.73a10 10 0 0 1-.16-1.32h-.38c-.1.41-.42 1.32-.87 1.32h-1.57c.23-.25.7-.91.7-1.21 0-.38-.26-.79-1.42-.79-.93 0-1.25.36-1.3.58l-.37-.63-.74.95.74 1.1h-1.95c.1-.77.05-2.57-1.06-3l-.48 1.16c.33.17 1 .88 1 1.84H8.6c-.12 0-.36-.17-.36-.4Zm14.44-.08c0 .34-.43.46-.64.48h-1.87c1.22-1.6 2.5-.9 2.5-.48Zm-8.56.07a.4.4 0 0 1-.41.4.4.4 0 0 1-.41-.4.4.4 0 0 1 .4-.39c.23 0 .42.18.42.4ZM26.68 30 26 31.11c.37.88.99 2.88.55 3.89 1.13-1 .56-3.75.13-5Zm-15.77 6.43.75.57.6-.57.59.28.46-.73-.77-.48-.48.48-.58-.2-.57.65ZM29.9 29.77l.76.56.6-.56.59.27.46-.73-.77-.48-.48.48-.58-.2-.57.66ZM32.75 34c-.69-.2-.97-2.63-1.03-3.73-.43 0-.52.78-.51 1.16-.27.17-.93.68-1.4 1.32-.58.8-.06 1.34.72 1.34.62 0 .95-.36 1.03-.54 0 .83.47 1.3.7 1.45h4.2c.01-.49-.06-1.54-.4-1.92a14.76 14.76 0 0 0-1.52-1.33c.33-.16 1.23-.4 1.64-.5V30.2c-.86.16-2.59.72-2.59 1.67 0 .94 1.4 1.88 2.1 2.14h-2.94Zm-1.3-1.54c.08.13-.02.33-.22.44-.2.12-.44.1-.52-.03-.08-.13.03-.33.23-.44.2-.11.44-.1.51.03ZM42.91 30.51l.74.44.5-.69-.7-.53-.54.78Zm.68 1.81-.75-.57.58-.66.57.2.48-.47.77.48-.46.73-.6-.28-.59.57Zm-5.85 3.98c-.85 0-1.24-.33-1.33-.5.04.4.44 1.18 1.7 1.18s1.93-1.27 2.1-1.9c-.05 0-.05-.08.37-.08.43 0 .87-.26 1.04-.42 0 .24.36.35.56.41l.02.01h1.47c.23 0 .45-.1.53-.18 0 .16.27.17.45.18h1v-2.54h-.44l-.37.74.25.8c-.5 0-.6-.96-.6-1.36h-.35L43.67 34h-1.12c-.72 0-.77-.96-.71-1.36h-.22c-.04.91-.87 1.19-1.29 1.21a2.1 2.1 0 0 0-.78-1.7l-.3 1.14c.6.26.56 1.03.47 1.38-.3.54-1.13 1.63-1.98 1.63Z" fill="#fff"/></svg>