<!-- by TradingView --><svg width="56" height="56" viewBox="0 0 56 56" xmlns="http://www.w3.org/2000/svg"><path fill="#F0F3FA" d="M0 0h56v56H0z"/><path fill-rule="evenodd" d="M11.18 14a11.35 11.35 0 0 0 8.37 3.64c4.34 0 7.37-2.43 8.34-3.64a12.62 12.62 0 0 0 8.57 3.64c4.14 0 7.28-2.43 8.34-3.64.97 7.6-1.05 24.65-16.91 32-15.54-7.05-17.62-24.27-16.71-32ZM23 22.83c-.3-.42-.93-1.3-1-1.37A2.76 2.76 0 0 1 24.46 20c1.42 0 2.33 1.89 2.54 2.83v10.59c1.1 1.16 2.31 1.27 3 .95V23.4c-.69 0-1.12-.96-1.02-1.6.09-.52.81-1.27 1.17-1.58 2.54.54 4 2.24 4.19 2.72.15.39-.15.72-.34.83v10.82c0 .5.61.2 1.06-.03.19-.1.35-.18.42-.18.25 0-.56 3.63-2.79 3.63a3.27 3.27 0 0 1-2.96-1.94c-.21.44-1.17.94-3.52.94-2.31 0-3.1-1.65-3.21-2.42V22.83Zm3.52 17.74 2.5 1.43c.57-.36 1.76-1.15 2.1-1.43.35-.3.27-.44.2-.57l-.04-.07a2.7 2.7 0 0 1-.04-.08c-.1-.23-.3-.72-.54-.72-.23 0-.29.1-.3.13-.28.3-1.03.92-1.68.92-.6 0-1.14-.64-1.43-1-.1-.11-.17-.2-.2-.21-.14-.06-.83.47-.83.83 0 .3.18.63.26.77Z" fill="#187B30"/></svg>