<!-- by TradingView --><svg width="56" height="56" viewBox="0 0 56 56" xmlns="http://www.w3.org/2000/svg"><path fill="#F0F3FA" d="M0 0h56v56H0z"/><path d="M36 21h4v12.49s-.28 11.66-12 9.16c0 0 8-2.11 8-9.76V21Z" fill="#C6C6C6"/><path d="M21 30h-5v5.58s.44 14 19 11c0 0-14-2.53-14-11.73V30Z" fill="#C6C6C6"/><path d="M35 21h-1v8h1v-8Z" fill="#004783"/><path d="M29 24v1h6v-1h-6ZM23 21v4.5c0 1.45 1 2.5 2.5 2.5s2.5-1.32 2.5-2.5V21h1v4.5c0 1.83-1.5 3.5-3.5 3.5S22 27.7 22 25.5V21h1Z" fill="#004783"/><path d="M16 13h2.5v17H16V13Z" fill="url(#aqvjtmz2a)"/><path d="M18.5 13H21v17h-2.5V13Z" fill="url(#bqvjtmz2a)"/><path d="m16 13 2.5-3v3H16Z" fill="#9A9A9A"/><path d="m21 13-2.5-3v3H21Z" fill="#A9A9A9"/><defs><linearGradient id="aqvjtmz2a" x1="17.25" y1="13" x2="17.25" y2="30" gradientUnits="userSpaceOnUse"><stop stop-color="#8C8C8B"/><stop offset="1" stop-color="#C6C6C6"/></linearGradient><linearGradient id="bqvjtmz2a" x1="19.75" y1="13" x2="19.75" y2="30" gradientUnits="userSpaceOnUse"><stop stop-color="#9A9A9A"/><stop offset="1" stop-color="#C6C6C6"/></linearGradient></defs></svg>