<!-- by TradingView --><svg width="56" height="56" viewBox="0 0 56 56" xmlns="http://www.w3.org/2000/svg"><path fill="#F0F3FA" d="M0 0h56v56H0z"/><circle cx="27.89" cy="28" fill="#F47844" r="10.83"/><path d="m26.82 20.8-8.7 2.2c1.14-1.98 3.78-5.98 10.2-5.98 5.14 0 8.45 4.05 9.46 6.08l-7.27-2.3h-3.7Z" fill="#EDFEEC"/><path d="M31.4 24.32h-5.57v1.3h5.57v-1.3ZM30.82 21.2h-4.55v1.3h4.55v-1.3Z" fill="#D3FA3D"/><path d="M20.6 36.98a11.56 11.56 0 1 1 15.47-.8l-.61-.79a10.5 10.5 0 1 0-14.77.14l-.57.81.48.64Z" fill="#400503"/><path fill-rule="evenodd" d="M26 21v1.6h5V21h-5Zm.32.3v1.05h4.36V21.3h-4.36Z" fill="#430300"/><path d="m26.59 22.5-.2 1.74h4.51l-.16-1.75h-4.15Z" fill="#430300"/><path d="M28.42 35.3c-1.6 0-2.77-.22-3.16-.33l.97-9.24h4.53l.53 9.24c-.3.11-1.29.33-2.87.33Z" fill="#D12A0A"/><path fill-rule="evenodd" d="M25.5 24v1.8h6V24h-6Zm.36.36v1.18h5.37v-1.18h-5.37ZM27 27v-1.11h.3V27H29v-1.11h.3V27h1.52v.3h-.52v.7h.52v.3H29.3v.7h1.52v.3h-.52v.7h.52v.3H29.3v.7H31v.3h-.7v.7h.7v.3h-1.7v.7h1.91v.3h-.91v.7h.91v.3H29.3v.81H29v-.81h-1.7v.81H27v-.81h-1.48V34H28v-.7h-2.48V33H27v-.7h-1.26V32H28v-.7h-2.26V31H27v-.7h-1.08V30H28v-.7h-2.08V29H27v-.7h-.84V28H28v-.7h-1.84V27H27Zm1.3 6.3v.7H30v-.7h-1.7Zm0-2H30v.7h-1.7v-.7Zm0-2v.7H30v-.7h-1.7Zm0-2H30v.7h-1.7v-.7Zm-1 1H29v.7h-1.7v-.7Zm0 2v.7H29v-.7h-1.7Zm0 2H29v.7h-1.7v-.7Z" fill="#430300"/><path d="m27 19.25-2.8-1.64c3.04-1.65 6.98-.6 8.57.12l-2.26 1.52v.17h4.57v.42h-4.46l6 1.17-.08.41-6.03-1.16v.32l7.3 2.26-.12.4-7.18-2.2h-3.5V21l-8.9 2.2-.1-.41 9-2.23v-.28l-7.62.95-.06-.42 7.68-.96v-.16a41 41 0 0 1-5.44-.44l.08-.42c.72.12 2.78.38 5.36.43v-.01Z" fill="#430300"/><path d="M29.82 19h-2.05c0-.23.18-.7.92-.7.73 0 1.06.47 1.13.7Z" fill="#D3FA3D"/><path d="M26.04 25.6h4.92l.52 9.63-.42.02-.5-9.25h-4.14l-.99 9.07-.42-.05 1.03-9.41Z" fill="#430300"/><path d="M21.05 35.42c-.39-.5-.63.28-.8.44l-.3.55c.67 1.03 3.2 3.1 7.91 3.1s7.61-2.42 8.48-3.63c0-.1-.3-.7-.68-.7-.48 0-.56.31-.94.53-.38.21-.23-.23-.77-.1-.53.13-.75.27-1.04.1-.29-.18.56-.52-.5-.74-1.07-.23-1.13-.01-1.62-.1-.5-.09-2.99-.17-3.32 0-.26.14-1.2.16-1.63.1-.5-.24-1.7-.37-2.47.21-.97.72-.57-.01-1.07 0-.4 0-1.07-.03-1.25.24Z" fill="#76F2FF"/><path d="M21.83 36.47c.03-.1.1-.26.18-.39.1-.13.18-.18.25-.18.06 0 .12.03.2.1l.14.11.14.13c.2.15.4.07.49.03l.05-.02a.93.93 0 0 1 .08-.04.15.15 0 0 1 .06 0h.03l.35.22c.25.15.56.09.74-.14a.14.14 0 0 1 .2-.02l.15.11c.26.2.63.17.85-.08a.2.2 0 0 1 .25-.04l.31.22c.13.1.28.1.41.06a.56.56 0 0 0 .28-.25.08.08 0 0 1 .11-.02l.11.09c.23.19.57.18.79-.01a.18.18 0 0 1 .23-.01l.15.12.13-.17-.13.17c.25.18.6.09.72-.2a.04.04 0 0 1 .06-.01l.39.34c.21.2.55.16.73-.07l-.17-.13.17.13a.07.07 0 0 1 .1-.02l.29.22a.5.5 0 0 0 .74-.2.07.07 0 0 1 .1-.03l.34.22c.27.19.65.14.87-.11.07-.1.2-.11.3-.05a10.8 10.8 0 0 0 .39.22h.07c.08 0 .13-.04.14-.04a.32.32 0 0 0 .04-.04l.02-.03.01-.01a.36.36 0 0 1 .07-.07.15.15 0 0 1 .09-.03c.03 0 .08 0 .16.05l.2-.38a.75.75 0 0 0-.39-.1.58.58 0 0 0-.39.18l-.18-.11a.67.67 0 0 0-.86.13.24.24 0 0 1-.3.04l-.34-.23a.5.5 0 0 0-.73.22.07.07 0 0 1-.1.02l-.29-.2a.5.5 0 0 0-.7.1.07.07 0 0 1-.1 0l-.39-.34a.46.46 0 0 0-.74.17c0 .03-.04.03-.06.02L28.5 36a.6.6 0 0 0-.77.03.18.18 0 0 1-.24 0l-.1-.09a.5.5 0 0 0-.76.13l-.06.07h-.01l-.32-.23a.62.62 0 0 0-.82.11.2.2 0 0 1-.26.03l-.15-.12a.57.57 0 0 0-.8.1.14.14 0 0 1-.18.03l-.35-.21a.5.5 0 0 0-.2-.07.56.56 0 0 0-.25.03l-.13.05-.03.01a.42.42 0 0 1-.06.03l-.11-.1-.16-.14a.77.77 0 0 0-.47-.18c-.28 0-.47.19-.6.36-.12.17-.2.37-.24.5l.4.13Zm1.04.91c.03-.1.08-.26.16-.4l.1-.13.06-.03c.03 0 .07.02.13.07l.1.1.02.03.09.1c.08.08.18.11.28.1.08 0 .16-.03.2-.05l.03-.01a.65.65 0 0 1 .11-.04l.3.22c.24.17.54.09.7-.14.01-.03.03-.04.04-.04.01 0 .03 0 .05.02l.12.11c.24.23.6.17.78-.09.03-.03.06-.05.08-.05.02 0 .04 0 .07.02l.22.19c.11.1.25.12.39.08a.46.46 0 0 0 .29-.25.06.06 0 0 1 .02-.02l.1.1c.2.2.52.2.73-.02l.06-.03.06.02.13.12.14-.15-.14.15c.1.1.26.14.39.1a.44.44 0 0 0 .27-.29l.3.33a.43.43 0 0 0 .7-.08l.25.2c.12.1.27.14.4.1a.46.46 0 0 0 .3-.3l.01-.02.28.22c.26.2.6.14.8-.12.05-.08.13-.08.18-.04a9.75 9.75 0 0 0 .34.22l.08.02a.22.22 0 0 0 .15-.07.3.3 0 0 0 .04-.04l.02-.03v-.01a.32.32 0 0 1 .06-.06l.04-.02c.01 0 .04 0 .1.04l.23-.36a.6.6 0 0 0-.35-.1.49.49 0 0 0-.34.15 13.5 13.5 0 0 1-.11-.08.55.55 0 0 0-.79.13c-.06.08-.13.08-.18.04l-.29-.23a.42.42 0 0 0-.4-.07.47.47 0 0 0-.28.29l-.01.02-.24-.2a.42.42 0 0 0-.36-.11.45.45 0 0 0-.3.2v.02h-.01l-.32-.35a.4.4 0 0 0-.4-.12.44.44 0 0 0-.3.29l-.1-.1a.5.5 0 0 0-.72.03l-.06.03c-.02 0-.04 0-.06-.03l-.1-.09a.43.43 0 0 0-.39-.12.46.46 0 0 0-.31.26l-.02.02-.23-.19a.51.51 0 0 0-.76.11c-.03.04-.06.05-.08.06-.02 0-.04 0-.07-.03l-.12-.12a.48.48 0 0 0-.4-.12.5.5 0 0 0-.34.22c-.02.03-.04.04-.05.04h-.04l-.3-.22a.43.43 0 0 0-.38-.07l-.15.06h-.02a.87.87 0 0 1-.04.02l-.05-.05-.02-.03a1.77 1.77 0 0 0-.13-.13.62.62 0 0 0-.42-.18.51.51 0 0 0-.33.12.97.97 0 0 0-.2.25c-.1.17-.17.37-.2.5l.4.1Zm10.47-.97Zm-.9.93Z" fill="#185BE0"/><path fill-rule="evenodd" d="M28 41a13 13 0 1 0 0-26 13 13 0 0 0 0 26Zm0-2a11 11 0 1 0 0-22 11 11 0 0 0 0 22Z" fill="#ECEA61"/><path fill-rule="evenodd" d="M33.72 14.67a14.4 14.4 0 0 0-3.53-1l.24-2.67h-4.86l.13 2.68c-.85.14-1.67.34-2.46.62l-1.15-2.42-4.29 2.3 1.48 2.23a14.6 14.6 0 0 0-1.83 1.65l-2.15-1.62-2.73 4.03 2.34 1.29a14.4 14.4 0 0 0-1.23 3.94L11 25.57v4.86l2.66-.24c.16 1.03.43 2.03.79 2.98l-2.39 1.22 2.43 4.22 2.19-1.55c.52.65 1.1 1.25 1.71 1.8l-1.55 2.2 4.12 2.6 1.21-2.38c1.11.49 2.3.84 3.53 1.04L25.57 45h4.86l-.24-2.66a14.4 14.4 0 0 0 2.68-.68l1.04 2.46 4.29-2.3-1.4-2.3c.66-.5 1.27-1.06 1.83-1.66l2.07 1.7 2.73-4.03-2.29-1.4a14.4 14.4 0 0 0 1.2-3.94l2.66.24v-4.86l-2.68.13a14.4 14.4 0 0 0-.81-2.98l2.43-1.11-2.43-4.22-2.26 1.46c-.53-.64-1.1-1.24-1.73-1.79l1.64-2.12-4.12-2.6-1.32 2.33ZM28 40a12 12 0 1 0 0-24 12 12 0 0 0 0 24Z" fill="#D70F18"/></svg>