<!-- by TradingView --><svg width="56" height="56" viewBox="0 0 56 56" xmlns="http://www.w3.org/2000/svg"><path fill="#F0F3FA" d="M0 0h56v56H0z"/><path d="M12 15h32v27c-18.85-7.63-32-8-32-8V15Z" fill="#D6D4C5"/><path d="M12 35s14.3.42 32 8c0 0-4.87-.89-8.45-1.16-3.58-.25-19.04.25-23.55-6.84Z" fill="#677C5E"/><path d="M19 17s5.2-1.04 10.67-1c1.8.01 4.33.5 5.33 1 0 0-1.13 1-4.7 1-3.56 0-6.37-.67-11.3-1Z" fill="#D56919"/><path d="M36 17s6.75 1.47 7 2.69c.27 1.37-9.82 11-10.24 11.36-.44.37-2.65 2.95-10.86 2.95-6.58 0-9.9-1-9.9-1l23.56-14.86s.3-.21.44-.57c.03-.16 0-.57 0-.57Z" fill="url(#a53ds3ms2)"/><path d="M41 36s-1.64 2.64-4.92 3c0 0-.66-2.36 1.84-2.56.73-.08 1.26.12 3.08-.44Z" fill="#D56919"/><defs><linearGradient id="a53ds3ms2" x1="43" y1="18.5" x2="13" y2="20" gradientUnits="userSpaceOnUse"><stop stop-color="#D0691E"/><stop offset=".35" stop-color="#192639"/><stop offset=".66" stop-color="#13243A"/><stop offset="1" stop-color="#617459"/></linearGradient></defs></svg>